<svg xmlns="http://www.w3.org/2000/svg" xmlns:xlink="http://www.w3.org/1999/xlink" width="3000" zoomAndPan="magnify" viewBox="0 0 2250 2250.000011" height="3000" preserveAspectRatio="xMidYMid meet" version="1.0"><defs><clipPath id="a144cc76b3"><path d="M 535.90625 17.078125 L 2235.8125 17.078125 L 2235.8125 1716.984375 L 535.90625 1716.984375 Z M 535.90625 17.078125 " clip-rule="nonzero"/></clipPath><clipPath id="4843b6621a"><path d="M 2235.8125 867.03125 C 2235.8125 397.613281 1855.277344 17.078125 1385.859375 17.078125 C 916.445312 17.078125 535.90625 397.613281 535.90625 867.03125 C 535.90625 1336.445312 916.445312 1716.984375 1385.859375 1716.984375 C 1855.277344 1716.984375 2235.8125 1336.445312 2235.8125 867.03125 Z M 2235.8125 867.03125 " clip-rule="nonzero"/></clipPath><clipPath id="bc063b9b4a"><path d="M 0.5 56 L 541.757812 56 L 541.757812 1184.957031 L 0.5 1184.957031 Z M 0.5 56 " clip-rule="nonzero"/></clipPath><clipPath id="7fe722bfc7"><path d="M 0.503906 1185.21875 L 1139.246094 1185.21875 L 1139.246094 2248.996094 L 0.503906 2248.996094 Z M 0.503906 1185.21875 " clip-rule="nonzero"/></clipPath></defs><g clip-path="url(#a144cc76b3)"><g clip-path="url(#4843b6621a)"><path fill="#006a43" d="M 2235.8125 17.078125 L 2235.8125 1716.984375 L 535.90625 1716.984375 L 535.90625 17.078125 Z M 2235.8125 17.078125 " fill-opacity="1" fill-rule="nonzero"/></g></g><g clip-path="url(#bc063b9b4a)"><path fill="#25c19b" d="M -22.546875 56.007812 C -13.308594 56.007812 -4.074219 56.234375 5.152344 56.6875 C 14.378906 57.140625 23.589844 57.820312 32.78125 58.722656 C 41.976562 59.628906 51.140625 60.761719 60.28125 62.117188 C 69.417969 63.472656 78.519531 65.050781 87.578125 66.851562 C 96.640625 68.65625 105.648438 70.679688 114.609375 72.921875 C 123.570312 75.167969 132.472656 77.632812 141.3125 80.3125 C 150.152344 82.996094 158.921875 85.890625 167.621094 89.003906 C 176.320312 92.117188 184.933594 95.4375 193.46875 98.972656 C 202.003906 102.507812 210.449219 106.253906 218.800781 110.203125 C 227.148438 114.152344 235.398438 118.304688 243.546875 122.660156 C 251.695312 127.011719 259.730469 131.566406 267.652344 136.316406 C 275.578125 141.0625 283.378906 146.003906 291.058594 151.136719 C 298.742188 156.269531 306.292969 161.585938 313.710938 167.089844 C 321.132812 172.59375 328.414062 178.277344 335.554688 184.136719 C 342.695312 189.996094 349.6875 196.027344 356.535156 202.234375 C 363.378906 208.4375 370.066406 214.804688 376.597656 221.335938 C 383.132812 227.871094 389.5 234.558594 395.703125 241.402344 C 401.90625 248.25 407.941406 255.242188 413.800781 262.382812 C 419.660156 269.523438 425.34375 276.804688 430.84375 284.222656 C 436.347656 291.644531 441.667969 299.195312 446.796875 306.875 C 451.929688 314.558594 456.871094 322.359375 461.621094 330.285156 C 466.371094 338.207031 470.921875 346.242188 475.277344 354.390625 C 479.632812 362.539062 483.785156 370.785156 487.734375 379.136719 C 491.683594 387.488281 495.425781 395.933594 498.960938 404.464844 C 502.496094 413 505.820312 421.617188 508.933594 430.316406 C 512.046875 439.015625 514.941406 447.78125 517.625 456.625 C 520.304688 465.464844 522.769531 474.363281 525.011719 483.324219 C 527.257812 492.285156 529.28125 501.296875 531.082031 510.359375 C 532.886719 519.417969 534.464844 528.519531 535.820312 537.65625 C 537.175781 546.792969 538.304688 555.960938 539.210938 565.152344 C 540.117188 574.347656 540.796875 583.558594 541.25 592.785156 C 541.703125 602.011719 541.929688 611.242188 541.929688 620.480469 C 541.929688 629.71875 541.703125 638.953125 541.25 648.179688 C 540.796875 657.40625 540.117188 666.617188 539.210938 675.808594 C 538.304688 685.003906 537.175781 694.167969 535.820312 703.308594 C 534.464844 712.445312 532.886719 721.546875 531.082031 730.605469 C 529.28125 739.667969 527.257812 748.675781 525.011719 757.636719 C 522.769531 766.597656 520.304688 775.5 517.625 784.339844 C 514.941406 793.179688 512.046875 801.949219 508.933594 810.648438 C 505.820312 819.347656 502.496094 827.960938 498.960938 836.496094 C 495.425781 845.03125 491.683594 853.476562 487.734375 861.828125 C 483.785156 870.175781 479.632812 878.425781 475.277344 886.574219 C 470.921875 894.722656 466.371094 902.757812 461.621094 910.679688 C 456.871094 918.605469 451.929688 926.40625 446.796875 934.085938 C 441.667969 941.769531 436.347656 949.320312 430.84375 956.738281 C 425.34375 964.160156 419.660156 971.441406 413.800781 978.582031 C 407.941406 985.722656 401.90625 992.714844 395.703125 999.5625 C 389.5 1006.40625 383.132812 1013.09375 376.597656 1019.625 C 370.066406 1026.160156 363.378906 1032.527344 356.53125 1038.730469 C 349.6875 1044.933594 342.695312 1050.96875 335.554688 1056.828125 C 328.414062 1062.6875 321.132812 1068.371094 313.710938 1073.871094 C 306.292969 1079.375 298.742188 1084.695312 291.058594 1089.828125 C 283.378906 1094.957031 275.578125 1099.898438 267.652344 1104.648438 C 259.730469 1109.398438 251.695312 1113.949219 243.546875 1118.304688 C 235.398438 1122.660156 227.148438 1126.8125 218.800781 1130.761719 C 210.449219 1134.710938 202.003906 1138.453125 193.46875 1141.988281 C 184.933594 1145.523438 176.320312 1148.847656 167.621094 1151.960938 C 158.921875 1155.074219 150.152344 1157.96875 141.3125 1160.652344 C 132.472656 1163.332031 123.570312 1165.796875 114.609375 1168.039062 C 105.648438 1170.285156 96.640625 1172.308594 87.578125 1174.109375 C 78.519531 1175.914062 69.417969 1177.492188 60.28125 1178.847656 C 51.140625 1180.203125 41.976562 1181.332031 32.78125 1182.238281 C 23.589844 1183.144531 14.378906 1183.824219 5.152344 1184.277344 C -4.074219 1184.730469 -13.308594 1184.957031 -22.546875 1184.957031 C -31.785156 1184.957031 -41.015625 1184.730469 -50.242188 1184.277344 C -59.46875 1183.824219 -68.679688 1183.144531 -77.875 1182.238281 C -87.066406 1181.332031 -96.234375 1180.203125 -105.371094 1178.847656 C -114.507812 1177.492188 -123.609375 1175.914062 -132.667969 1174.109375 C -141.730469 1172.308594 -150.742188 1170.285156 -159.703125 1168.039062 C -168.664062 1165.796875 -177.5625 1163.332031 -186.402344 1160.652344 C -195.246094 1157.96875 -204.011719 1155.074219 -212.710938 1151.960938 C -221.410156 1148.847656 -230.027344 1145.523438 -238.5625 1141.988281 C -247.097656 1138.453125 -255.539062 1134.710938 -263.890625 1130.761719 C -272.242188 1126.8125 -280.488281 1122.660156 -288.636719 1118.304688 C -296.785156 1113.949219 -304.820312 1109.398438 -312.742188 1104.648438 C -320.667969 1099.898438 -328.46875 1094.957031 -336.152344 1089.828125 C -343.832031 1084.695312 -351.382812 1079.375 -358.804688 1073.871094 C -366.222656 1068.371094 -373.503906 1062.6875 -380.644531 1056.828125 C -387.785156 1050.96875 -394.777344 1044.933594 -401.625 1038.730469 C -408.46875 1032.527344 -415.15625 1026.160156 -421.691406 1019.625 C -428.222656 1013.09375 -434.589844 1006.40625 -440.792969 999.5625 C -447 992.714844 -453.03125 985.722656 -458.890625 978.582031 C -464.75 971.441406 -470.433594 964.160156 -475.9375 956.738281 C -481.441406 949.320312 -486.757812 941.769531 -491.890625 934.085938 C -497.023438 926.40625 -501.964844 918.605469 -506.710938 910.679688 C -511.460938 902.757812 -516.015625 894.722656 -520.367188 886.574219 C -524.722656 878.425781 -528.875 870.175781 -532.824219 861.828125 C -536.773438 853.476562 -540.519531 845.03125 -544.054688 836.496094 C -547.589844 827.960938 -550.910156 819.347656 -554.023438 810.648438 C -557.136719 801.949219 -560.035156 793.179688 -562.714844 784.339844 C -565.398438 775.5 -567.859375 766.597656 -570.105469 757.636719 C -572.347656 748.675781 -574.371094 739.667969 -576.175781 730.605469 C -577.976562 721.546875 -579.554688 712.445312 -580.910156 703.308594 C -582.265625 694.167969 -583.398438 685.003906 -584.304688 675.808594 C -585.207031 666.617188 -585.886719 657.40625 -586.339844 648.179688 C -586.792969 638.953125 -587.019531 629.71875 -587.019531 620.480469 C -587.019531 611.242188 -586.792969 602.011719 -586.339844 592.785156 C -585.886719 583.558594 -585.207031 574.347656 -584.304688 565.152344 C -583.398438 555.960938 -582.265625 546.792969 -580.910156 537.65625 C -579.554688 528.519531 -577.976562 519.417969 -576.175781 510.359375 C -574.371094 501.296875 -572.347656 492.285156 -570.105469 483.324219 C -567.859375 474.363281 -565.398438 465.464844 -562.714844 456.625 C -560.035156 447.78125 -557.136719 439.015625 -554.023438 430.316406 C -550.910156 421.617188 -547.589844 413 -544.054688 404.464844 C -540.519531 395.929688 -536.773438 387.488281 -532.824219 379.136719 C -528.875 370.785156 -524.722656 362.535156 -520.367188 354.390625 C -516.015625 346.242188 -511.460938 338.207031 -506.710938 330.285156 C -501.964844 322.359375 -497.023438 314.558594 -491.890625 306.875 C -486.757812 299.195312 -481.441406 291.644531 -475.9375 284.222656 C -470.433594 276.804688 -464.75 269.523438 -458.890625 262.382812 C -453.03125 255.242188 -447 248.25 -440.792969 241.402344 C -434.589844 234.558594 -428.222656 227.871094 -421.691406 221.335938 C -415.15625 214.804688 -408.46875 208.4375 -401.625 202.234375 C -394.777344 196.027344 -387.785156 189.996094 -380.644531 184.136719 C -373.503906 178.277344 -366.222656 172.59375 -358.804688 167.089844 C -351.382812 161.585938 -343.832031 156.269531 -336.152344 151.136719 C -328.46875 146.003906 -320.667969 141.0625 -312.742188 136.316406 C -304.820312 131.566406 -296.785156 127.011719 -288.636719 122.660156 C -280.492188 118.304688 -272.242188 114.152344 -263.890625 110.203125 C -255.539062 106.253906 -247.097656 102.507812 -238.5625 98.972656 C -230.027344 95.4375 -221.410156 92.117188 -212.710938 89.003906 C -204.011719 85.890625 -195.246094 82.992188 -186.402344 80.3125 C -177.5625 77.628906 -168.664062 75.167969 -159.703125 72.921875 C -150.742188 70.679688 -141.730469 68.65625 -132.667969 66.851562 C -123.609375 65.050781 -114.507812 63.472656 -105.371094 62.117188 C -96.234375 60.761719 -87.066406 59.628906 -77.875 58.722656 C -68.679688 57.820312 -59.46875 57.140625 -50.242188 56.6875 C -41.015625 56.234375 -31.785156 56.007812 -22.546875 56.007812 Z M -22.546875 56.007812 " fill-opacity="1" fill-rule="nonzero"/></g><g clip-path="url(#7fe722bfc7)"><path fill="#21917b" d="M 35.902344 1184.964844 C 53.960938 1184.964844 72.007812 1185.40625 90.046875 1186.292969 C 108.085938 1187.179688 126.089844 1188.507812 144.0625 1190.277344 C 162.035156 1192.046875 179.957031 1194.257812 197.820312 1196.910156 C 215.683594 1199.558594 233.472656 1202.644531 251.1875 1206.167969 C 268.898438 1209.691406 286.515625 1213.648438 304.03125 1218.035156 C 321.550781 1222.425781 338.953125 1227.238281 356.234375 1232.480469 C 373.515625 1237.722656 390.660156 1243.386719 407.664062 1249.472656 C 424.667969 1255.554688 441.511719 1262.054688 458.199219 1268.964844 C 474.882812 1275.875 491.386719 1283.191406 507.714844 1290.914062 C 524.039062 1298.636719 540.167969 1306.753906 556.09375 1315.265625 C 572.019531 1323.78125 587.730469 1332.679688 603.222656 1341.964844 C 618.710938 1351.246094 633.964844 1360.90625 648.980469 1370.941406 C 663.996094 1380.972656 678.757812 1391.371094 693.265625 1402.128906 C 707.769531 1412.886719 722.003906 1423.992188 735.964844 1435.449219 C 749.925781 1446.90625 763.59375 1458.699219 776.976562 1470.828125 C 790.359375 1482.957031 803.433594 1495.40625 816.203125 1508.175781 C 828.972656 1520.945312 841.421875 1534.023438 853.550781 1547.402344 C 865.679688 1560.785156 877.472656 1574.457031 888.929688 1588.417969 C 900.386719 1602.378906 911.492188 1616.609375 922.253906 1631.117188 C 933.011719 1645.621094 943.40625 1660.382812 953.441406 1675.398438 C 963.472656 1690.414062 973.132812 1705.667969 982.417969 1721.160156 C 991.703125 1736.648438 1000.601562 1752.359375 1009.113281 1768.285156 C 1017.628906 1784.214844 1025.746094 1800.339844 1033.464844 1816.667969 C 1041.1875 1832.992188 1048.503906 1849.496094 1055.414062 1866.183594 C 1062.328125 1882.867188 1068.824219 1899.714844 1074.910156 1916.71875 C 1080.992188 1933.722656 1086.65625 1950.863281 1091.898438 1968.144531 C 1097.140625 1985.429688 1101.957031 2002.828125 1106.34375 2020.347656 C 1110.734375 2037.867188 1114.6875 2055.480469 1118.210938 2073.195312 C 1121.734375 2090.90625 1124.820312 2108.695312 1127.472656 2126.558594 C 1130.121094 2144.425781 1132.332031 2162.34375 1134.101562 2180.316406 C 1135.871094 2198.289062 1137.199219 2216.292969 1138.085938 2234.332031 C 1138.972656 2252.371094 1139.417969 2270.417969 1139.417969 2288.480469 C 1139.417969 2306.539062 1138.972656 2324.589844 1138.085938 2342.625 C 1137.199219 2360.664062 1135.871094 2378.671875 1134.101562 2396.644531 C 1132.332031 2414.617188 1130.121094 2432.535156 1127.472656 2450.398438 C 1124.820312 2468.261719 1121.734375 2486.050781 1118.210938 2503.765625 C 1114.6875 2521.476562 1110.734375 2539.09375 1106.34375 2556.613281 C 1101.957031 2574.132812 1097.140625 2591.53125 1091.898438 2608.8125 C 1086.65625 2626.097656 1080.992188 2643.238281 1074.910156 2660.242188 C 1068.824219 2677.246094 1062.328125 2694.09375 1055.414062 2710.777344 C 1048.503906 2727.460938 1041.1875 2743.96875 1033.464844 2760.292969 C 1025.746094 2776.621094 1017.628906 2792.746094 1009.113281 2808.671875 C 1000.601562 2824.601562 991.703125 2840.308594 982.417969 2855.800781 C 973.132812 2871.289062 963.472656 2886.542969 953.441406 2901.558594 C 943.40625 2916.578125 933.011719 2931.335938 922.253906 2945.84375 C 911.492188 2960.347656 900.386719 2974.582031 888.929688 2988.542969 C 877.472656 3002.503906 865.679688 3016.175781 853.550781 3029.554688 C 841.421875 3042.9375 828.972656 3056.011719 816.203125 3068.78125 C 803.433594 3081.554688 790.359375 3094.003906 776.976562 3106.128906 C 763.59375 3118.257812 749.921875 3130.050781 735.964844 3141.507812 C 722.003906 3152.964844 707.769531 3164.074219 693.265625 3174.832031 C 678.757812 3185.589844 663.996094 3195.984375 648.980469 3206.019531 C 633.964844 3216.054688 618.710938 3225.710938 603.21875 3234.996094 C 587.730469 3244.28125 572.019531 3253.179688 556.09375 3261.695312 C 540.167969 3270.207031 524.039062 3278.324219 507.714844 3286.046875 C 491.386719 3293.765625 474.882812 3301.082031 458.199219 3307.996094 C 441.511719 3314.90625 424.667969 3321.402344 407.664062 3327.488281 C 390.660156 3333.574219 373.515625 3339.234375 356.234375 3344.476562 C 338.953125 3349.71875 321.550781 3354.535156 304.03125 3358.925781 C 286.515625 3363.3125 268.898438 3367.269531 251.1875 3370.792969 C 233.472656 3374.316406 215.683594 3377.402344 197.820312 3380.050781 C 179.957031 3382.699219 162.035156 3384.910156 144.0625 3386.679688 C 126.089844 3388.453125 108.085938 3389.78125 90.046875 3390.664062 C 72.007812 3391.550781 53.960938 3391.996094 35.902344 3391.996094 C 17.839844 3391.996094 -0.207031 3391.550781 -18.246094 3390.664062 C -36.285156 3389.78125 -54.289062 3388.453125 -72.261719 3386.679688 C -90.234375 3384.910156 -108.15625 3382.699219 -126.019531 3380.050781 C -143.882812 3377.402344 -161.671875 3374.316406 -179.382812 3370.792969 C -197.097656 3367.269531 -214.714844 3363.3125 -232.230469 3358.925781 C -249.75 3354.535156 -267.152344 3349.71875 -284.433594 3344.476562 C -301.714844 3339.234375 -318.859375 3333.574219 -335.863281 3327.488281 C -352.867188 3321.402344 -369.710938 3314.90625 -386.394531 3307.996094 C -403.082031 3301.082031 -419.585938 3293.765625 -435.914062 3286.046875 C -452.238281 3278.324219 -468.367188 3270.207031 -484.292969 3261.695312 C -500.21875 3253.179688 -515.929688 3244.28125 -531.417969 3234.996094 C -546.910156 3225.710938 -562.164062 3216.054688 -577.179688 3206.019531 C -592.195312 3195.984375 -606.957031 3185.589844 -621.460938 3174.832031 C -635.96875 3164.074219 -650.203125 3152.964844 -664.160156 3141.507812 C -678.121094 3130.050781 -691.792969 3118.257812 -705.175781 3106.128906 C -718.554688 3094.003906 -731.632812 3081.554688 -744.402344 3068.78125 C -757.171875 3056.011719 -769.621094 3042.9375 -781.75 3029.554688 C -793.878906 3016.175781 -805.671875 3002.503906 -817.128906 2988.542969 C -828.585938 2974.582031 -839.691406 2960.347656 -850.453125 2945.84375 C -861.210938 2931.335938 -871.605469 2916.578125 -881.640625 2901.558594 C -891.671875 2886.542969 -901.332031 2871.289062 -910.617188 2855.800781 C -919.902344 2840.308594 -928.800781 2824.601562 -937.3125 2808.671875 C -945.828125 2792.746094 -953.945312 2776.621094 -961.664062 2760.292969 C -969.386719 2743.96875 -976.703125 2727.460938 -983.613281 2710.777344 C -990.527344 2694.089844 -997.023438 2677.246094 -1003.109375 2660.242188 C -1009.191406 2643.238281 -1014.855469 2626.097656 -1020.097656 2608.8125 C -1025.339844 2591.53125 -1030.15625 2574.132812 -1034.542969 2556.613281 C -1038.933594 2539.09375 -1042.886719 2521.476562 -1046.410156 2503.765625 C -1049.933594 2486.050781 -1053.019531 2468.261719 -1055.671875 2450.398438 C -1058.320312 2432.535156 -1060.53125 2414.617188 -1062.300781 2396.644531 C -1064.070312 2378.671875 -1065.398438 2360.664062 -1066.285156 2342.625 C -1067.171875 2324.589844 -1067.613281 2306.539062 -1067.613281 2288.480469 C -1067.613281 2270.417969 -1067.171875 2252.371094 -1066.285156 2234.332031 C -1065.398438 2216.292969 -1064.070312 2198.289062 -1062.300781 2180.316406 C -1060.53125 2162.34375 -1058.320312 2144.425781 -1055.671875 2126.558594 C -1053.019531 2108.695312 -1049.933594 2090.90625 -1046.410156 2073.195312 C -1042.886719 2055.480469 -1038.933594 2037.867188 -1034.542969 2020.347656 C -1030.15625 2002.828125 -1025.339844 1985.429688 -1020.097656 1968.144531 C -1014.855469 1950.863281 -1009.191406 1933.722656 -1003.109375 1916.71875 C -997.023438 1899.710938 -990.527344 1882.867188 -983.613281 1866.183594 C -976.703125 1849.496094 -969.386719 1832.992188 -961.664062 1816.664062 C -953.945312 1800.339844 -945.828125 1784.214844 -937.3125 1768.285156 C -928.800781 1752.359375 -919.902344 1736.648438 -910.617188 1721.160156 C -901.332031 1705.667969 -891.671875 1690.414062 -881.640625 1675.398438 C -871.605469 1660.382812 -861.210938 1645.621094 -850.453125 1631.117188 C -839.691406 1616.609375 -828.585938 1602.378906 -817.128906 1588.417969 C -805.671875 1574.457031 -793.878906 1560.785156 -781.75 1547.402344 C -769.621094 1534.023438 -757.171875 1520.945312 -744.402344 1508.175781 C -731.632812 1495.40625 -718.554688 1482.957031 -705.175781 1470.828125 C -691.792969 1458.699219 -678.121094 1446.90625 -664.160156 1435.449219 C -650.203125 1423.992188 -635.96875 1412.886719 -621.460938 1402.128906 C -606.957031 1391.371094 -592.195312 1380.972656 -577.179688 1370.941406 C -562.164062 1360.90625 -546.910156 1351.246094 -531.417969 1341.964844 C -515.929688 1332.679688 -500.21875 1323.78125 -484.292969 1315.265625 C -468.367188 1306.753906 -452.238281 1298.636719 -435.914062 1290.914062 C -419.585938 1283.191406 -403.082031 1275.875 -386.398438 1268.964844 C -369.710938 1262.054688 -352.867188 1255.554688 -335.863281 1249.472656 C -318.859375 1243.386719 -301.714844 1237.722656 -284.433594 1232.480469 C -267.152344 1227.238281 -249.75 1222.421875 -232.230469 1218.035156 C -214.714844 1213.648438 -197.097656 1209.691406 -179.382812 1206.167969 C -161.671875 1202.644531 -143.882812 1199.558594 -126.019531 1196.910156 C -108.15625 1194.257812 -90.234375 1192.046875 -72.261719 1190.277344 C -54.289062 1188.507812 -36.285156 1187.179688 -18.246094 1186.292969 C -0.207031 1185.40625 17.839844 1184.964844 35.902344 1184.964844 Z M 35.902344 1184.964844 " fill-opacity="1" fill-rule="nonzero"/></g></svg>