<svg xmlns="http://www.w3.org/2000/svg" xmlns:xlink="http://www.w3.org/1999/xlink" width="3000" zoomAndPan="magnify" viewBox="0 0 2250 2250.000011" height="3000" preserveAspectRatio="xMidYMid meet" version="1.0"><path fill="#008060" d="M 1200.496094 70.414062 L 1317.6875 158.132812 C 1349.738281 182.121094 1383.476562 194.402344 1423.449219 196.625 L 1569.605469 204.753906 C 1657.125 209.625 1728.199219 269.265625 1748.191406 354.609375 L 1781.582031 497.136719 C 1790.710938 536.113281 1808.660156 567.207031 1837.851562 594.601562 L 1944.589844 694.78125 C 2008.503906 754.765625 2024.613281 846.140625 1985.070312 924.371094 L 1919.03125 1055.015625 C 1900.972656 1090.742188 1894.738281 1126.101562 1899.492188 1165.847656 L 1916.867188 1311.199219 C 1927.269531 1398.234375 1880.875 1478.585938 1800.300781 1513.097656 L 1665.734375 1570.722656 C 1628.929688 1586.488281 1601.429688 1609.5625 1579.519531 1643.070312 L 1499.398438 1765.582031 C 1451.425781 1838.933594 1364.234375 1870.671875 1280.328125 1845.3125 L 1140.203125 1802.964844 C 1101.878906 1791.382812 1065.980469 1791.382812 1027.65625 1802.964844 L 887.53125 1845.3125 C 803.625 1870.671875 716.4375 1838.933594 668.460938 1765.582031 L 588.339844 1643.070312 C 566.425781 1609.5625 538.925781 1586.488281 502.121094 1570.730469 L 367.5625 1513.09375 C 286.992188 1478.585938 240.597656 1398.226562 251 1311.195312 L 268.375 1165.84375 C 273.121094 1126.089844 266.890625 1090.738281 248.828125 1055.011719 L 182.789062 924.367188 C 143.246094 846.140625 159.363281 754.765625 223.269531 694.777344 L 330.007812 594.597656 C 359.199219 567.199219 377.148438 536.109375 386.277344 497.128906 L 419.667969 354.605469 C 439.660156 269.261719 510.738281 209.621094 598.253906 204.75 L 744.410156 196.621094 C 784.386719 194.398438 818.125 182.117188 850.171875 158.128906 L 967.363281 70.410156 C 1037.539062 17.886719 1130.328125 17.886719 1200.496094 70.414062 Z M 1009.179688 992.683594 L 882 865.503906 C 849.039062 832.546875 795.574219 832.546875 762.609375 865.503906 C 729.648438 898.46875 729.648438 951.933594 762.609375 984.894531 L 949.667969 1171.945312 C 982.625 1204.90625 1036.09375 1204.90625 1069.054688 1171.945312 C 1181.804688 1059.195312 1293.273438 945.179688 1405.496094 831.910156 C 1438.21875 798.886719 1438.117188 745.589844 1405.128906 712.789062 C 1372.140625 679.976562 1318.691406 680.070312 1285.933594 713.15625 Z M 1083.933594 308.8125 C 908.957031 308.8125 750.539062 379.738281 635.863281 494.410156 C 521.191406 609.082031 450.269531 767.5 450.269531 942.472656 C 450.269531 1117.449219 521.199219 1275.871094 635.863281 1390.535156 C 750.535156 1505.207031 908.953125 1576.132812 1083.933594 1576.132812 C 1258.90625 1576.132812 1417.328125 1505.203125 1531.996094 1390.535156 C 1646.667969 1275.871094 1717.59375 1117.449219 1717.59375 942.472656 C 1717.59375 767.496094 1646.667969 609.082031 1531.996094 494.410156 C 1417.328125 379.742188 1258.910156 308.8125 1083.933594 308.8125 Z M 1481.46875 544.941406 C 1379.734375 443.203125 1239.183594 380.28125 1083.933594 380.28125 C 928.683594 380.28125 788.132812 443.203125 686.394531 544.941406 C 584.660156 646.675781 521.734375 787.226562 521.734375 942.476562 C 521.734375 1097.726562 584.660156 1238.277344 686.394531 1340.015625 C 788.132812 1441.75 928.683594 1504.675781 1083.933594 1504.675781 C 1239.183594 1504.675781 1379.734375 1441.75 1481.46875 1340.015625 C 1583.207031 1238.277344 1646.132812 1097.726562 1646.132812 942.476562 C 1646.132812 787.226562 1583.207031 646.675781 1481.46875 544.941406 Z M 1322.039062 1924.863281 L 1460.921875 2223.179688 C 1463.085938 2227.820312 1467.351562 2230.679688 1472.464844 2230.910156 C 1477.578125 2231.144531 1482.085938 2228.6875 1484.660156 2224.257812 L 1588.242188 2045.992188 L 1791.34375 2081.480469 C 1796.386719 2082.359375 1801.171875 2080.5 1804.285156 2076.433594 C 1807.398438 2072.371094 1807.960938 2067.269531 1805.800781 2062.628906 L 1633.105469 1691.699219 L 1559.210938 1804.691406 C 1505.875 1886.246094 1415.554688 1930.394531 1322.039062 1924.863281 Z M 851.191406 1924.492188 C 755.773438 1932.058594 663.011719 1887.800781 608.660156 1804.691406 L 537.792969 1696.332031 L 367.257812 2062.628906 C 365.09375 2067.269531 365.652344 2072.375 368.769531 2076.433594 C 371.882812 2080.5 376.667969 2082.359375 381.710938 2081.480469 L 584.8125 2045.992188 L 688.402344 2224.257812 C 690.972656 2228.683594 695.480469 2231.140625 700.59375 2230.90625 C 705.707031 2230.675781 709.972656 2227.820312 712.136719 2223.175781 Z M 851.191406 1924.492188 " fill-opacity="1" fill-rule="evenodd"/></svg>