<svg xmlns="http://www.w3.org/2000/svg" xmlns:xlink="http://www.w3.org/1999/xlink" width="3000" zoomAndPan="magnify" viewBox="0 0 2250 2250.000011" height="3000" preserveAspectRatio="xMidYMid meet" version="1.0"><defs><clipPath id="af0101fba9"><path d="M 16.421875 15.921875 L 2233.9375 15.921875 L 2233.9375 2233.4375 L 16.421875 2233.4375 Z M 16.421875 15.921875 " clip-rule="nonzero"/></clipPath></defs><g clip-path="url(#af0101fba9)"><path fill="#206767" d="M 1861.480469 2233.074219 L 388.515625 2233.074219 C 182.972656 2233.074219 16.421875 2066.523438 16.421875 1860.980469 L 16.421875 388.015625 C 16.421875 182.472656 182.972656 15.921875 388.515625 15.921875 L 1861.480469 15.921875 C 2067.023438 15.921875 2233.574219 182.472656 2233.574219 388.015625 L 2233.574219 1860.980469 C 2233.574219 2066.523438 2067.023438 2233.074219 1861.480469 2233.074219 Z M 1861.480469 2233.074219 " fill-opacity="1" fill-rule="nonzero"/></g><path fill="#ffffff" d="M 1906.246094 578.632812 C 1848.964844 521.351562 1755.582031 521.351562 1698.300781 578.632812 L 918.011719 1358.921875 L 555.546875 996.9375 C 498.265625 939.65625 404.878906 939.65625 347.597656 996.9375 C 290.316406 1054.21875 290.316406 1147.601562 347.597656 1204.886719 L 808.261719 1665.546875 C 809.707031 1667.472656 811.632812 1668.917969 813.554688 1670.84375 C 842.4375 1699.726562 879.984375 1714.164062 917.53125 1713.683594 C 955.078125 1713.683594 993.105469 1699.242188 1021.503906 1670.84375 C 1023.429688 1668.917969 1024.875 1667.472656 1026.800781 1665.546875 L 1906.246094 786.101562 C 1964.011719 728.820312 1964.011719 635.914062 1906.246094 578.632812 Z M 1906.246094 578.632812 " fill-opacity="1" fill-rule="nonzero"/></svg>