<svg xmlns="http://www.w3.org/2000/svg" xmlns:xlink="http://www.w3.org/1999/xlink" width="3000" zoomAndPan="magnify" viewBox="0 0 2250 2250.000011" height="3000" preserveAspectRatio="xMidYMid meet" version="1.0"><defs><clipPath id="fa49be4a4e"><path d="M 27.394531 368 L 1683 368 L 1683 2024.195312 L 27.394531 2024.195312 Z M 27.394531 368 " clip-rule="nonzero"/></clipPath><clipPath id="3dcd02d3bb"><path d="M 260 123.039062 L 2222.503906 123.039062 L 2222.503906 1783 L 260 1783 Z M 260 123.039062 " clip-rule="nonzero"/></clipPath></defs><g clip-path="url(#fa49be4a4e)"><path fill="#006a5a" d="M 1532.371094 996.34375 L 1532.371094 1826.101562 C 1532.371094 1852.367188 1511.019531 1873.71875 1484.769531 1873.71875 L 225.5 1873.71875 C 199.25 1873.71875 177.886719 1852.367188 177.886719 1826.101562 L 177.886719 566.832031 C 177.886719 540.59375 199.25 519.230469 225.5 519.230469 L 1410.460938 519.230469 C 1455.894531 472.433594 1500.117188 429.546875 1554.09375 381.40625 C 1532.496094 373.285156 1509.171875 368.738281 1484.769531 368.738281 L 225.5 368.738281 C 116.269531 368.738281 27.394531 457.613281 27.394531 566.832031 L 27.394531 1826.101562 C 27.394531 1935.335938 116.269531 2024.210938 225.5 2024.210938 L 1484.769531 2024.210938 C 1594.003906 2024.210938 1682.875 1935.335938 1682.875 1826.101562 L 1682.875 826.167969 C 1630.910156 880.386719 1583.933594 933.246094 1532.371094 996.34375 " fill-opacity="1" fill-rule="nonzero"/></g><g clip-path="url(#3dcd02d3bb)"><path fill="#006a5a" d="M 2048.199219 135.128906 C 1294.746094 525.234375 894.28125 1389.695312 847.226562 1462.582031 C 846.886719 1462.238281 599.445312 1192.910156 423.242188 1091.75 C 274.757812 1006.5 199.960938 1221 322.15625 1291.140625 C 509.296875 1398.585938 740.664062 1666.410156 807.121094 1745.925781 C 849.664062 1796.847656 949.492188 1797.851562 978.253906 1732.375 C 1056.273438 1554.75 1185.367188 1340.59375 1280.167969 1199.414062 C 1506.144531 862.90625 1809.601562 534.554688 2170.882812 347.496094 C 2294.398438 283.550781 2173.292969 70.390625 2048.199219 135.128906 " fill-opacity="1" fill-rule="nonzero"/></g></svg>