<svg xmlns="http://www.w3.org/2000/svg" xmlns:xlink="http://www.w3.org/1999/xlink" width="3000" zoomAndPan="magnify" viewBox="0 0 2250 2250.000011" height="3000" preserveAspectRatio="xMidYMid meet" version="1.0"><path fill="#7691ad" d="M 1238.058594 102.113281 L 1351.722656 187.195312 C 1382.8125 210.464844 1415.535156 222.375 1454.304688 224.53125 L 1596.066406 232.417969 C 1680.953125 237.136719 1749.890625 294.988281 1769.28125 377.765625 L 1801.667969 516.003906 C 1810.523438 553.8125 1827.933594 583.96875 1856.246094 610.539062 L 1959.773438 707.707031 C 2021.765625 765.886719 2037.390625 854.515625 1999.035156 930.390625 L 1934.984375 1057.105469 C 1917.46875 1091.761719 1911.421875 1126.054688 1916.03125 1164.605469 L 1932.882812 1305.589844 C 1942.972656 1390.003906 1897.972656 1467.941406 1819.824219 1501.410156 L 1689.304688 1557.308594 C 1653.605469 1572.597656 1626.933594 1594.976562 1605.683594 1627.476562 L 1527.96875 1746.304688 C 1481.441406 1817.453125 1396.871094 1848.234375 1315.488281 1823.640625 L 1179.578125 1782.566406 C 1142.40625 1771.332031 1107.585938 1771.332031 1070.414062 1782.566406 L 934.503906 1823.640625 C 853.121094 1848.234375 768.554688 1817.453125 722.023438 1746.304688 L 644.308594 1627.476562 C 623.054688 1594.976562 596.382812 1572.597656 560.683594 1557.3125 L 430.171875 1501.40625 C 352.023438 1467.941406 307.023438 1390 317.113281 1305.585938 L 333.964844 1164.601562 C 338.570312 1126.046875 332.527344 1091.753906 315.007812 1057.101562 L 250.953125 930.386719 C 212.601562 854.515625 228.230469 765.886719 290.21875 707.703125 L 393.746094 610.535156 C 422.058594 583.960938 439.46875 553.808594 448.324219 516 L 480.710938 377.761719 C 500.101562 294.984375 569.039062 237.132812 653.925781 232.410156 L 795.6875 224.527344 C 834.460938 222.371094 867.183594 210.460938 898.269531 187.191406 L 1011.933594 102.109375 C 1080 51.167969 1169.996094 51.167969 1238.058594 102.113281 Z M 1052.492188 996.648438 L 929.140625 873.296875 C 897.167969 841.328125 845.308594 841.328125 813.335938 873.296875 C 781.371094 905.269531 781.371094 957.125 813.335938 989.09375 L 994.769531 1170.519531 C 1026.738281 1202.488281 1078.597656 1202.488281 1110.566406 1170.519531 C 1219.925781 1061.160156 1328.042969 950.574219 1436.890625 840.710938 C 1468.628906 808.679688 1468.53125 756.988281 1436.539062 725.171875 C 1404.539062 693.34375 1352.699219 693.4375 1320.925781 725.53125 Z M 1125 333.34375 C 955.285156 333.34375 801.632812 402.136719 690.40625 513.359375 C 579.183594 624.582031 510.390625 778.238281 510.390625 947.949219 C 510.390625 1117.664062 579.1875 1271.320312 690.40625 1382.539062 C 801.628906 1493.761719 955.28125 1562.554688 1125 1562.554688 C 1294.710938 1562.554688 1448.367188 1493.757812 1559.585938 1382.539062 C 1670.808594 1271.320312 1739.601562 1117.664062 1739.601562 947.949219 C 1739.601562 778.230469 1670.808594 624.582031 1559.585938 513.359375 C 1448.367188 402.140625 1294.714844 333.34375 1125 333.34375 Z M 1510.582031 562.371094 C 1411.902344 463.695312 1275.578125 402.664062 1125 402.664062 C 974.417969 402.664062 838.09375 463.695312 739.414062 562.371094 C 640.738281 661.046875 579.707031 797.371094 579.707031 947.953125 C 579.707031 1098.535156 640.738281 1234.859375 739.414062 1333.535156 C 838.09375 1432.210938 974.417969 1493.246094 1125 1493.246094 C 1275.578125 1493.246094 1411.902344 1432.210938 1510.582031 1333.535156 C 1609.257812 1234.859375 1670.289062 1098.535156 1670.289062 947.953125 C 1670.289062 797.371094 1609.257812 661.046875 1510.582031 562.371094 Z M 1355.945312 1900.796875 L 1490.652344 2190.140625 C 1492.75 2194.644531 1496.886719 2197.414062 1501.847656 2197.640625 C 1506.808594 2197.867188 1511.179688 2195.484375 1513.671875 2191.1875 L 1614.144531 2018.285156 L 1811.136719 2052.703125 C 1816.027344 2053.558594 1820.667969 2051.75 1823.6875 2047.808594 C 1826.707031 2043.867188 1827.253906 2038.917969 1825.15625 2034.417969 L 1657.65625 1674.644531 L 1585.984375 1784.238281 C 1534.25 1863.339844 1446.648438 1906.160156 1355.945312 1900.796875 Z M 899.253906 1900.4375 C 806.710938 1907.777344 716.738281 1864.847656 664.015625 1784.238281 L 595.28125 1679.136719 L 429.875 2034.417969 C 427.777344 2038.917969 428.320312 2043.871094 431.34375 2047.808594 C 434.363281 2051.75 439.003906 2053.558594 443.894531 2052.703125 L 640.886719 2018.285156 L 741.359375 2191.1875 C 743.855469 2195.480469 748.226562 2197.863281 753.1875 2197.636719 C 758.148438 2197.410156 762.285156 2194.644531 764.382812 2190.136719 Z M 899.253906 1900.4375 " fill-opacity="1" fill-rule="evenodd"/></svg>