<svg xmlns="http://www.w3.org/2000/svg" xmlns:xlink="http://www.w3.org/1999/xlink" width="3000" zoomAndPan="magnify" viewBox="0 0 2250 2250.000011" height="3000" preserveAspectRatio="xMidYMid meet" version="1.0"><defs><clipPath id="ab7d5a6be5"><path d="M 33.769531 45.460938 L 2192.058594 45.460938 L 2192.058594 2203.75 L 33.769531 2203.75 Z M 33.769531 45.460938 " clip-rule="nonzero"/></clipPath></defs><path fill="#bb1a34" d="M 1176.785156 802.136719 C 1093.679688 706.863281 1015.304688 620.386719 936.882812 521.238281 C 932.546875 515.707031 927.800781 510.742188 922.773438 506.28125 L 922.796875 506.257812 C 922.796875 506.257812 902.832031 486.730469 870.890625 479.761719 C 849.75 473.863281 773.417969 465.742188 662.863281 603.730469 C 597.503906 685.328125 708.824219 790.988281 708.824219 790.988281 C 783.804688 889.746094 861.027344 986.757812 940.496094 1081.964844 C 844.070312 1199.183594 751.039062 1319.125 661.359375 1441.589844 C 623.78125 1493.058594 626.222656 1569.390625 664.105469 1620.03125 C 667.476562 1624.539062 671.15625 1628.851562 675.078125 1632.921875 C 715.660156 1678.96875 858.785156 1827.039062 937.339844 1720.898438 C 947.507812 1713.214844 956.585938 1703.570312 964.050781 1692.074219 C 1038.316406 1578.273438 1108.484375 1490.882812 1188.5625 1381.085938 C 1286.46875 1470.546875 1386.597656 1557.503906 1488.945312 1641.847656 C 1536.953125 1681.40625 1607.753906 1673.046875 1646.421875 1624.714844 C 1672.371094 1592.359375 1698.585938 1560.226562 1725.058594 1528.285156 C 1765.6875 1479.300781 1761.503906 1404.011719 1716.023438 1359.597656 C 1616.179688 1262.105469 1513.222656 1167.8125 1410.308594 1073.585938 C 1480.171875 962.765625 1575.402344 865.75 1667.734375 773.722656 C 1763.769531 677.992188 1864.835938 587.25 1969.402344 500.945312 C 2013.578125 464.457031 2024.769531 399.402344 1995.617188 350.175781 C 1987.015625 335.65625 1978.503906 321.003906 1970.164062 306.351562 C 1938.769531 251.160156 1866.140625 230.105469 1811.339844 263.65625 C 1575.53125 408.066406 1363.257812 598.570312 1176.785156 802.136719 " fill-opacity="1" fill-rule="nonzero"/><g clip-path="url(#ab7d5a6be5)"><path fill="#bb1a34" d="M 2107.261719 704.554688 C 2090.714844 665.410156 2071.6875 626.894531 2050.675781 590.101562 C 2044.625 579.476562 2033.28125 572.902344 2021.046875 572.902344 C 2013.144531 572.902344 2005.414062 575.6875 1999.316406 580.71875 C 1963.003906 610.828125 1927.210938 641.308594 1892.984375 671.308594 C 1881.011719 681.804688 1877.875 698.9375 1885.386719 712.980469 C 1952.75 838.863281 1988.367188 981.230469 1988.367188 1124.640625 C 1988.367188 1305.257812 1933.566406 1478.777344 1829.890625 1626.453125 C 1823.773438 1635.164062 1817.460938 1643.828125 1811.078125 1652.234375 L 1809.75 1653.867188 C 1786.261719 1680.773438 1762.421875 1708.425781 1738.886719 1736.054688 C 1714.5 1761.003906 1688.375 1784.757812 1661.246094 1806.617188 C 1506.40625 1931.367188 1311.679688 2000.078125 1112.949219 2000.078125 C 983.082031 2000.078125 858.003906 1972.167969 741.175781 1917.128906 C 712.851562 1903.804688 684.9375 1888.761719 658.203125 1872.429688 C 394.789062 1711.648438 237.507812 1432.097656 237.507812 1124.640625 C 237.507812 817.613281 402.082031 529.03125 667 371.554688 C 698.523438 352.8125 731.574219 335.894531 765.191406 321.285156 C 875.222656 273.476562 992.226562 249.222656 1112.949219 249.222656 C 1253.855469 249.222656 1388.492188 281.835938 1513.113281 346.171875 C 1517.925781 348.652344 1523.34375 349.957031 1528.765625 349.957031 C 1536.257812 349.957031 1543.660156 347.433594 1549.601562 342.839844 C 1588.945312 312.425781 1628.980469 282.902344 1668.5625 255.121094 C 1678.054688 248.460938 1683.453125 237.574219 1683.039062 225.992188 C 1682.605469 214.410156 1676.421875 203.9375 1666.472656 197.992188 C 1623.886719 172.519531 1578.972656 149.746094 1533.035156 130.324219 C 1399.921875 74.023438 1258.578125 45.480469 1112.949219 45.480469 C 967.296875 45.480469 825.976562 74.023438 692.84375 130.324219 C 564.324219 184.691406 448.933594 262.480469 349.851562 361.5625 C 250.769531 460.625 172.976562 576.035156 118.613281 704.554688 C 62.3125 837.667969 33.769531 979.007812 33.769531 1124.640625 C 33.769531 1270.292969 62.3125 1411.632812 118.613281 1544.746094 C 172.976562 1673.265625 250.769531 1788.675781 349.851562 1887.738281 C 448.933594 1986.820312 564.324219 2064.609375 692.84375 2118.972656 C 825.953125 2175.277344 967.296875 2203.816406 1112.949219 2203.816406 C 1258.578125 2203.816406 1399.921875 2175.277344 1533.035156 2118.972656 C 1661.550781 2064.609375 1776.964844 1986.820312 1876.023438 1887.738281 C 1975.109375 1788.675781 2052.898438 1673.265625 2107.261719 1544.746094 C 2163.5625 1411.613281 2192.105469 1270.292969 2192.105469 1124.640625 C 2192.105469 979.007812 2163.5625 837.667969 2107.261719 704.554688 " fill-opacity="1" fill-rule="nonzero"/></g></svg>