<svg xmlns="http://www.w3.org/2000/svg" xmlns:xlink="http://www.w3.org/1999/xlink" width="3000" zoomAndPan="magnify" viewBox="0 0 2250 2250.000011" height="3000" preserveAspectRatio="xMidYMid meet" version="1.0"><path fill="#bb1a34" d="M 1881.070312 40.199219 C 1834.476562 52.277344 1749.09375 97.136719 1670.601562 150.617188 C 1561.050781 223.929688 1310.019531 456.839844 1122.832031 657.828125 L 1055.550781 730.28125 L 1024.496094 695.78125 C 892.519531 550.863281 820.054688 474.097656 724.308594 380.074219 C 526.769531 185.984375 487.953125 162.695312 368.050781 162.695312 C 269.714844 162.695312 229.171875 186.84375 242.113281 238.601562 C 255.046875 290.367188 544.886719 689.75 720.855469 898.5 C 807.121094 1001.148438 816.609375 1015.8125 806.253906 1029.613281 C 800.21875 1038.242188 741.5625 1113.289062 676 1196.097656 C 474.148438 1454.882812 305.082031 1708.484375 203.292969 1907.757812 C 153.261719 2005.226562 143.773438 2041.457031 161.027344 2074.246094 C 198.117188 2142.375 424.121094 2155.324219 498.304688 2093.210938 C 512.96875 2080.277344 563.859375 2012.128906 612.167969 1940.535156 C 776.929688 1693.824219 1054.6875 1307.375 1062.453125 1316 C 1063.316406 1317.730469 1092.640625 1359.136719 1128.007812 1409.160156 C 1242.738281 1574.785156 1470.460938 1871.515625 1535.160156 1940.535156 C 1569.667969 1978.488281 1616.246094 2032.824219 1638.679688 2062.160156 C 1693.890625 2134.613281 1734.421875 2165.664062 1799.109375 2185.515625 C 1937.128906 2228.648438 2082.050781 2188.101562 2098.453125 2101.84375 C 2106.21875 2062.160156 2064.804688 1982.792969 1991.488281 1893.949219 C 1961.285156 1857.726562 1919.886719 1804.238281 1900.910156 1775.773438 C 1840.539062 1686.917969 1747.367188 1562.707031 1687.84375 1491.109375 C 1655.9375 1453.15625 1603.300781 1385.011719 1570.527344 1340.15625 C 1536.878906 1295.300781 1462.707031 1202.136719 1404.90625 1133.992188 L 1299.671875 1010.636719 L 1318.648438 983.035156 C 1383.339844 892.460938 1611.929688 633.679688 1800.84375 438.730469 C 2001.832031 229.976562 2034.617188 191.164062 2072.566406 121.292969 C 2082.050781 104.035156 2082.925781 93.6875 2076.015625 80.746094 C 2054.457031 40.199219 1959.566406 20.355469 1881.070312 40.199219 " fill-opacity="1" fill-rule="evenodd"/></svg>