<svg xmlns="http://www.w3.org/2000/svg" xmlns:xlink="http://www.w3.org/1999/xlink" width="3000" zoomAndPan="magnify" viewBox="0 0 2250 2250.000011" height="3000" preserveAspectRatio="xMidYMid meet" version="1.0"><defs><clipPath id="f5165c232c"><path d="M 1028 1070 L 2175 1070 L 2175 2216.765625 L 1028 2216.765625 Z M 1028 1070 " clip-rule="nonzero"/></clipPath></defs><path fill="#008060" d="M 636.085938 1656.078125 C 622.359375 1612.878906 569.875 1587.445312 532.734375 1566.453125 C 473.386719 1532.136719 395.871094 1552.320312 361.148438 1612.476562 L 152.425781 1974.214844 C 117.703125 2033.964844 138.699219 2111.480469 198.449219 2145.796875 L 248.511719 2174.863281 C 308.261719 2209.585938 385.777344 2188.589844 420.09375 2128.839844 L 629.222656 1767.101562 C 649.003906 1731.980469 650.214844 1690.800781 636.085938 1656.078125 Z M 636.085938 1656.078125 " fill-opacity="1" fill-rule="evenodd"/><path fill="#008060" d="M 857.730469 593.070312 C 932.824219 427.949219 668.382812 359.71875 654.65625 540.585938 C 652.640625 651.207031 807.265625 689.15625 857.730469 593.070312 Z M 857.730469 593.070312 " fill-opacity="1" fill-rule="evenodd"/><path fill="#008060" d="M 1110.867188 624.160156 C 967.542969 628.195312 968.351562 837.324219 1110.867188 840.554688 C 1253.785156 837.324219 1253.785156 627.792969 1110.867188 624.160156 Z M 1110.867188 624.160156 " fill-opacity="1" fill-rule="evenodd"/><path fill="#008060" d="M 1343.816406 390.402344 C 1346.238281 532.511719 1557.789062 532.917969 1560.210938 390.402344 C 1556.578125 247.484375 1347.449219 247.886719 1343.816406 390.402344 Z M 1343.816406 390.402344 " fill-opacity="1" fill-rule="evenodd"/><path fill="#25c19b" d="M 636.085938 1677.878906 C 619.535156 1678.285156 608.230469 1658.90625 617.109375 1644.773438 L 743.476562 1425.957031 C 757.203125 1400.925781 796.363281 1423.53125 781.425781 1448.160156 C 781.425781 1448.160156 655.0625 1666.980469 655.0625 1666.980469 C 651.023438 1674.246094 643.351562 1677.878906 636.085938 1677.878906 Z M 453.199219 1572.507812 C 436.644531 1572.910156 425.34375 1553.53125 434.222656 1539.402344 L 560.589844 1320.582031 C 574.316406 1295.550781 613.476562 1318.160156 598.539062 1342.789062 C 598.539062 1342.789062 472.175781 1561.605469 472.175781 1561.605469 C 468.539062 1568.875 460.871094 1572.507812 453.199219 1572.507812 Z M 453.199219 1572.507812 " fill-opacity="1" fill-rule="nonzero"/><path fill="#25c19b" d="M 985.710938 1499.433594 C 215.808594 1482.878906 75.3125 418.257812 814.53125 202.667969 C 984.90625 157.050781 1162.542969 180.464844 1315.152344 268.476562 C 1336.953125 286.242188 1401.546875 305.214844 1382.167969 339.9375 C 1374.902344 349.625 1361.175781 351.644531 1351.488281 344.78125 C 886.394531 0 240.03125 440.464844 390.621094 999.21875 C 471.769531 1331.484375 849.253906 1536.574219 1172.636719 1426.359375 C 1184.34375 1422.726562 1196.457031 1429.183594 1200.492188 1440.488281 C 1204.125 1452.199219 1197.667969 1464.308594 1186.363281 1468.347656 C 1120.554688 1489.339844 1053.132812 1499.433594 985.710938 1499.433594 Z M 1571.113281 1114.28125 C 1555.769531 1114.683594 1544.464844 1097.726562 1550.925781 1083.597656 C 1634.902344 889 1613.90625 668.164062 1494.40625 492.542969 C 1477.851562 469.53125 1514.996094 443.695312 1530.738281 467.917969 C 1658.722656 656.050781 1681.734375 892.636719 1591.296875 1100.957031 C 1587.664062 1109.433594 1579.589844 1114.28125 1571.113281 1114.28125 Z M 1571.113281 1114.28125 " fill-opacity="1" fill-rule="nonzero"/><path fill="#25c19b" d="M 310.683594 2213.621094 C 267.890625 2216.449219 222.671875 2185.363281 187.144531 2164.773438 C 117.703125 2126.820312 92.269531 2030.734375 133.046875 1962.910156 C 133.046875 1962.910156 341.769531 1601.171875 341.769531 1601.171875 C 382.546875 1530.519531 472.980469 1506.296875 543.632812 1547.074219 L 593.695312 1576.140625 C 664.347656 1616.917969 688.570312 1707.351562 647.792969 1778.003906 L 439.070312 2139.742188 C 413.230469 2185.363281 362.765625 2214.027344 310.683594 2213.621094 Z M 470.15625 1571.699219 C 434.222656 1571.699219 399.503906 1590.273438 380.125 1623.375 L 170.996094 1985.113281 C 157.269531 2008.933594 153.636719 2036.789062 160.902344 2063.839844 C 168.167969 2090.488281 185.125 2113.09375 208.945312 2126.820312 C 246.089844 2148.21875 292.113281 2181.726562 337.734375 2165.984375 C 364.378906 2158.714844 386.988281 2141.757812 400.714844 2117.941406 L 609.84375 1756.203125 C 638.507812 1706.542969 621.550781 1643.160156 571.894531 1614.496094 C 543.632812 1599.558594 503.261719 1568.46875 470.15625 1571.699219 Z M 470.15625 1571.699219 " fill-opacity="1" fill-rule="nonzero"/><path fill="#25c19b" d="M 955.027344 1499.03125 C 825.835938 1493.378906 697.855469 1448.160156 594.097656 1371.453125 C 588.445312 1367.414062 585.21875 1360.550781 585.21875 1353.6875 L 585.21875 859.125 C 585.21875 828.039062 610.652344 802.605469 641.738281 802.605469 L 920.710938 802.605469 C 951.800781 802.605469 977.234375 828.039062 977.234375 859.125 L 977.234375 1477.230469 C 977.636719 1488.9375 967.140625 1499.433594 955.027344 1499.03125 Z M 629.222656 1342.382812 C 718.042969 1405.367188 824.222656 1444.125 933.226562 1453.410156 L 933.226562 859.125 C 933.226562 852.261719 927.574219 846.609375 920.710938 846.609375 L 641.738281 846.609375 C 634.875 846.609375 629.222656 852.261719 629.222656 859.125 Z M 629.222656 1342.382812 " fill-opacity="1" fill-rule="nonzero"/><path fill="#25c19b" d="M 986.117188 1499.835938 C 966.738281 1499.03125 934.035156 1504.683594 933.226562 1477.230469 L 933.226562 1052.914062 C 933.226562 1020.617188 959.46875 994.375 991.769531 994.375 L 1267.109375 994.375 C 1299.40625 994.375 1325.648438 1020.617188 1325.648438 1052.914062 L 1325.648438 1179.28125 C 1325.648438 1207.945312 1281.640625 1207.945312 1281.640625 1179.28125 L 1281.640625 1052.914062 C 1281.640625 1044.839844 1275.183594 1038.785156 1267.511719 1038.785156 L 992.171875 1038.785156 C 984.5 1038.785156 978.042969 1045.242188 978.042969 1052.914062 L 978.042969 1455.832031 C 1044.25 1457.042969 1110.058594 1446.949219 1173.445312 1426.761719 C 1184.75 1423.128906 1197.261719 1429.589844 1201.300781 1440.894531 C 1204.933594 1452.601562 1198.476562 1464.714844 1187.171875 1468.75 C 1120.960938 1489.339844 1053.941406 1499.835938 986.117188 1499.835938 Z M 986.117188 1499.835938 " fill-opacity="1" fill-rule="nonzero"/><path fill="#25c19b" d="M 1303.039062 1201.484375 C 1290.925781 1201.484375 1280.835938 1191.796875 1280.835938 1179.28125 L 1280.835938 710.554688 C 1280.835938 678.257812 1307.078125 652.015625 1339.375 652.015625 L 1601.390625 652.015625 C 1611.484375 652.015625 1619.964844 658.878906 1622.789062 668.164062 C 1661.546875 810.277344 1649.839844 964.902344 1591.703125 1100.554688 C 1586.859375 1111.859375 1573.9375 1116.703125 1562.632812 1112.261719 C 1551.328125 1107.417969 1546.082031 1094.496094 1550.925781 1083.191406 C 1603.410156 961.671875 1615.523438 824.003906 1584.433594 696.019531 L 1339.777344 696.019531 C 1331.703125 696.019531 1325.648438 702.480469 1325.648438 710.152344 L 1325.648438 1178.875 C 1325.246094 1191.390625 1315.152344 1201.484375 1303.039062 1201.484375 Z M 1303.039062 1201.484375 " fill-opacity="1" fill-rule="nonzero"/><path fill="#25c19b" d="M 508.105469 817.542969 C 489.128906 818.351562 478.632812 792.914062 492.359375 779.996094 C 492.359375 779.996094 670.808594 601.953125 670.808594 601.953125 C 679.285156 593.476562 693.414062 593.476562 701.894531 601.953125 C 710.371094 610.433594 710.371094 624.5625 701.894531 633.039062 L 523.445312 811.082031 C 519.410156 815.121094 513.757812 817.542969 508.105469 817.542969 Z M 1015.992188 702.480469 C 1012.359375 702.480469 1008.722656 701.671875 1005.496094 699.65625 L 847.234375 612.449219 C 822.203125 598.320312 843.195312 559.964844 868.632812 573.691406 L 1026.890625 660.898438 C 1046.675781 670.992188 1037.792969 703.289062 1015.992188 702.480469 Z M 1187.171875 677.855469 C 1168.195312 678.660156 1157.699219 653.226562 1171.425781 640.308594 L 1359.964844 451.363281 C 1379.746094 430.773438 1411.640625 462.667969 1391.050781 482.449219 C 1391.050781 482.449219 1202.511719 671.394531 1202.511719 671.394531 C 1198.476562 675.835938 1192.824219 677.855469 1187.171875 677.855469 Z M 1528.722656 335.898438 C 1509.746094 336.707031 1499.25 311.273438 1512.976562 298.351562 L 1613.101562 198.230469 C 1632.882812 177.640625 1664.777344 209.535156 1644.1875 229.316406 C 1644.1875 229.316406 1544.0625 329.4375 1544.0625 329.4375 C 1540.027344 333.878906 1534.375 335.898438 1528.722656 335.898438 Z M 1528.722656 335.898438 " fill-opacity="1" fill-rule="nonzero"/><path fill="#25c19b" d="M 762.855469 670.992188 C 590.871094 666.550781 590.871094 415.027344 762.855469 410.183594 C 934.84375 415.027344 934.84375 666.550781 762.855469 670.992188 Z M 762.855469 454.59375 C 649.410156 456.613281 649.410156 624.964844 762.855469 626.984375 C 876.300781 624.964844 876.300781 456.613281 762.855469 454.59375 Z M 762.855469 454.59375 " fill-opacity="1" fill-rule="nonzero"/><path fill="#25c19b" d="M 1452.015625 520.804688 C 1280.027344 516.363281 1280.027344 264.84375 1452.015625 260.402344 C 1624 264.441406 1624 516.363281 1452.015625 520.804688 Z M 1452.015625 304.003906 C 1338.566406 306.023438 1338.566406 474.375 1452.015625 476.394531 C 1565.460938 474.78125 1565.460938 306.023438 1452.015625 304.003906 Z M 1452.015625 304.003906 " fill-opacity="1" fill-rule="nonzero"/><path fill="#25c19b" d="M 1110.867188 862.757812 C 938.878906 858.320312 939.285156 606.796875 1110.867188 601.953125 C 1282.851562 606.796875 1282.851562 858.320312 1110.867188 862.757812 Z M 1110.867188 646.363281 C 997.417969 648.382812 997.417969 816.734375 1110.867188 818.753906 C 1224.3125 816.734375 1224.3125 648.382812 1110.867188 646.363281 Z M 1110.867188 646.363281 " fill-opacity="1" fill-rule="nonzero"/><g clip-path="url(#f5165c232c)"><path fill="#25c19b" d="M 1687.386719 2216.042969 L 1516.207031 2216.042969 C 1477.449219 2216.042969 1445.957031 2184.554688 1445.957031 2145.796875 L 1445.957031 2105.425781 C 1425.367188 2098.5625 1404.777344 2090.082031 1384.996094 2080.394531 L 1356.332031 2109.058594 C 1330.089844 2136.105469 1283.257812 2136.105469 1257.015625 2109.058594 L 1135.898438 1987.941406 C 1108.847656 1962.101562 1108.847656 1914.867188 1135.898438 1888.625 L 1164.5625 1859.960938 C 1154.871094 1840.582031 1146.394531 1819.992188 1139.53125 1798.996094 L 1099.160156 1798.996094 C 1060.402344 1798.996094 1028.910156 1767.507812 1028.910156 1728.75 L 1028.910156 1557.570312 C 1028.910156 1518.8125 1060.402344 1487.320312 1099.160156 1487.320312 L 1139.53125 1487.320312 C 1146.394531 1466.328125 1154.871094 1446.140625 1164.5625 1426.359375 L 1135.898438 1397.695312 C 1108.847656 1371.453125 1108.847656 1324.621094 1135.898438 1298.378906 L 1257.015625 1177.261719 C 1283.257812 1151.019531 1329.683594 1150.617188 1356.332031 1177.261719 L 1384.996094 1205.925781 C 1404.777344 1196.238281 1424.964844 1187.757812 1445.957031 1180.894531 L 1445.957031 1140.523438 C 1445.957031 1101.765625 1477.449219 1070.273438 1516.207031 1070.273438 L 1687.386719 1070.273438 C 1726.144531 1070.273438 1757.632812 1101.765625 1757.632812 1140.523438 L 1757.632812 1180.894531 C 1778.222656 1187.757812 1798.8125 1196.238281 1818.597656 1205.925781 L 1847.261719 1177.261719 C 1873.90625 1150.617188 1919.929688 1151.019531 1946.578125 1177.261719 L 2067.695312 1298.378906 C 2095.148438 1325.832031 2095.148438 1370.242188 2067.695312 1397.695312 L 2039.03125 1426.359375 C 2048.71875 1446.140625 2057.195312 1466.328125 2064.058594 1487.320312 L 2104.433594 1487.320312 C 2143.191406 1487.320312 2174.679688 1518.8125 2174.679688 1557.570312 L 2174.679688 1728.75 C 2174.679688 1767.507812 2143.191406 1798.996094 2104.433594 1798.996094 L 2064.058594 1798.996094 C 2057.195312 1819.585938 2048.71875 1840.175781 2039.03125 1859.960938 L 2067.695312 1888.625 C 2095.148438 1916.078125 2095.148438 1960.488281 2067.695312 1987.941406 L 1946.578125 2109.058594 C 1933.253906 2122.378906 1915.894531 2129.648438 1896.917969 2129.648438 C 1864.21875 2132.070312 1839.1875 2101.386719 1818.597656 2080.394531 C 1798.8125 2090.082031 1778.628906 2098.5625 1757.632812 2105.425781 L 1757.632812 2145.796875 C 1757.632812 2184.554688 1726.144531 2216.042969 1687.386719 2216.042969 Z M 1380.957031 2031.140625 C 1412.449219 2040.828125 1441.515625 2060.609375 1474.21875 2068.28125 C 1483.503906 2071.109375 1489.964844 2079.585938 1489.964844 2089.273438 L 1489.964844 2145.796875 C 1489.964844 2160.332031 1501.671875 2172.039062 1516.207031 2172.039062 L 1687.386719 2172.039062 C 1701.917969 2172.039062 1713.628906 2160.332031 1713.628906 2145.796875 C 1716.050781 2116.324219 1704.746094 2074.335938 1729.371094 2068.28125 C 1758.039062 2059.804688 1785.894531 2048.09375 1812.136719 2033.964844 C 1820.613281 2029.523438 1831.515625 2030.734375 1837.972656 2037.597656 C 1859.777344 2054.957031 1886.824219 2104.214844 1915.085938 2077.566406 L 2036.203125 1956.449219 C 2046.296875 1946.355469 2046.296875 1929.804688 2036.203125 1919.710938 L 1996.234375 1879.742188 C 1989.371094 1872.878906 1987.757812 1862.382812 1992.601562 1853.902344 C 2006.730469 1827.660156 2018.441406 1799.804688 2026.917969 1771.140625 C 2039.433594 1731.574219 2127.847656 1783.25 2130.675781 1729.152344 L 2130.675781 1557.972656 C 2130.675781 1543.441406 2118.96875 1531.730469 2104.433594 1531.730469 C 2074.960938 1529.308594 2032.972656 1540.613281 2026.917969 1515.984375 C 2018.441406 1487.320312 2006.730469 1459.464844 1992.601562 1433.222656 C 1988.160156 1424.746094 1989.371094 1414.246094 1996.234375 1407.382812 L 2036.203125 1367.414062 C 2046.296875 1357.324219 2046.296875 1340.769531 2036.203125 1330.273438 L 1915.085938 1209.15625 C 1886.421875 1182.914062 1859.371094 1232.167969 1837.972656 1249.125 C 1831.109375 1255.988281 1820.613281 1257.601562 1812.136719 1252.757812 C 1785.894531 1238.628906 1758.039062 1226.917969 1729.371094 1218.441406 C 1704.339844 1211.980469 1716.050781 1170.800781 1713.628906 1140.925781 C 1713.628906 1126.390625 1701.917969 1114.683594 1687.386719 1114.683594 L 1516.207031 1114.683594 C 1477.851562 1115.894531 1493.195312 1168.78125 1489.964844 1197.449219 C 1489.964844 1207.136719 1483.503906 1215.613281 1474.21875 1218.441406 C 1445.554688 1226.917969 1417.699219 1238.628906 1391.457031 1252.757812 C 1369.25 1266.082031 1347.449219 1227.324219 1325.246094 1208.75 C 1315.554688 1199.0625 1298.195312 1199.0625 1288.503906 1208.75 L 1167.386719 1329.871094 C 1140.742188 1358.128906 1190.402344 1385.582031 1207.355469 1406.980469 C 1214.21875 1413.84375 1215.835938 1424.339844 1210.992188 1433.222656 C 1196.859375 1459.464844 1185.152344 1487.320312 1176.671875 1515.984375 C 1170.214844 1541.015625 1129.035156 1529.308594 1099.160156 1531.730469 C 1084.625 1531.730469 1072.917969 1543.441406 1072.917969 1557.972656 L 1072.917969 1729.152344 C 1076.144531 1782.847656 1164.15625 1731.574219 1176.671875 1771.140625 C 1185.554688 1799.804688 1196.859375 1827.660156 1210.992188 1853.902344 C 1215.835938 1862.382812 1214.21875 1872.878906 1207.355469 1880.144531 C 1189.996094 1901.542969 1140.742188 1928.996094 1167.386719 1957.257812 L 1288.503906 2078.375 C 1293.351562 2083.21875 1299.808594 2086.046875 1307.078125 2086.046875 C 1332.511719 2086.449219 1356.734375 2031.542969 1380.957031 2031.140625 Z M 1601.796875 1947.164062 C 1434.25 1947.164062 1297.789062 1810.707031 1297.789062 1643.160156 C 1311.921875 1241.050781 1891.265625 1241.050781 1905.398438 1643.160156 C 1905.800781 1810.707031 1769.339844 1947.164062 1601.796875 1947.164062 Z M 1601.796875 1383.566406 C 1258.628906 1394.464844 1258.628906 1892.257812 1601.796875 1903.160156 C 1945.367188 1891.855469 1944.960938 1394.0625 1601.796875 1383.566406 Z M 1601.796875 1383.566406 " fill-opacity="1" fill-rule="nonzero"/></g></svg>