<svg xmlns="http://www.w3.org/2000/svg" xmlns:xlink="http://www.w3.org/1999/xlink" width="3000" zoomAndPan="magnify" viewBox="0 0 2250 2250.000011" height="3000" preserveAspectRatio="xMidYMid meet" version="1.0"><defs><clipPath id="7cee217157"><path d="M 0.5 37 L 2245 37 L 2245 2086 L 0.5 2086 Z M 0.5 37 " clip-rule="nonzero"/></clipPath><clipPath id="249e193ee3"><path d="M 169.164062 -258.167969 L 2474.621094 883.960938 L 1725.183594 2396.746094 L -580.273438 1254.621094 Z M 169.164062 -258.167969 " clip-rule="nonzero"/></clipPath><clipPath id="7ba2835901"><path d="M 169.164062 -258.167969 L 2474.621094 883.960938 L 1725.183594 2396.746094 L -580.273438 1254.621094 Z M 169.164062 -258.167969 " clip-rule="nonzero"/></clipPath></defs><g clip-path="url(#7cee217157)"><g clip-path="url(#249e193ee3)"><g clip-path="url(#7ba2835901)"><path fill="#206767" d="M -82.679688 344.871094 C -50.402344 295.695312 -28.191406 240.683594 0.574219 189.375 C 29.339844 138.066406 66.566406 88.839844 118.8125 61.808594 C 174.640625 32.917969 241.371094 32.78125 303.046875 44.929688 C 364.722656 57.074219 423.515625 80.585938 484.117188 97.285156 C 663.703125 146.773438 856.621094 135.863281 1033.773438 193.460938 C 1139.027344 227.679688 1238.960938 288.304688 1301.4375 379.664062 C 1344.503906 442.640625 1367.753906 516.660156 1399.277344 586.140625 C 1415.039062 620.878906 1433.066406 654.816406 1456.316406 685.0625 C 1479.566406 715.304688 1508.269531 741.851562 1542.195312 759.296875 C 1597.941406 787.964844 1663.367188 790.238281 1725.949219 786.585938 C 1788.527344 782.929688 1851.488281 773.988281 1913.59375 782.476562 C 1986.066406 792.386719 2054.609375 826.371094 2108.402344 875.933594 C 2162.195312 925.496094 2201.347656 990.21875 2223.140625 1060.042969 C 2266.726562 1199.691406 2239.796875 1355.222656 2170.882812 1484.265625 C 2112.652344 1593.304688 2027.101562 1684.726562 1947.957031 1779.683594 C 1901.363281 1835.582031 1856.574219 1893.253906 1804.574219 1944.160156 C 1752.574219 1995.066406 1692.503906 2039.457031 1623.71875 2063.199219 C 1564.464844 2083.652344 1500.628906 2088.117188 1438.074219 2084.082031 C 1375.519531 2080.042969 1313.828125 2067.730469 1252.375 2055.363281 C 1076.859375 2020.027344 898.199219 1982.765625 742.375 1894.597656 C 564.40625 1793.898438 426.433594 1632.359375 246.984375 1534.316406 C 189.621094 1502.976562 128.691406 1478.523438 71.46875 1446.933594 C 14.242188 1415.339844 -40.277344 1375.429688 -76.015625 1320.699219 C -116.015625 1259.4375 -129.328125 1184.742188 -136.09375 1111.890625 C -142.863281 1039.039062 -144.09375 965.011719 -163.511719 894.46875 C -177.226562 844.636719 -199.722656 797.71875 -217 749.007812 C -234.277344 700.300781 -246.414062 648.113281 -238.253906 597.078125 C -230.375 547.78125 -204.148438 503.296875 -174.199219 463.355469 C -144.253906 423.410156 -110.074219 386.605469 -82.679688 344.871094 Z M -82.679688 344.871094 " fill-opacity="1" fill-rule="nonzero"/></g></g></g></svg>