<svg xmlns="http://www.w3.org/2000/svg" xmlns:xlink="http://www.w3.org/1999/xlink" width="400" zoomAndPan="magnify" viewBox="0 0 300 149.999998" height="200" preserveAspectRatio="xMidYMid meet" version="1.0"><defs><clipPath id="5aeffba68b"><path d="M 1 13 L 299 13 L 299 150 L 1 150 Z M 1 13 " clip-rule="nonzero"/></clipPath><clipPath id="0665079538"><path d="M 45.695312 -23.894531 L 303.980469 92.984375 L 254.195312 202.996094 L -4.089844 86.113281 Z M 45.695312 -23.894531 " clip-rule="nonzero"/></clipPath><clipPath id="b3140cf182"><path d="M 45.695312 -23.894531 L 303.980469 92.984375 L 254.195312 202.996094 L -4.089844 86.113281 Z M 45.695312 -23.894531 " clip-rule="nonzero"/></clipPath></defs><g clip-path="url(#5aeffba68b)"><g clip-path="url(#0665079538)"><g clip-path="url(#b3140cf182)"><path fill="#206767" d="M 167.425781 135.886719 L 165.988281 135.238281 C 149.207031 127.644531 130.484375 114.179688 113.742188 106.605469 C 64.03125 84.109375 21.550781 97.792969 8.542969 91.90625 C -1.449219 87.390625 1.867188 72.953125 5.09375 65.824219 C 22.539062 27.273438 94.691406 4.429688 123.332031 17.390625 C 137.082031 23.613281 172.433594 52.457031 204.367188 66.910156 C 250.78125 87.902344 284.117188 84.09375 293.265625 88.234375 C 303.992188 93.089844 296.449219 110.066406 295.992188 111.082031 C 271.972656 164.160156 199.941406 150.601562 167.425781 135.886719 Z M 167.425781 135.886719 " fill-opacity="1" fill-rule="nonzero"/></g></g></g></svg>