<svg xmlns="http://www.w3.org/2000/svg" xmlns:xlink="http://www.w3.org/1999/xlink" width="2000" zoomAndPan="magnify" viewBox="0 0 1500 637.499986" height="850" preserveAspectRatio="xMidYMid meet" version="1.0"><defs><clipPath id="b9490ed40b"><path d="M 20 93 L 1438 93 L 1438 630 L 20 630 Z M 20 93 " clip-rule="nonzero"/></clipPath><clipPath id="53e52f2c4b"><path d="M -50.230469 212.140625 L 1377.546875 -189.105469 L 1550.085938 424.863281 L 122.308594 826.105469 Z M -50.230469 212.140625 " clip-rule="nonzero"/></clipPath><clipPath id="e9f4303bc2"><path d="M 1550.230469 424.859375 L 122.453125 826.101562 L -50.085938 212.136719 L 1377.691406 -189.109375 Z M 1550.230469 424.859375 " clip-rule="nonzero"/></clipPath><clipPath id="9a7df48932"><path d="M 1373 138 L 1489 138 L 1489 256 L 1373 256 Z M 1373 138 " clip-rule="nonzero"/></clipPath><clipPath id="6531b325c9"><path d="M -50.230469 212.140625 L 1377.546875 -189.105469 L 1550.085938 424.863281 L 122.308594 826.105469 Z M -50.230469 212.140625 " clip-rule="nonzero"/></clipPath><clipPath id="0de37ef3ae"><path d="M 1550.230469 424.859375 L 122.453125 826.101562 L -50.085938 212.136719 L 1377.691406 -189.109375 Z M 1550.230469 424.859375 " clip-rule="nonzero"/></clipPath></defs><g clip-path="url(#b9490ed40b)"><g clip-path="url(#53e52f2c4b)"><g clip-path="url(#e9f4303bc2)"><path fill="#8fc29f" d="M 794.003906 608.195312 C 795.355469 607.816406 796.808594 607.710938 798.285156 607.953125 C 815.003906 610.589844 831.757812 607.847656 847.316406 599.894531 C 852.238281 597.367188 858.304688 599.332031 860.820312 604.269531 C 863.351562 609.207031 861.394531 615.246094 856.457031 617.773438 C 850.222656 620.960938 843.75 623.507812 837.222656 625.34375 C 823.480469 629.203125 809.320312 630.027344 795.148438 627.777344 C 789.671875 626.914062 785.929688 621.769531 786.796875 616.292969 C 787.429688 612.289062 790.347656 609.222656 794.003906 608.195312 Z M 920.476562 513.1875 C 922.714844 512.558594 925.183594 512.699219 927.449219 513.765625 C 932.472656 516.128906 934.628906 522.105469 932.273438 527.125 C 927.679688 536.882812 922.398438 546.867188 916.570312 556.8125 C 912.125 564.375 907.375 571.492188 902.4375 577.941406 C 899.058594 582.339844 892.757812 583.175781 888.359375 579.796875 C 883.953125 576.433594 883.117188 570.132812 886.492188 565.726562 C 890.9375 559.933594 895.21875 553.519531 899.25 546.644531 C 904.765625 537.238281 909.765625 527.792969 914.097656 518.585938 C 915.386719 515.828125 917.761719 513.949219 920.476562 513.1875 Z M 708.652344 539.550781 C 713.242188 538.257812 718.242188 540.402344 720.390625 544.847656 C 728.210938 560.976562 739.25 575.273438 752.324219 586.199219 C 756.570312 589.765625 757.144531 596.089844 753.582031 600.34375 C 750.039062 604.59375 743.703125 605.171875 739.449219 601.609375 C 724.210938 588.875 711.375 572.277344 702.328125 553.605469 C 699.902344 548.613281 701.992188 542.609375 706.984375 540.1875 C 707.53125 539.925781 708.085938 539.707031 708.652344 539.550781 Z M 944.757812 403.238281 C 945.464844 403.039062 946.199219 402.917969 946.964844 402.882812 C 952.496094 402.59375 957.226562 406.847656 957.503906 412.382812 C 958.515625 431.574219 956.636719 451.511719 951.929688 471.628906 C 950.667969 477.027344 945.273438 480.386719 939.863281 479.113281 C 934.46875 477.851562 931.117188 472.453125 932.382812 467.058594 C 936.65625 448.78125 938.359375 430.730469 937.460938 413.4375 C 937.207031 408.648438 940.347656 404.476562 944.757812 403.238281 Z M 702.710938 428.925781 C 704.625 428.386719 706.71875 428.40625 708.738281 429.113281 C 713.964844 430.945312 716.730469 436.679688 714.886719 441.910156 C 708.929688 458.921875 706.371094 476.433594 707.296875 493.976562 C 707.585938 499.507812 703.328125 504.238281 697.800781 504.527344 C 692.261719 504.820312 687.53125 500.566406 687.238281 495.035156 C 686.1875 474.871094 689.109375 454.761719 695.945312 435.269531 C 697.070312 432.050781 699.660156 429.78125 702.710938 428.925781 Z M 1368.128906 186.441406 C 1369.300781 186.109375 1370.554688 186 1371.851562 186.121094 C 1391.675781 188.117188 1410.96875 191.183594 1429.167969 195.226562 C 1434.585938 196.433594 1437.996094 201.792969 1436.796875 207.203125 C 1435.597656 212.617188 1430.230469 216.03125 1424.816406 214.832031 C 1407.382812 210.953125 1388.886719 208.015625 1369.84375 206.105469 C 1364.316406 205.542969 1360.300781 200.625 1360.851562 195.113281 C 1361.277344 190.878906 1364.269531 187.523438 1368.128906 186.441406 Z M 771 340.003906 C 774.828125 338.929688 779.105469 340.203125 781.679688 343.558594 C 785.050781 347.957031 784.222656 354.261719 779.828125 357.632812 C 764.605469 369.320312 751.515625 382.03125 740.914062 395.429688 C 737.484375 399.769531 731.171875 400.511719 726.816406 397.074219 C 722.472656 393.628906 721.730469 387.316406 725.171875 382.972656 C 736.796875 368.28125 751.0625 354.398438 767.605469 341.710938 C 768.644531 340.910156 769.796875 340.34375 771 340.003906 Z M 905.542969 298.308594 C 909.4375 297.214844 913.785156 298.554688 916.335938 302.015625 C 928.601562 318.652344 938.28125 336.117188 945.09375 353.921875 C 947.070312 359.097656 944.476562 364.902344 939.304688 366.890625 C 934.113281 368.898438 928.324219 366.273438 926.347656 361.097656 C 920.175781 344.980469 911.367188 329.105469 900.171875 313.941406 C 896.886719 309.472656 897.828125 303.183594 902.296875 299.886719 C 903.304688 299.15625 904.40625 298.625 905.542969 298.308594 Z M 1254.503906 185.679688 C 1255.144531 185.5 1255.804688 185.375 1256.484375 185.332031 C 1276.152344 183.847656 1295.539062 183.132812 1314.089844 183.203125 C 1319.632812 183.222656 1324.109375 187.734375 1324.085938 193.277344 C 1324.066406 198.824219 1319.558594 203.308594 1314.011719 203.273438 C 1295.984375 203.214844 1277.140625 203.910156 1257.992188 205.355469 C 1252.460938 205.769531 1247.640625 201.621094 1247.230469 196.089844 C 1246.855469 191.253906 1250.003906 186.945312 1254.503906 185.679688 Z M 870.890625 286.355469 C 875.707031 285.003906 880.890625 287.421875 882.855469 292.164062 C 885 297.28125 882.570312 303.160156 877.460938 305.289062 C 868.863281 308.871094 860.140625 312.585938 851.554688 316.332031 C 842.734375 320.171875 834.316406 324.1875 826.394531 328.308594 C 821.476562 330.871094 815.414062 328.953125 812.855469 324.039062 C 810.296875 319.125 812.210938 313.058594 817.125 310.5 C 825.453125 306.167969 834.285156 301.949219 843.382812 297.984375 C 843.460938 297.953125 843.546875 297.914062 843.601562 297.886719 C 852.226562 294.140625 861.03125 290.378906 869.738281 286.753906 C 870.121094 286.597656 870.507812 286.464844 870.890625 286.355469 Z M 1141.914062 201.472656 C 1142.160156 201.402344 1142.421875 201.34375 1142.675781 201.296875 C 1161.847656 197.472656 1180.894531 194.210938 1199.296875 191.589844 C 1204.785156 190.8125 1209.863281 194.628906 1210.640625 200.117188 C 1211.417969 205.609375 1207.589844 210.691406 1202.117188 211.476562 C 1184.082031 214.03125 1165.410156 217.238281 1146.609375 220.992188 C 1141.167969 222.070312 1135.878906 218.542969 1134.796875 213.101562 C 1133.769531 207.925781 1136.914062 202.878906 1141.914062 201.472656 Z M 977.320312 246.171875 C 982.429688 244.738281 987.820312 247.546875 989.542969 252.636719 C 991.320312 257.878906 988.5 263.578125 983.246094 265.359375 C 965.675781 271.292969 947.769531 277.707031 930.015625 284.410156 C 924.820312 286.394531 919.039062 283.753906 917.070312 278.574219 C 915.113281 273.382812 917.722656 267.585938 922.917969 265.628906 C 940.890625 258.839844 959.027344 252.347656 976.820312 246.339844 C 976.984375 246.28125 977.152344 246.222656 977.320312 246.171875 Z M 1050.066406 223.640625 C 1062.300781 220.203125 1074.628906 216.921875 1086.703125 213.902344 C 1092.09375 212.558594 1097.539062 215.824219 1098.882812 221.203125 C 1100.222656 226.582031 1097.015625 232.027344 1091.582031 233.382812 C 1079.632812 236.367188 1067.4375 239.597656 1055.320312 243.015625 C 1049.261719 244.71875 1043.132812 246.488281 1037.109375 248.265625 C 1037.066406 248.289062 1037.023438 248.304688 1036.976562 248.316406 C 1031.699219 249.800781 1026.195312 246.769531 1024.640625 241.496094 C 1023.058594 236.171875 1026.09375 230.597656 1031.410156 229.019531 C 1037.519531 227.214844 1043.742188 225.417969 1049.886719 223.691406 C 1049.945312 223.675781 1050.011719 223.65625 1050.066406 223.640625 Z M 822.371094 221.433594 C 825.117188 220.660156 828.167969 221.066406 830.71875 222.792969 C 847.632812 234.238281 863.105469 246.296875 876.683594 258.621094 C 880.792969 262.347656 881.105469 268.695312 877.378906 272.800781 C 873.652344 276.910156 867.304688 277.226562 863.195312 273.496094 C 850.304688 261.804688 835.59375 250.335938 819.457031 239.410156 C 814.867188 236.304688 813.660156 230.074219 816.777344 225.46875 C 818.160156 223.429688 820.164062 222.054688 822.371094 221.433594 Z M 36.992188 425.058594 C 39.109375 424.464844 41.429688 424.5625 43.609375 425.480469 C 48.707031 427.644531 51.101562 433.527344 48.957031 438.636719 C 45.960938 445.734375 42.914062 453.132812 39.902344 460.609375 C 37.839844 465.757812 31.996094 468.25 26.847656 466.1875 C 21.699219 464.113281 19.207031 458.265625 21.269531 453.121094 C 24.324219 445.535156 27.414062 438.035156 30.453125 430.832031 C 31.683594 427.898438 34.15625 425.855469 36.992188 425.058594 Z M 722.371094 167.347656 C 724.519531 166.742188 726.894531 166.851562 729.109375 167.820312 C 747.34375 175.800781 764.828125 184.257812 781.066406 192.953125 C 785.957031 195.574219 787.800781 201.652344 785.175781 206.542969 C 782.554688 211.429688 776.480469 213.273438 771.589844 210.652344 C 755.8125 202.210938 738.816406 193.984375 721.050781 186.210938 C 715.972656 183.996094 713.652344 178.066406 715.882812 172.996094 C 717.140625 170.128906 719.566406 168.132812 722.371094 167.347656 Z M 86.339844 322.625 C 88.804688 321.933594 91.53125 322.175781 93.9375 323.515625 C 98.785156 326.207031 100.527344 332.324219 97.835938 337.171875 C 89.121094 352.835938 80.457031 369.660156 72.058594 387.1875 C 69.652344 392.1875 63.660156 394.296875 58.664062 391.898438 C 53.65625 389.503906 51.546875 383.503906 53.941406 378.507812 C 62.515625 360.617188 71.382812 343.429688 80.289062 327.410156 C 81.632812 324.980469 83.851562 323.324219 86.339844 322.625 Z M 615.394531 128.371094 C 617.171875 127.871094 619.101562 127.863281 620.996094 128.425781 C 639.613281 134.039062 657.980469 140.109375 675.597656 146.5 C 680.816406 148.386719 683.503906 154.152344 681.617188 159.355469 C 679.730469 164.574219 673.964844 167.261719 668.757812 165.375 C 651.492188 159.117188 633.472656 153.152344 615.207031 147.660156 C 609.898438 146.054688 606.890625 140.464844 608.484375 135.148438 C 609.515625 131.734375 612.199219 129.269531 615.394531 128.371094 Z M 149.421875 228.148438 C 152.472656 227.292969 155.871094 227.890625 158.503906 230.042969 C 162.792969 233.546875 163.429688 239.878906 159.921875 244.167969 C 148.691406 257.914062 137.578125 273.070312 126.894531 289.199219 C 123.824219 293.828125 117.597656 295.089844 112.984375 292.027344 C 108.355469 288.957031 107.089844 282.730469 110.152344 278.105469 C 121.199219 261.421875 132.722656 245.726562 144.378906 231.460938 C 145.734375 229.804688 147.507812 228.6875 149.421875 228.148438 Z M 504.675781 101.65625 C 506.0625 101.269531 507.566406 101.171875 509.085938 101.4375 C 511.367188 101.828125 513.679688 102.234375 515.984375 102.65625 C 531.105469 105.425781 548.230469 109.113281 565.507812 113.332031 C 570.890625 114.648438 574.191406 120.070312 572.886719 125.464844 C 571.570312 130.851562 566.136719 134.152344 560.75 132.835938 C 543.84375 128.722656 527.117188 125.117188 512.367188 122.410156 C 510.125 121.996094 507.902344 121.601562 505.683594 121.230469 C 500.222656 120.285156 496.554688 115.101562 497.480469 109.628906 C 498.160156 105.6875 501.0625 102.671875 504.675781 101.65625 Z M 232.101562 150.59375 C 236.121094 149.464844 240.589844 150.941406 243.097656 154.585938 C 246.222656 159.144531 245.066406 165.398438 240.496094 168.539062 C 225.808594 178.628906 211.382812 190.347656 197.644531 203.375 C 193.613281 207.179688 187.261719 207.011719 183.449219 202.992188 C 179.632812 198.964844 179.804688 192.613281 183.832031 188.800781 C 198.332031 175.058594 213.578125 162.671875 229.128906 151.988281 C 230.066406 151.347656 231.066406 150.886719 232.101562 150.59375 Z M 391.347656 95.300781 C 391.980469 95.125 392.628906 95.015625 393.304688 94.957031 C 411.933594 93.535156 431.527344 93.421875 451.53125 94.636719 C 457.066406 94.976562 461.28125 99.742188 460.941406 105.265625 C 460.601562 110.800781 455.847656 115.015625 450.316406 114.6875 C 431.214844 113.523438 412.5625 113.613281 394.851562 114.984375 C 389.3125 115.402344 384.492188 111.265625 384.070312 105.738281 C 383.691406 100.890625 386.835938 96.570312 391.347656 95.300781 Z M 325.234375 106.824219 C 328.632812 105.871094 332.09375 104.957031 335.546875 104.109375 C 340.929688 102.777344 346.371094 106.070312 347.699219 111.441406 C 349.019531 116.839844 345.726562 122.234375 340.355469 123.597656 C 322.421875 128.015625 304.964844 134.039062 288.382812 141.503906 C 283.355469 143.792969 277.394531 141.546875 275.117188 136.476562 C 272.835938 131.421875 275.089844 125.484375 280.144531 123.199219 C 294.632812 116.675781 309.804688 111.160156 325.234375 106.824219 " fill-opacity="1" fill-rule="nonzero"/></g></g></g><g clip-path="url(#9a7df48932)"><g clip-path="url(#6531b325c9)"><g clip-path="url(#0de37ef3ae)"><path fill="#8fc29f" d="M 1482.328125 225.667969 L 1384.96875 255.394531 C 1376.871094 257.867188 1370.003906 249.023438 1374.40625 241.789062 L 1399.074219 201.179688 C 1400.105469 199.496094 1400.558594 197.519531 1400.382812 195.554688 L 1396.039062 148.25 C 1395.269531 139.804688 1405.3125 134.882812 1411.511719 140.65625 L 1485.925781 210.121094 C 1491.113281 214.964844 1489.117188 223.601562 1482.328125 225.667969 " fill-opacity="1" fill-rule="nonzero"/></g></g></g></svg>