<svg xmlns="http://www.w3.org/2000/svg" xmlns:xlink="http://www.w3.org/1999/xlink" width="2000" zoomAndPan="magnify" viewBox="0 0 1500 637.499986" height="850" preserveAspectRatio="xMidYMid meet" version="1.0"><defs><clipPath id="67774b9654"><path d="M 58 79 L 1485 79 L 1485 632 L 58 632 Z M 58 79 " clip-rule="nonzero"/></clipPath><clipPath id="e3c62ca6e5"><path d="M 100.574219 -161.011719 L 1544.636719 176.976562 L 1399.296875 797.941406 L -44.765625 459.957031 Z M 100.574219 -161.011719 " clip-rule="nonzero"/></clipPath><clipPath id="bbff9ea839"><path d="M -44.773438 459.988281 L 1399.289062 797.976562 L 1544.628906 177.007812 L 100.566406 -160.976562 Z M -44.773438 459.988281 " clip-rule="nonzero"/></clipPath><clipPath id="3686f2c9f4"><path d="M 7 167 L 125 167 L 125 284 L 7 284 Z M 7 167 " clip-rule="nonzero"/></clipPath><clipPath id="377e5cccac"><path d="M 100.574219 -161.011719 L 1544.636719 176.976562 L 1399.296875 797.941406 L -44.765625 459.957031 Z M 100.574219 -161.011719 " clip-rule="nonzero"/></clipPath><clipPath id="d26e58b857"><path d="M -44.773438 459.988281 L 1399.289062 797.976562 L 1544.628906 177.007812 L 100.566406 -160.976562 Z M -44.773438 459.988281 " clip-rule="nonzero"/></clipPath></defs><g clip-path="url(#67774b9654)"><g clip-path="url(#e3c62ca6e5)"><g clip-path="url(#bbff9ea839)"><path fill="#8fc29f" d="M 718.792969 609.851562 C 717.425781 609.53125 715.972656 609.492188 714.507812 609.796875 C 697.917969 613.167969 681.058594 611.167969 665.167969 603.90625 C 660.136719 601.597656 654.164062 603.828125 651.867188 608.875 C 649.558594 613.914062 651.78125 619.863281 656.824219 622.171875 C 663.191406 625.078125 669.769531 627.339844 676.375 628.886719 C 690.273438 632.136719 704.453125 632.335938 718.511719 629.464844 C 723.945312 628.359375 727.457031 623.058594 726.351562 617.625 C 725.539062 613.652344 722.492188 610.71875 718.792969 609.851562 Z M 588.261719 520.503906 C 585.996094 519.972656 583.535156 520.226562 581.320312 521.386719 C 576.40625 523.972656 574.515625 530.039062 577.089844 534.949219 C 582.109375 544.492188 587.824219 554.238281 594.082031 563.914062 C 598.855469 571.273438 603.917969 578.175781 609.136719 584.402344 C 612.703125 588.648438 619.035156 589.207031 623.277344 585.636719 C 627.535156 582.082031 628.089844 575.75 624.523438 571.496094 C 619.828125 565.90625 615.269531 559.6875 610.941406 552.996094 C 605.015625 543.839844 599.605469 534.625 594.871094 525.617188 C 593.460938 522.921875 591.007812 521.144531 588.261719 520.503906 Z M 801.042969 537.515625 C 796.398438 536.425781 791.5 538.785156 789.546875 543.324219 C 782.441406 559.78125 772.046875 574.554688 759.464844 586.039062 C 755.378906 589.792969 755.082031 596.132812 758.832031 600.230469 C 762.558594 604.320312 768.910156 604.617188 773.007812 600.867188 C 787.667969 587.480469 799.761719 570.328125 807.980469 551.277344 C 810.179688 546.183594 807.828125 540.28125 802.734375 538.078125 C 802.179688 537.839844 801.613281 537.648438 801.042969 537.515625 Z M 559.164062 411.730469 C 558.445312 411.5625 557.710938 411.472656 556.941406 411.472656 C 551.40625 411.425781 546.867188 415.886719 546.832031 421.425781 C 546.667969 440.648438 549.421875 460.480469 555.007812 480.375 C 556.507812 485.707031 562.046875 488.828125 567.394531 487.320312 C 572.726562 485.816406 575.835938 480.277344 574.335938 474.945312 C 569.261719 456.875 566.761719 438.914062 566.902344 421.597656 C 566.945312 416.804688 563.625 412.773438 559.164062 411.730469 Z M 802.105469 426.734375 C 800.167969 426.28125 798.078125 426.394531 796.089844 427.1875 C 790.949219 429.25 788.441406 435.097656 790.515625 440.242188 C 797.210938 456.976562 800.539062 474.359375 800.390625 491.925781 C 800.34375 497.464844 804.804688 502 810.339844 502.050781 C 815.886719 502.097656 820.425781 497.636719 820.472656 492.101562 C 820.636719 471.90625 816.832031 451.949219 809.144531 432.777344 C 807.878906 429.613281 805.1875 427.457031 802.105469 426.734375 Z M 126.65625 213.785156 C 125.472656 213.507812 124.210938 213.453125 122.921875 213.628906 C 103.207031 216.496094 84.066406 220.410156 66.0625 225.25 C 60.707031 226.695312 57.53125 232.199219 58.96875 237.550781 C 60.40625 242.90625 65.917969 246.082031 71.273438 244.648438 C 88.519531 240.003906 106.867188 236.253906 125.808594 233.503906 C 131.304688 232.703125 135.101562 227.613281 134.308594 222.132812 C 133.695312 217.917969 130.558594 214.699219 126.65625 213.785156 Z M 729.96875 340.90625 C 726.097656 340 721.875 341.464844 719.457031 344.929688 C 716.28125 349.46875 717.382812 355.734375 721.925781 358.910156 C 737.648438 369.914062 751.28125 382.039062 762.464844 394.957031 C 766.082031 399.140625 772.421875 399.605469 776.621094 395.976562 C 780.808594 392.347656 781.273438 386.007812 777.640625 381.820312 C 765.382812 367.652344 750.519531 354.410156 733.433594 342.464844 C 732.363281 341.707031 731.183594 341.191406 729.96875 340.90625 Z M 593.71875 305.175781 C 589.78125 304.253906 585.496094 305.785156 583.097656 309.355469 C 571.578125 326.515625 562.675781 344.390625 556.652344 362.476562 C 554.90625 367.738281 557.753906 373.421875 563.011719 375.179688 C 568.285156 376.957031 573.953125 374.078125 575.699219 368.820312 C 581.152344 352.449219 589.253906 336.203125 599.773438 320.558594 C 602.855469 315.949219 601.640625 309.707031 597.03125 306.613281 C 595.992188 305.925781 594.867188 305.445312 593.71875 305.175781 Z M 240.136719 208.023438 C 239.488281 207.871094 238.824219 207.777344 238.144531 207.761719 C 218.429688 207.144531 199.03125 207.285156 180.5 208.171875 C 174.960938 208.4375 170.691406 213.140625 170.957031 218.679688 C 171.222656 224.214844 175.921875 228.496094 181.460938 228.222656 C 199.46875 227.367188 218.328125 227.230469 237.515625 227.832031 C 243.0625 228 247.695312 223.648438 247.863281 218.101562 C 248.027344 213.253906 244.691406 209.089844 240.136719 208.023438 Z M 627.8125 291.710938 C 622.941406 290.570312 617.867188 293.214844 616.113281 298.039062 C 614.199219 303.246094 616.882812 309.011719 622.082031 310.914062 C 630.828125 314.113281 639.703125 317.441406 648.449219 320.808594 C 657.429688 324.253906 666.015625 327.894531 674.113281 331.664062 C 679.136719 334.003906 685.109375 331.824219 687.449219 326.800781 C 689.789062 321.777344 687.609375 315.804688 682.585938 313.464844 C 674.078125 309.503906 665.066406 305.675781 655.800781 302.117188 C 655.726562 302.085938 655.636719 302.054688 655.582031 302.027344 C 646.800781 298.664062 637.839844 295.292969 628.980469 292.054688 C 628.59375 291.917969 628.199219 291.800781 627.8125 291.710938 Z M 353.316406 218.84375 C 353.066406 218.785156 352.800781 218.734375 352.542969 218.699219 C 333.226562 215.726562 314.050781 213.304688 295.550781 211.496094 C 290.035156 210.960938 285.128906 215 284.59375 220.515625 C 284.058594 226.035156 288.105469 230.945312 293.609375 231.488281 C 311.738281 233.246094 330.535156 235.628906 349.484375 238.550781 C 354.964844 239.390625 360.097656 235.632812 360.933594 230.148438 C 361.734375 224.933594 358.371094 220.027344 353.316406 218.84375 Z M 519.714844 256.253906 C 514.546875 255.042969 509.285156 258.085938 507.789062 263.246094 C 506.246094 268.566406 509.3125 274.132812 514.640625 275.679688 C 532.453125 280.835938 550.625 286.457031 568.65625 292.371094 C 573.9375 294.121094 579.597656 291.230469 581.332031 285.972656 C 583.058594 280.695312 580.199219 275.019531 574.921875 273.292969 C 556.667969 267.304688 538.261719 261.613281 520.222656 256.394531 C 520.054688 256.34375 519.886719 256.292969 519.714844 256.253906 Z M 446.046875 236.945312 C 433.671875 234.050781 421.214844 231.3125 409.019531 228.832031 C 403.574219 227.726562 398.277344 231.226562 397.171875 236.660156 C 396.070312 242.09375 399.511719 247.390625 405.003906 248.507812 C 417.070312 250.960938 429.398438 253.652344 441.652344 256.53125 C 447.777344 257.964844 453.984375 259.464844 460.078125 260.976562 C 460.121094 261 460.164062 261.007812 460.210938 261.019531 C 465.550781 262.269531 470.914062 259 472.234375 253.664062 C 473.578125 248.277344 470.300781 242.839844 464.925781 241.496094 C 458.738281 239.964844 452.445312 238.441406 446.226562 236.988281 C 446.171875 236.972656 446.101562 236.957031 446.046875 236.945312 Z M 673.425781 224.714844 C 670.648438 224.0625 667.617188 224.601562 665.144531 226.4375 C 648.75 238.617188 633.824219 251.347656 620.800781 264.253906 C 616.863281 268.160156 616.828125 274.515625 620.734375 278.457031 C 624.636719 282.394531 630.992188 282.429688 634.933594 278.523438 C 647.296875 266.277344 661.488281 254.171875 677.128906 242.546875 C 681.578125 239.242188 682.507812 232.964844 679.191406 228.5 C 677.722656 226.523438 675.65625 225.238281 673.425781 224.714844 Z M 1467.007812 393.5625 C 1464.867188 393.058594 1462.550781 393.261719 1460.417969 394.277344 C 1455.417969 396.660156 1453.285156 402.644531 1455.652344 407.652344 C 1458.960938 414.609375 1462.328125 421.871094 1465.664062 429.207031 C 1467.953125 434.257812 1473.902344 436.492188 1478.953125 434.203125 C 1484.003906 431.902344 1486.238281 425.953125 1483.949219 420.902344 C 1480.566406 413.460938 1477.148438 406.105469 1473.792969 399.039062 C 1472.4375 396.164062 1469.875 394.234375 1467.007812 393.5625 Z M 770.949219 166.277344 C 768.773438 165.769531 766.40625 165.980469 764.234375 167.046875 C 746.371094 175.820312 729.273438 185.039062 713.433594 194.445312 C 708.664062 197.277344 707.09375 203.429688 709.925781 208.199219 C 712.761719 212.96875 718.914062 214.539062 723.683594 211.707031 C 739.074219 202.582031 755.691406 193.609375 773.09375 185.066406 C 778.070312 182.628906 780.128906 176.601562 777.679688 171.632812 C 776.296875 168.824219 773.78125 166.941406 770.949219 166.277344 Z M 1413.199219 293.398438 C 1410.707031 292.816406 1407.992188 293.179688 1405.648438 294.621094 C 1400.921875 297.527344 1399.449219 303.714844 1402.355469 308.441406 C 1411.75 323.703125 1421.148438 340.128906 1430.308594 357.269531 C 1432.933594 362.160156 1439.011719 364.003906 1443.898438 361.386719 C 1448.792969 358.777344 1450.640625 352.6875 1448.023438 347.800781 C 1438.671875 330.304688 1429.054688 313.523438 1419.453125 297.914062 C 1418.003906 295.546875 1415.714844 293.988281 1413.199219 293.398438 Z M 876.101562 122.628906 C 874.304688 122.207031 872.378906 122.285156 870.507812 122.929688 C 852.160156 129.355469 834.078125 136.230469 816.757812 143.390625 C 811.625 145.503906 809.195312 151.382812 811.308594 156.5 C 813.425781 161.628906 819.300781 164.0625 824.421875 161.945312 C 841.394531 154.933594 859.136719 148.183594 877.140625 141.890625 C 882.375 140.054688 885.128906 134.335938 883.308594 129.09375 C 882.125 125.730469 879.335938 123.386719 876.101562 122.628906 Z M 1346.015625 201.792969 C 1342.929688 201.070312 1339.5625 201.820312 1337.027344 204.082031 C 1332.898438 207.773438 1332.539062 214.125 1336.230469 218.257812 C 1348.058594 231.496094 1359.828125 246.148438 1371.210938 261.792969 C 1374.484375 266.28125 1380.761719 267.269531 1385.234375 264.007812 C 1389.722656 260.734375 1390.710938 254.457031 1387.449219 249.972656 C 1375.675781 233.792969 1363.476562 218.617188 1351.203125 204.878906 C 1349.773438 203.285156 1347.953125 202.246094 1346.015625 201.792969 Z M 985.539062 91.066406 C 984.136719 90.738281 982.632812 90.710938 981.125 91.042969 C 978.859375 91.53125 976.570312 92.039062 974.285156 92.5625 C 959.300781 95.996094 942.351562 100.433594 925.28125 105.40625 C 919.957031 106.957031 916.902344 112.523438 918.441406 117.855469 C 919.992188 123.175781 925.566406 126.234375 930.890625 124.683594 C 947.597656 119.828125 964.152344 115.488281 978.769531 112.136719 C 980.988281 111.625 983.195312 111.132812 985.394531 110.664062 C 990.808594 109.480469 994.246094 104.136719 993.078125 98.714844 C 992.226562 94.804688 989.191406 91.921875 985.539062 91.066406 Z M 1260.003906 127.953125 C 1255.9375 127.003906 1251.539062 128.675781 1249.195312 132.425781 C 1246.269531 137.117188 1247.703125 143.3125 1252.40625 146.25 C 1267.523438 155.683594 1282.453125 166.753906 1296.753906 179.167969 C 1300.949219 182.789062 1307.285156 182.339844 1310.917969 178.160156 C 1314.550781 173.96875 1314.101562 167.632812 1309.910156 163.996094 C 1294.816406 150.90625 1279.042969 139.207031 1263.035156 129.214844 C 1262.070312 128.617188 1261.050781 128.199219 1260.003906 127.953125 Z M 1098.476562 79.726562 C 1097.839844 79.578125 1097.183594 79.496094 1096.507812 79.46875 C 1077.832031 78.867188 1058.253906 79.617188 1038.324219 81.710938 C 1032.808594 82.292969 1028.804688 87.242188 1029.390625 92.746094 C 1029.972656 98.261719 1034.90625 102.261719 1040.421875 101.691406 C 1059.453125 99.683594 1078.089844 98.957031 1095.839844 99.542969 C 1101.398438 99.714844 1106.027344 95.375 1106.207031 89.832031 C 1106.371094 84.972656 1103.039062 80.792969 1098.476562 79.726562 Z M 1165.035156 88.328125 C 1161.597656 87.523438 1158.097656 86.765625 1154.613281 86.070312 C 1149.175781 84.976562 1143.882812 88.503906 1142.792969 93.929688 C 1141.710938 99.378906 1145.238281 104.621094 1150.667969 105.75 C 1168.777344 109.375 1186.484375 114.625 1203.375 121.351562 C 1208.5 123.414062 1214.355469 120.90625 1216.40625 115.746094 C 1218.464844 110.59375 1215.953125 104.757812 1210.800781 102.703125 C 1196.039062 96.820312 1180.640625 91.980469 1165.035156 88.328125 " fill-opacity="1" fill-rule="nonzero"/></g></g></g><g clip-path="url(#3686f2c9f4)"><g clip-path="url(#377e5cccac)"><g clip-path="url(#d26e58b857)"><path fill="#8fc29f" d="M 14.296875 258.003906 L 112.867188 283.414062 C 121.066406 285.527344 127.539062 276.390625 122.824219 269.355469 L 96.390625 229.875 C 95.285156 228.234375 94.746094 226.28125 94.835938 224.3125 L 97.09375 176.859375 C 97.488281 168.390625 87.238281 163.914062 81.296875 169.957031 L 10.015625 242.628906 C 5.046875 247.699219 7.421875 256.238281 14.296875 258.003906 " fill-opacity="1" fill-rule="nonzero"/></g></g></g></svg>