<svg xmlns="http://www.w3.org/2000/svg" xmlns:xlink="http://www.w3.org/1999/xlink" width="3000" zoomAndPan="magnify" viewBox="0 0 2250 2250.000011" height="3000" preserveAspectRatio="xMidYMid meet" version="1.0"><path fill="#ebeced" d="M 1124.226562 19.871094 C 511.21875 21.933594 21.277344 520.371094 29.285156 1133.332031 C 29.464844 1148.722656 29.972656 1164.101562 30.800781 1179.472656 C 31.632812 1194.84375 32.785156 1210.1875 34.265625 1225.507812 C 35.742188 1240.828125 37.542969 1256.113281 39.667969 1271.359375 C 41.789062 1286.601562 44.234375 1301.796875 47 1316.9375 C 49.761719 1332.082031 52.84375 1347.15625 56.246094 1362.167969 C 59.648438 1377.179688 63.363281 1392.113281 67.394531 1406.96875 C 71.425781 1421.824219 75.765625 1436.589844 80.421875 1451.261719 C 85.074219 1465.933594 90.035156 1480.5 95.304688 1494.960938 C 100.574219 1509.421875 106.144531 1523.769531 112.019531 1537.996094 C 117.894531 1552.222656 124.066406 1566.320312 130.535156 1580.285156 C 137.003906 1594.253906 143.765625 1608.078125 150.820312 1621.757812 C 157.871094 1635.441406 165.210938 1648.964844 172.832031 1662.339844 C 180.457031 1675.710938 188.359375 1688.914062 196.539062 1701.953125 C 204.722656 1714.992188 213.175781 1727.851562 221.898438 1740.53125 C 230.621094 1753.214844 239.609375 1765.707031 248.859375 1778.007812 C 258.109375 1790.308594 267.617188 1802.410156 277.378906 1814.3125 C 278.910156 1816.1875 280.371094 1818.121094 281.757812 1820.105469 C 283.144531 1822.09375 284.457031 1824.128906 285.695312 1826.210938 C 286.929688 1828.296875 288.085938 1830.425781 289.164062 1832.59375 C 290.242188 1834.765625 291.234375 1836.972656 292.148438 1839.21875 C 293.058594 1841.460938 293.886719 1843.738281 294.628906 1846.046875 C 295.371094 1848.351562 296.023438 1850.683594 296.59375 1853.039062 C 297.160156 1855.394531 297.640625 1857.769531 298.03125 1860.160156 C 298.421875 1862.550781 298.722656 1864.953125 298.933594 1867.367188 C 299.144531 1869.78125 299.265625 1872.199219 299.296875 1874.621094 C 299.328125 1877.046875 299.265625 1879.464844 299.117188 1881.882812 C 298.964844 1884.300781 298.726562 1886.710938 298.394531 1889.113281 C 298.066406 1891.511719 297.644531 1893.898438 297.136719 1896.265625 C 296.628906 1898.636719 296.03125 1900.984375 295.347656 1903.308594 C 294.664062 1905.632812 293.894531 1907.929688 293.039062 1910.195312 C 292.183594 1912.460938 291.246094 1914.695312 290.222656 1916.890625 C 289.203125 1919.089844 288.097656 1921.242188 286.917969 1923.359375 L 192.261719 2092.976562 C 166.019531 2140.003906 208.777344 2195.605469 260.96875 2182.316406 L 581.558594 2100.695312 C 587.105469 2099.285156 592.734375 2098.371094 598.441406 2097.953125 C 604.148438 2097.535156 609.851562 2097.617188 615.542969 2098.203125 C 621.238281 2098.785156 626.835938 2099.863281 632.339844 2101.429688 C 637.84375 2103 643.167969 2105.035156 648.316406 2107.542969 C 665.972656 2116.121094 683.851562 2124.21875 701.945312 2131.835938 C 720.039062 2139.449219 738.324219 2146.574219 756.804688 2153.203125 C 775.28125 2159.835938 793.925781 2165.964844 812.734375 2171.589844 C 831.542969 2177.21875 850.488281 2182.335938 869.570312 2186.941406 C 888.65625 2191.546875 907.847656 2195.636719 927.152344 2199.210938 C 946.457031 2202.78125 965.84375 2205.832031 985.3125 2208.363281 C 1004.78125 2210.890625 1024.304688 2212.894531 1043.878906 2214.371094 C 1063.457031 2215.847656 1083.058594 2216.796875 1102.683594 2217.21875 C 1719.011719 2231.15625 2224.894531 1738.671875 2226.820312 1122.191406 C 2228.726562 512.460938 1733.992188 17.816406 1124.226562 19.871094 Z M 1128.007812 2082.105469 C 1112.242188 2082.105469 1096.484375 2081.71875 1080.734375 2080.945312 C 1064.988281 2080.171875 1049.269531 2079.011719 1033.578125 2077.46875 C 1017.886719 2075.921875 1002.242188 2073.992188 986.644531 2071.679688 C 971.050781 2069.367188 955.519531 2066.671875 940.054688 2063.597656 C 924.589844 2060.519531 909.210938 2057.066406 893.917969 2053.238281 C 878.625 2049.40625 863.433594 2045.203125 848.34375 2040.625 C 833.253906 2036.046875 818.289062 2031.105469 803.441406 2025.792969 C 788.597656 2020.480469 773.890625 2014.808594 759.324219 2008.773438 C 744.757812 2002.742188 730.347656 1996.355469 716.09375 1989.613281 C 701.839844 1982.871094 687.761719 1975.785156 673.855469 1968.351562 C 659.953125 1960.921875 646.238281 1953.152344 632.710938 1945.046875 C 619.1875 1936.9375 605.871094 1928.507812 592.761719 1919.746094 C 579.652344 1910.988281 566.765625 1901.910156 554.101562 1892.519531 C 541.4375 1883.125 529.011719 1873.429688 516.820312 1863.425781 C 504.632812 1853.421875 492.699219 1843.128906 481.015625 1832.539062 C 469.332031 1821.949219 457.917969 1811.082031 446.769531 1799.933594 C 435.617188 1788.785156 424.75 1777.367188 414.160156 1765.683594 C 403.574219 1754.003906 393.277344 1742.066406 383.273438 1729.878906 C 373.273438 1717.691406 363.574219 1705.265625 354.183594 1692.601562 C 344.789062 1679.9375 335.714844 1667.050781 326.953125 1653.9375 C 318.195312 1640.828125 309.761719 1627.511719 301.65625 1613.988281 C 293.550781 1600.464844 285.78125 1586.75 278.347656 1572.84375 C 270.914062 1558.9375 263.828125 1544.859375 257.085938 1530.605469 C 250.34375 1516.351562 243.957031 1501.941406 237.921875 1487.375 C 231.890625 1472.808594 226.21875 1458.101562 220.90625 1443.253906 C 215.59375 1428.410156 210.648438 1413.441406 206.070312 1398.355469 C 201.496094 1383.265625 197.292969 1368.074219 193.460938 1352.78125 C 189.628906 1337.484375 186.175781 1322.105469 183.097656 1306.640625 C 180.023438 1291.175781 177.328125 1275.648438 175.015625 1260.050781 C 172.703125 1244.453125 170.773438 1228.808594 169.226562 1213.117188 C 167.679688 1197.425781 166.519531 1181.707031 165.746094 1165.957031 C 164.972656 1150.210938 164.585938 1134.453125 164.585938 1118.683594 C 164.585938 586.609375 595.933594 155.265625 1128.011719 155.265625 C 1658.03125 155.265625 2088.074219 583.265625 2091.410156 1112.488281 C 2094.757812 1643.507812 1659.042969 2082.105469 1128.007812 2082.105469 Z M 1128.007812 2082.105469 " fill-opacity="1" fill-rule="nonzero"/><path fill="#ebeced" d="M 955.820312 650.300781 L 956.265625 651.183594 L 1013.726562 765.144531 C 1015.269531 768.203125 1016.683594 771.320312 1017.976562 774.496094 C 1019.269531 777.667969 1020.429688 780.890625 1021.460938 784.15625 C 1022.492188 787.425781 1023.394531 790.726562 1024.160156 794.066406 C 1024.925781 797.40625 1025.554688 800.773438 1026.050781 804.164062 C 1026.542969 807.554688 1026.902344 810.957031 1027.125 814.378906 C 1027.34375 817.796875 1027.425781 821.21875 1027.371094 824.644531 C 1027.316406 828.070312 1027.125 831.488281 1026.792969 834.898438 C 1026.460938 838.308594 1025.996094 841.703125 1025.390625 845.074219 C 1024.789062 848.449219 1024.050781 851.789062 1023.175781 855.105469 C 1022.304688 858.417969 1021.300781 861.691406 1020.164062 864.921875 C 1019.027344 868.15625 1017.761719 871.335938 1016.371094 874.46875 C 1014.976562 877.597656 1013.460938 880.667969 1011.820312 883.675781 C 1010.179688 886.683594 1008.421875 889.621094 1006.546875 892.488281 C 1004.667969 895.355469 1002.679688 898.144531 1000.578125 900.847656 C 998.476562 903.554688 996.269531 906.171875 993.960938 908.703125 C 991.648438 911.230469 989.238281 913.664062 986.730469 915.996094 C 984.230469 918.316406 981.832031 920.726562 979.527344 923.238281 C 977.226562 925.746094 975.027344 928.347656 972.933594 931.03125 C 970.835938 933.71875 968.851562 936.484375 966.980469 939.328125 C 965.105469 942.175781 963.351562 945.089844 961.710938 948.078125 C 960.074219 951.0625 958.554688 954.109375 957.164062 957.21875 C 955.769531 960.324219 954.5 963.484375 953.359375 966.695312 C 952.21875 969.902344 951.207031 973.152344 950.328125 976.445312 C 949.445312 979.734375 948.699219 983.054688 948.085938 986.40625 C 947.472656 989.757812 946.992188 993.128906 946.648438 996.515625 C 946.308594 999.90625 946.101562 1003.304688 946.027344 1006.707031 C 945.957031 1010.113281 946.023438 1013.515625 946.226562 1016.917969 C 946.429688 1020.316406 946.765625 1023.703125 947.242188 1027.078125 C 947.714844 1030.453125 948.324219 1033.800781 949.066406 1037.125 C 949.808594 1040.449219 950.683594 1043.738281 951.691406 1046.992188 C 952.695312 1050.246094 953.832031 1053.457031 955.097656 1056.617188 C 956.359375 1059.78125 957.75 1062.890625 959.261719 1065.941406 C 993.757812 1135.207031 1053.519531 1230.683594 1144.71875 1299.574219 C 1147.253906 1301.5 1149.859375 1303.328125 1152.535156 1305.0625 C 1155.210938 1306.792969 1157.945312 1308.421875 1160.742188 1309.953125 C 1163.535156 1311.480469 1166.386719 1312.902344 1169.289062 1314.214844 C 1172.1875 1315.53125 1175.136719 1316.734375 1178.128906 1317.832031 C 1181.121094 1318.925781 1184.148438 1319.90625 1187.214844 1320.777344 C 1190.28125 1321.644531 1193.375 1322.398438 1196.496094 1323.035156 C 1199.617188 1323.671875 1202.757812 1324.195312 1205.917969 1324.597656 C 1209.078125 1325 1212.25 1325.285156 1215.433594 1325.449219 C 1218.613281 1325.617188 1221.796875 1325.664062 1224.980469 1325.59375 C 1228.167969 1325.523438 1231.347656 1325.332031 1234.515625 1325.023438 C 1237.6875 1324.714844 1240.84375 1324.289062 1243.980469 1323.742188 C 1247.121094 1323.199219 1250.234375 1322.539062 1253.324219 1321.761719 C 1256.414062 1320.984375 1259.472656 1320.09375 1262.496094 1319.089844 C 1265.519531 1318.082031 1268.5 1316.96875 1271.441406 1315.738281 C 1274.382812 1314.511719 1277.269531 1313.175781 1280.109375 1311.730469 C 1282.953125 1310.289062 1285.734375 1308.742188 1288.457031 1307.089844 L 1325.460938 1284.570312 C 1329.597656 1282.054688 1333.863281 1279.78125 1338.257812 1277.75 C 1342.652344 1275.71875 1347.148438 1273.941406 1351.746094 1272.421875 C 1356.34375 1270.902344 1361.011719 1269.648438 1365.75 1268.660156 C 1370.492188 1267.671875 1375.269531 1266.953125 1380.09375 1266.511719 C 1384.914062 1266.066406 1389.746094 1265.898438 1394.585938 1266.003906 C 1399.425781 1266.109375 1404.246094 1266.488281 1409.042969 1267.140625 C 1413.839844 1267.796875 1418.582031 1268.71875 1423.273438 1269.914062 C 1427.96875 1271.109375 1432.578125 1272.5625 1437.101562 1274.28125 L 1584.1875 1330.210938 C 1586.140625 1330.953125 1588.074219 1331.742188 1589.988281 1332.578125 C 1591.902344 1333.414062 1593.792969 1334.300781 1595.664062 1335.230469 C 1597.53125 1336.160156 1599.378906 1337.132812 1601.199219 1338.15625 C 1603.023438 1339.175781 1604.820312 1340.238281 1606.589844 1341.347656 C 1608.359375 1342.457031 1610.101562 1343.609375 1611.8125 1344.804688 C 1613.527344 1345.996094 1615.210938 1347.234375 1616.863281 1348.511719 C 1618.515625 1349.785156 1620.136719 1351.101562 1621.722656 1352.460938 C 1623.3125 1353.816406 1624.863281 1355.210938 1626.382812 1356.644531 C 1627.902344 1358.078125 1629.386719 1359.546875 1630.835938 1361.050781 C 1632.28125 1362.558594 1633.691406 1364.097656 1635.0625 1365.671875 C 1636.433594 1367.246094 1637.765625 1368.855469 1639.058594 1370.492188 C 1640.351562 1372.132812 1641.605469 1373.804688 1642.816406 1375.507812 C 1644.027344 1377.207031 1645.195312 1378.9375 1646.320312 1380.699219 C 1647.445312 1382.457031 1648.527344 1384.242188 1649.566406 1386.054688 C 1650.605469 1387.867188 1651.597656 1389.703125 1652.546875 1391.5625 C 1653.492188 1393.425781 1654.394531 1395.308594 1655.25 1397.210938 C 1656.105469 1399.117188 1656.914062 1401.042969 1657.675781 1402.988281 C 1658.4375 1404.933594 1659.148438 1406.894531 1659.8125 1408.875 C 1660.480469 1410.855469 1661.09375 1412.847656 1661.660156 1414.859375 C 1662.226562 1416.871094 1662.746094 1418.890625 1663.210938 1420.929688 C 1663.679688 1422.964844 1664.097656 1425.007812 1664.464844 1427.066406 C 1664.832031 1429.121094 1665.148438 1431.183594 1665.414062 1433.257812 C 1665.679688 1435.328125 1665.894531 1437.402344 1666.058594 1439.484375 C 1666.222656 1441.566406 1666.332031 1443.652344 1666.394531 1445.742188 C 1666.457031 1447.828125 1666.464844 1449.914062 1666.425781 1452.003906 C 1666.382812 1454.09375 1666.292969 1456.175781 1666.148438 1458.261719 C 1666.003906 1460.34375 1665.808594 1462.421875 1665.5625 1464.496094 C 1665.320312 1466.570312 1665.023438 1468.636719 1664.675781 1470.695312 C 1664.328125 1472.757812 1663.929688 1474.804688 1663.484375 1476.847656 C 1663.035156 1478.886719 1662.539062 1480.914062 1661.992188 1482.929688 C 1661.441406 1484.945312 1660.847656 1486.945312 1660.199219 1488.929688 C 1659.554688 1490.917969 1658.863281 1492.886719 1658.121094 1494.839844 C 1656.402344 1499.332031 1654.441406 1503.714844 1652.238281 1507.988281 L 1611.480469 1586.992188 C 1610.660156 1588.585938 1609.804688 1590.164062 1608.914062 1591.71875 C 1608.023438 1593.277344 1607.101562 1594.816406 1606.148438 1596.335938 C 1605.191406 1597.855469 1604.207031 1599.351562 1603.1875 1600.828125 C 1602.171875 1602.304688 1601.125 1603.761719 1600.042969 1605.195312 C 1598.964844 1606.628906 1597.855469 1608.035156 1596.71875 1609.421875 C 1595.582031 1610.808594 1594.414062 1612.171875 1593.21875 1613.507812 C 1592.023438 1614.847656 1590.800781 1616.15625 1589.546875 1617.441406 C 1588.296875 1618.730469 1587.019531 1619.988281 1585.714844 1621.21875 C 1584.410156 1622.449219 1583.082031 1623.65625 1581.726562 1624.832031 C 1580.375 1626.007812 1578.996094 1627.152344 1577.589844 1628.269531 C 1576.1875 1629.386719 1574.761719 1630.476562 1573.3125 1631.53125 C 1571.863281 1632.589844 1570.394531 1633.617188 1568.902344 1634.613281 C 1567.410156 1635.609375 1565.898438 1636.570312 1564.363281 1637.503906 C 1562.832031 1638.4375 1561.28125 1639.335938 1559.710938 1640.203125 C 1558.140625 1641.066406 1556.550781 1641.902344 1554.945312 1642.699219 C 1553.339844 1643.5 1551.71875 1644.265625 1550.078125 1644.996094 C 1548.441406 1645.726562 1546.789062 1646.425781 1545.121094 1647.085938 C 1543.453125 1647.746094 1541.773438 1648.375 1540.082031 1648.964844 C 1538.386719 1649.554688 1536.679688 1650.109375 1534.964844 1650.628906 C 1533.246094 1651.148438 1531.519531 1651.628906 1529.78125 1652.074219 C 1528.042969 1652.523438 1526.300781 1652.929688 1524.542969 1653.304688 C 1522.789062 1653.675781 1521.027344 1654.011719 1519.257812 1654.308594 C 1517.488281 1654.609375 1515.714844 1654.867188 1513.9375 1655.09375 C 1512.15625 1655.316406 1510.371094 1655.5 1508.585938 1655.648438 C 1506.796875 1655.796875 1505.007812 1655.910156 1503.214844 1655.980469 C 1501.421875 1656.054688 1499.628906 1656.089844 1497.835938 1656.085938 C 1496.042969 1656.082031 1494.25 1656.042969 1492.457031 1655.964844 C 1490.664062 1655.886719 1488.875 1655.769531 1487.089844 1655.617188 C 1485.300781 1655.464844 1483.519531 1655.273438 1481.738281 1655.042969 C 1479.960938 1654.816406 1478.1875 1654.546875 1476.417969 1654.246094 C 1474.648438 1653.941406 1472.890625 1653.601562 1471.136719 1653.222656 C 1469.382812 1652.84375 1467.636719 1652.429688 1465.902344 1651.980469 C 1234.890625 1592.210938 684.328125 1384.464844 639.972656 756.25 C 639.753906 753.152344 639.644531 750.054688 639.652344 746.949219 C 639.660156 743.84375 639.777344 740.746094 640.011719 737.648438 C 640.246094 734.554688 640.589844 731.472656 641.046875 728.402344 C 641.503906 725.332031 642.074219 722.28125 642.753906 719.253906 C 643.433594 716.226562 644.222656 713.226562 645.125 710.253906 C 646.023438 707.285156 647.027344 704.351562 648.140625 701.453125 C 649.253906 698.554688 650.472656 695.703125 651.792969 692.890625 C 653.113281 690.082031 654.535156 687.328125 656.058594 684.621094 C 657.578125 681.917969 659.199219 679.269531 660.914062 676.683594 C 662.628906 674.097656 664.4375 671.574219 666.335938 669.121094 C 668.234375 666.664062 670.21875 664.28125 672.292969 661.96875 C 674.367188 659.660156 676.519531 657.429688 678.753906 655.273438 C 680.992188 653.121094 683.300781 651.050781 685.6875 649.066406 C 688.074219 647.082031 690.53125 645.1875 693.054688 643.382812 C 695.582031 641.578125 698.167969 639.867188 700.816406 638.25 C 703.46875 636.632812 706.171875 635.113281 708.933594 633.695312 L 783.953125 595.15625 C 785.8125 594.199219 787.691406 593.292969 789.59375 592.429688 C 791.496094 591.566406 793.417969 590.75 795.359375 589.980469 C 797.300781 589.214844 799.261719 588.492188 801.238281 587.820312 C 803.21875 587.148438 805.210938 586.523438 807.21875 585.949219 C 809.226562 585.375 811.246094 584.851562 813.28125 584.375 C 815.316406 583.902344 817.359375 583.476562 819.414062 583.101562 C 821.46875 582.726562 823.53125 582.402344 825.605469 582.128906 C 827.675781 581.855469 829.75 581.632812 831.832031 581.460938 C 833.914062 581.289062 836 581.167969 838.085938 581.097656 C 840.175781 581.03125 842.261719 581.011719 844.351562 581.046875 C 846.4375 581.078125 848.527344 581.164062 850.609375 581.300781 C 852.695312 581.433594 854.773438 581.621094 856.847656 581.859375 C 858.925781 582.097656 860.992188 582.386719 863.054688 582.726562 C 865.113281 583.066406 867.167969 583.453125 869.207031 583.894531 C 871.25 584.335938 873.28125 584.824219 875.296875 585.363281 C 877.316406 585.902344 879.320312 586.492188 881.308594 587.132812 C 883.296875 587.769531 885.269531 588.457031 887.222656 589.191406 C 889.179688 589.925781 891.117188 590.707031 893.03125 591.539062 C 894.949219 592.367188 896.84375 593.246094 898.71875 594.167969 C 900.59375 595.089844 902.441406 596.058594 904.269531 597.074219 C 906.09375 598.085938 907.894531 599.144531 909.667969 600.246094 C 911.441406 601.351562 913.1875 602.496094 914.90625 603.683594 C 916.625 604.871094 918.3125 606.101562 919.96875 607.371094 C 921.628906 608.644531 923.253906 609.953125 924.847656 611.304688 C 926.441406 612.65625 928 614.042969 929.523438 615.472656 C 931.050781 616.898438 932.539062 618.363281 933.992188 619.863281 C 935.445312 621.363281 936.859375 622.898438 938.238281 624.46875 C 939.617188 626.039062 940.953125 627.640625 942.253906 629.277344 C 943.554688 630.914062 944.8125 632.578125 946.027344 634.277344 C 947.246094 635.972656 948.421875 637.699219 949.554688 639.457031 C 950.6875 641.210938 951.773438 642.992188 952.820312 644.800781 C 953.863281 646.609375 954.863281 648.441406 955.820312 650.300781 Z M 955.820312 650.300781 " fill-opacity="1" fill-rule="nonzero"/></svg>