<svg xmlns="http://www.w3.org/2000/svg" xmlns:xlink="http://www.w3.org/1999/xlink" width="2000" zoomAndPan="magnify" viewBox="0 0 1500 1049.999947" height="1400" preserveAspectRatio="xMidYMid meet" version="1.0"><defs><clipPath id="b12f9e1fba"><path d="M 4 149 L 1497 149 L 1497 630 L 4 630 Z M 4 149 " clip-rule="nonzero"/></clipPath><clipPath id="c880cf89ed"><path d="M 457.007812 -287.617188 L 1499.859375 568.5 L 1043.011719 1124.996094 L 0.160156 268.882812 Z M 457.007812 -287.617188 " clip-rule="nonzero"/></clipPath><clipPath id="6a55d48251"><path d="M 457.007812 -287.617188 L 1499.859375 568.5 L 1043.011719 1124.996094 L 0.160156 268.882812 Z M 457.007812 -287.617188 " clip-rule="nonzero"/></clipPath></defs><g clip-path="url(#b12f9e1fba)"><g clip-path="url(#c880cf89ed)"><g clip-path="url(#6a55d48251)"><path fill="#96d2bc" d="M 539.359375 537.253906 L 533.160156 548.195312 C 525.851562 543.941406 518.886719 539.265625 512.394531 533.589844 C 506.113281 528.082031 500.304688 521.574219 495.425781 514.78125 L 505.617188 507.460938 C 510.039062 513.535156 515.015625 519.359375 520.671875 524.355469 C 526.710938 529.3125 532.882812 533.679688 539.359375 537.253906 Z M 585.785156 552.015625 C 578.222656 551.039062 570.625 549.679688 563.332031 547.527344 L 559.730469 559.554688 C 567.820312 562.011719 576.003906 563.503906 584.152344 564.617188 C 592.46875 565.523438 600.714844 565.667969 609.128906 565.605469 L 608.484375 553.230469 C 601 553.007812 593.515625 552.789062 585.785156 552.015625 Z M 634.703125 549.3125 L 637.242188 561.503906 C 645.296875 559.753906 653.28125 557.246094 661.015625 554.1875 C 668.753906 551.128906 676.453125 547.695312 683.492188 543.367188 L 677.277344 532.6875 C 664.261719 540.472656 649.679688 545.925781 634.703125 549.3125 Z M 731.269531 497.902344 C 733.414062 494.4375 735.355469 490.804688 737.671875 487.132812 L 726.765625 481.3125 C 724.789062 484.570312 723.023438 487.996094 721.046875 491.253906 L 714.320312 500.71875 C 709.746094 506.71875 704.75 512.378906 698.925781 517.351562 L 707.304688 526.671875 C 713.644531 521.070312 719.359375 514.960938 724.238281 508.164062 Z M 743.046875 434.738281 C 742.453125 438.433594 741.308594 442.375 740.335938 446.105469 C 739.765625 448.074219 739.574219 450.007812 738.964844 451.597656 L 737.003906 456.960938 L 748.6875 460.976562 L 750.785156 455.03125 C 751.355469 453.058594 751.925781 451.089844 752.289062 448.949219 C 753.226562 444.835938 754.371094 440.898438 755.132812 436.996094 L 757.183594 424.738281 C 757.738281 420.664062 757.914062 416.625 758.265625 412.382812 L 745.945312 411.679688 C 745.5625 415.546875 745.554688 419.375 744.960938 423.066406 Z M 757.09375 375.179688 L 756.585938 371.976562 L 754.636719 359.917969 C 752.886719 351.859375 751.136719 343.804688 748.460938 336.027344 L 736.589844 339.875 C 739.230469 347.269531 740.5625 354.988281 742.445312 362.457031 L 744.152344 373.964844 L 744.621094 376.789062 L 744.917969 379.820312 L 745.308594 385.714844 L 757.644531 384.691406 L 757.050781 378.628906 Z M 685.75 254.925781 L 694.652344 246.207031 C 683.148438 234.324219 670.65625 224.066406 657.273438 214.476562 L 650.039062 224.566406 C 663.003906 233.816406 675.078125 243.726562 685.75 254.925781 Z M 633.953125 199.164062 C 619.75 190.988281 604.90625 184.027344 589.960938 178.035156 L 585.355469 189.585938 C 599.921875 195.617188 613.972656 202.273438 627.753906 210.105469 Z M 516.523438 157.125 L 514.09375 169.417969 C 529.496094 172.304688 544.804688 176.160156 559.804688 180.808594 L 563.617188 168.953125 C 548.199219 163.960938 532.472656 159.765625 516.523438 157.125 Z M 464.945312 150.328125 L 440.726562 149.265625 L 440.40625 161.546875 L 464.035156 162.476562 C 471.9375 163.039062 479.707031 164.1875 487.4375 164.960938 L 488.898438 152.566406 C 480.996094 152.003906 473.058594 151.0625 464.945312 150.328125 Z M 400.96875 149.730469 L 388.800781 150.546875 L 376.632812 151.359375 C 374.734375 151.546875 372.632812 151.5625 370.566406 151.957031 L 364.5 152.550781 L 365.902344 164.855469 L 371.757812 164.085938 C 373.652344 163.902344 375.757812 163.886719 377.652344 163.699219 L 401.230469 162.144531 C 405.230469 161.945312 409.058594 161.949219 413.058594 161.75 L 412.792969 149.335938 C 408.792969 149.535156 404.757812 149.359375 400.96875 149.730469 Z M 313.203125 160.277344 C 309.242188 160.855469 305.316406 161.816406 301.183594 162.605469 L 289.375 165.105469 L 291.914062 177.296875 L 303.722656 174.796875 C 307.648438 173.835938 311.402344 173.085938 315.363281 172.503906 L 338.890625 168.46875 L 337.109375 156.203125 Z M 216.226562 184.164062 L 219.902344 196.242188 C 235.148438 191.683594 250.394531 187.121094 265.921875 183.488281 L 262.832031 171.546875 C 246.925781 175.214844 231.679688 179.777344 216.226562 184.164062 Z M 167.304688 200.460938 C 159.703125 202.929688 152.136719 205.777344 144.570312 208.628906 L 148.964844 220.253906 C 156.53125 217.402344 163.929688 214.761719 171.324219 212.121094 C 178.925781 209.652344 186.285156 206.632812 193.925781 204.539062 L 190.078125 192.667969 C 182.476562 195.140625 174.910156 197.988281 167.304688 200.460938 Z M 96.457031 227.328125 L 74.175781 236.21875 L 78.953125 247.804688 L 101.027344 238.746094 L 123.136719 230.066406 L 118.742188 218.441406 Z M 4.519531 265.460938 L 9.464844 276.839844 L 53.75 258.132812 L 48.972656 246.542969 Z M 1489.703125 560.15625 L 1469.441406 572.101562 C 1462.535156 575.84375 1455.386719 579.035156 1448.273438 582.605469 L 1453.601562 593.945312 C 1460.882812 590.167969 1468.203125 586.769531 1475.488281 582.988281 L 1496.675781 570.761719 Z M 1400.847656 600.472656 C 1393.414062 602.734375 1385.734375 604.445312 1378.09375 606.539062 L 1381.011719 618.691406 C 1388.824219 616.390625 1396.882812 614.640625 1404.695312 612.34375 C 1412.46875 609.664062 1420.070312 607.195312 1427.847656 604.515625 L 1423.449219 592.890625 C 1416.054688 595.53125 1408.449219 598.003906 1400.847656 600.472656 Z M 1328.21875 615.078125 C 1324.257812 615.660156 1320.429688 615.652344 1316.429688 615.855469 L 1304.640625 616.632812 L 1305.285156 629.007812 L 1317.453125 628.195312 C 1321.453125 627.992188 1325.449219 627.789062 1329.414062 627.210938 C 1337.542969 626.21875 1345.675781 625.226562 1353.601562 624.066406 L 1351.441406 611.839844 C 1344.105469 613.132812 1336.144531 613.917969 1328.21875 615.078125 Z M 1254.421875 615.828125 C 1250.386719 615.652344 1246.691406 615.058594 1242.617188 614.503906 L 1230.984375 612.964844 L 1229.144531 625.394531 L 1241.15625 626.894531 C 1245.230469 627.449219 1249.304688 628.007812 1253.339844 628.183594 C 1261.414062 628.539062 1269.523438 629.273438 1277.59375 629.625 L 1277.917969 617.347656 C 1270.015625 616.785156 1262.113281 616.222656 1254.421875 615.828125 Z M 1192.921875 605.417969 L 1181.519531 602.328125 C 1177.785156 601.355469 1173.847656 600.214844 1170.285156 599.03125 L 1159.015625 595.355469 L 1154.824219 607.25 L 1166.304688 611.097656 C 1170.074219 612.449219 1174.011719 613.59375 1177.953125 614.738281 L 1189.738281 617.789062 C 1193.675781 618.933594 1197.617188 620.074219 1201.691406 620.632812 L 1204.324219 608.507812 C 1200.421875 607.742188 1196.652344 606.390625 1192.921875 605.417969 Z M 1092.1875 563.84375 L 1085.78125 574.617188 C 1099.8125 582.996094 1114.316406 590.375 1128.953125 597.164062 L 1134.148438 585.746094 C 1119.507812 578.953125 1105.589844 571.710938 1092.1875 563.84375 Z M 1050.3125 535.042969 C 1044.105469 530.296875 1037.6875 525.375 1031.652344 520.421875 L 1023.789062 529.996094 C 1030.035156 535.125 1036.453125 540.042969 1042.867188 544.960938 C 1049.457031 549.671875 1055.871094 554.59375 1062.628906 559.09375 L 1069.660156 548.835938 C 1062.9375 544.710938 1056.523438 539.792969 1050.3125 535.042969 Z M 967.167969 479.683594 C 978.769531 490.597656 990.746094 501.476562 1002.898438 512.148438 L 1010.964844 502.742188 C 999.027344 492.242188 987.253906 481.535156 975.65625 470.617188 Z M 912.503906 427.835938 C 924.101562 438.75 935.703125 449.667969 947.132812 460.792969 L 955.617188 451.726562 C 944.019531 440.8125 932.589844 429.6875 920.78125 418.601562 Z M 863.648438 368.910156 L 855.996094 378.65625 C 868.449219 388.53125 880.5625 398.824219 892.332031 409.53125 L 900.609375 400.296875 C 888.632812 389.417969 876.3125 378.957031 863.648438 368.910156 Z M 834.324219 362.609375 L 841.558594 352.519531 C 828.386719 343.097656 814.699219 334.300781 800.707031 326.296875 L 794.507812 337.242188 C 808.085938 344.902344 821.355469 353.355469 834.324219 362.609375 Z M 765.425781 321.730469 L 770.652344 324.277344 L 776.050781 313.03125 L 770.617188 310.3125 L 753.800781 302.777344 L 742.285156 298.550781 C 740.316406 297.980469 738.515625 297.199219 736.71875 296.421875 L 731.394531 294.839844 L 727.238281 287.59375 C 725.347656 283.949219 722.738281 280.761719 720.46875 277.15625 C 718.03125 273.761719 715.972656 270.328125 713.359375 267.140625 L 703.589844 274.796875 C 705.988281 277.816406 708.222656 281.042969 710.453125 284.265625 C 712.683594 287.492188 715.085938 290.507812 716.765625 293.980469 L 722.53125 303.941406 L 727.574219 314.351562 L 737.644531 309.726562 C 737.851562 309.898438 738.230469 309.859375 738.4375 310.03125 L 749.367188 314.121094 L 760.160156 318.800781 Z M 683.957031 297.015625 L 689.789062 297.972656 C 693.695312 298.738281 697.558594 299.121094 701.292969 300.09375 L 703.925781 287.96875 C 700.023438 287.207031 695.949219 286.648438 691.839844 285.714844 L 685.796875 284.585938 C 683.863281 284.394531 681.722656 284.03125 679.617188 284.046875 L 667.261719 282.964844 L 654.984375 282.640625 L 654.867188 295.089844 L 666.5625 295.28125 L 678.15625 296.4375 C 680.089844 296.628906 681.816406 296.652344 683.957031 297.015625 Z M 628.21875 296.5625 L 626.609375 284.089844 C 610.175781 286.28125 594.003906 291.125 578.980469 297.960938 L 584.097656 309.132812 C 598.265625 303.335938 612.921875 298.640625 628.21875 296.5625 Z M 560.878906 322.132812 L 554.113281 311.699219 C 540.453125 320.695312 527.53125 331.34375 516.480469 343.53125 L 525.542969 352.015625 C 535.910156 340.664062 547.941406 330.675781 560.878906 322.132812 Z M 509.210938 372.761719 L 498.78125 365.941406 C 494.105469 372.90625 490.230469 380.179688 486.558594 387.621094 C 483.097656 395.234375 480.222656 402.980469 477.765625 411.066406 L 489.753906 414.289062 C 491.910156 406.996094 494.648438 399.839844 497.597656 392.851562 C 501.34375 386.164062 504.878906 379.3125 509.210938 372.761719 Z M 485.769531 439.945312 L 473.28125 439.449219 C 472.964844 447.902344 473.40625 456.277344 474.8125 464.753906 C 476.394531 473.019531 478.351562 481.246094 481.617188 489.152344 L 493.203125 484.378906 C 490.21875 477.398438 488.546875 470.101562 487.042969 462.59375 C 485.917969 455.046875 485.378906 447.636719 485.769531 439.945312 Z M 485.769531 439.945312 " fill-opacity="1" fill-rule="nonzero"/></g></g></g></svg>