<svg xmlns="http://www.w3.org/2000/svg" xmlns:xlink="http://www.w3.org/1999/xlink" width="3000" zoomAndPan="magnify" viewBox="0 0 2250 2250.000011" height="3000" preserveAspectRatio="xMidYMid meet" version="1.0"><path fill="#2d5a50" d="M 245.21875 557.789062 L 1083.023438 374.527344 C 1085.367188 374.015625 1087.722656 373.5625 1090.089844 373.164062 C 1092.457031 372.765625 1094.832031 372.421875 1097.214844 372.136719 C 1099.597656 371.855469 1101.984375 371.628906 1104.378906 371.457031 C 1106.773438 371.289062 1109.171875 371.175781 1111.570312 371.121094 C 1113.96875 371.066406 1116.371094 371.070312 1118.769531 371.132812 C 1121.167969 371.191406 1123.5625 371.3125 1125.957031 371.488281 C 1128.351562 371.664062 1130.738281 371.898438 1133.121094 372.1875 C 1135.503906 372.480469 1137.878906 372.828125 1140.242188 373.234375 C 1142.609375 373.636719 1144.964844 374.101562 1147.308594 374.617188 C 1149.652344 375.136719 1151.980469 375.710938 1154.296875 376.339844 C 1156.613281 376.972656 1158.910156 377.65625 1161.195312 378.398438 C 1163.476562 379.140625 1165.742188 379.933594 1167.984375 380.785156 C 1170.230469 381.632812 1172.453125 382.539062 1174.652344 383.492188 C 1176.855469 384.449219 1179.03125 385.460938 1181.183594 386.519531 C 1183.335938 387.582031 1185.464844 388.695312 1187.5625 389.859375 C 1189.660156 391.019531 1191.730469 392.234375 1193.773438 393.496094 C 1195.8125 394.761719 1197.824219 396.070312 1199.800781 397.429688 C 1201.777344 398.792969 1203.722656 400.199219 1205.632812 401.652344 C 1207.542969 403.105469 1209.417969 404.601562 1211.253906 406.144531 C 1213.09375 407.6875 1214.894531 409.273438 1216.65625 410.902344 C 1218.417969 412.535156 1220.140625 414.207031 1221.820312 415.917969 C 1223.5 417.628906 1225.140625 419.382812 1226.738281 421.171875 C 1228.335938 422.964844 1229.890625 424.792969 1231.398438 426.660156 C 1232.90625 428.523438 1234.371094 430.425781 1235.789062 432.363281 C 1237.207031 434.300781 1238.578125 436.269531 1239.902344 438.269531 C 1241.226562 440.273438 1242.5 442.304688 1243.726562 444.371094 C 1244.949219 446.433594 1246.125 448.523438 1247.25 450.644531 C 1248.375 452.765625 1249.449219 454.910156 1250.472656 457.082031 C 1251.492188 459.253906 1252.460938 461.449219 1253.378906 463.667969 C 1254.296875 465.886719 1255.15625 468.125 1255.964844 470.382812 C 1256.777344 472.644531 1257.53125 474.921875 1258.226562 477.21875 C 1258.929688 479.511719 1259.570312 481.824219 1260.160156 484.152344 L 1555.535156 1653.230469 C 1556.148438 1655.65625 1556.699219 1658.097656 1557.191406 1660.550781 C 1557.679688 1663.007812 1558.109375 1665.472656 1558.476562 1667.949219 C 1558.84375 1670.425781 1559.148438 1672.910156 1559.394531 1675.398438 C 1559.636719 1677.890625 1559.816406 1680.386719 1559.933594 1682.886719 C 1560.050781 1685.386719 1560.105469 1687.890625 1560.097656 1690.394531 C 1560.089844 1692.898438 1560.019531 1695.398438 1559.886719 1697.898438 C 1559.753906 1700.398438 1559.558594 1702.890625 1559.300781 1705.382812 C 1559.039062 1707.871094 1558.71875 1710.355469 1558.335938 1712.828125 C 1557.953125 1715.300781 1557.507812 1717.765625 1557.003906 1720.214844 C 1556.496094 1722.667969 1555.929688 1725.105469 1555.300781 1727.527344 C 1554.671875 1729.949219 1553.984375 1732.355469 1553.234375 1734.746094 C 1552.484375 1737.132812 1551.675781 1739.5 1550.808594 1741.851562 C 1549.941406 1744.199219 1549.015625 1746.523438 1548.03125 1748.824219 C 1547.046875 1751.125 1546.003906 1753.402344 1544.90625 1755.648438 C 1543.808594 1757.898438 1542.652344 1760.121094 1541.441406 1762.3125 C 1540.234375 1764.503906 1538.96875 1766.664062 1537.652344 1768.789062 C 1536.332031 1770.917969 1534.960938 1773.011719 1533.539062 1775.070312 C 1532.117188 1777.128906 1530.640625 1779.152344 1529.117188 1781.136719 C 1527.59375 1783.125 1526.019531 1785.070312 1524.398438 1786.976562 C 1522.773438 1788.882812 1521.105469 1790.746094 1519.390625 1792.570312 C 1517.675781 1794.394531 1515.914062 1796.171875 1514.109375 1797.90625 C 1512.304688 1799.640625 1510.457031 1801.328125 1508.566406 1802.972656 C 1506.679688 1804.613281 1504.75 1806.207031 1502.78125 1807.753906 C 1500.808594 1809.296875 1498.804688 1810.792969 1496.757812 1812.238281 C 1494.714844 1813.679688 1492.636719 1815.074219 1490.519531 1816.414062 C 1488.40625 1817.753906 1486.261719 1819.039062 1484.082031 1820.273438 C 1481.902344 1821.503906 1479.695312 1822.683594 1477.457031 1823.804688 C 1475.21875 1824.925781 1472.953125 1825.992188 1470.664062 1827 C 1468.371094 1828.007812 1466.058594 1828.957031 1463.71875 1829.851562 C 1461.378906 1830.742188 1459.019531 1831.578125 1456.640625 1832.351562 C 1454.257812 1833.125 1451.859375 1833.839844 1449.445312 1834.492188 C 1447.027344 1835.144531 1444.597656 1835.738281 1442.148438 1836.269531 L 616.632812 2015.550781 C 614.304688 2016.050781 611.96875 2016.5 609.621094 2016.890625 C 607.273438 2017.28125 604.917969 2017.617188 602.554688 2017.894531 C 600.191406 2018.175781 597.820312 2018.398438 595.445312 2018.5625 C 593.074219 2018.730469 590.695312 2018.835938 588.316406 2018.890625 C 585.9375 2018.941406 583.558594 2018.9375 581.179688 2018.878906 C 578.796875 2018.816406 576.421875 2018.699219 574.046875 2018.523438 C 571.675781 2018.351562 569.304688 2018.121094 566.945312 2017.832031 C 564.582031 2017.546875 562.226562 2017.203125 559.878906 2016.800781 C 557.535156 2016.402344 555.199219 2015.945312 552.875 2015.4375 C 550.546875 2014.925781 548.238281 2014.359375 545.941406 2013.738281 C 543.640625 2013.117188 541.359375 2012.441406 539.09375 2011.710938 C 536.828125 2010.980469 534.582031 2010.199219 532.355469 2009.359375 C 530.125 2008.523438 527.921875 2007.632812 525.734375 2006.691406 C 523.546875 2005.75 521.386719 2004.753906 519.25 2003.710938 C 517.109375 2002.664062 515 2001.570312 512.914062 2000.421875 C 510.828125 1999.277344 508.769531 1998.082031 506.738281 1996.835938 C 504.710938 1995.59375 502.710938 1994.300781 500.746094 1992.960938 C 498.777344 1991.621094 496.84375 1990.234375 494.941406 1988.804688 C 493.042969 1987.371094 491.175781 1985.894531 489.34375 1984.375 C 487.511719 1982.851562 485.71875 1981.289062 483.964844 1979.683594 C 482.207031 1978.078125 480.492188 1976.429688 478.8125 1974.742188 C 477.136719 1973.054688 475.5 1971.324219 473.902344 1969.558594 C 472.308594 1967.792969 470.753906 1965.988281 469.246094 1964.148438 C 467.738281 1962.308594 466.273438 1960.433594 464.851562 1958.523438 C 463.433594 1956.613281 462.058594 1954.671875 460.730469 1952.695312 C 459.40625 1950.71875 458.125 1948.710938 456.894531 1946.675781 C 455.664062 1944.636719 454.480469 1942.574219 453.347656 1940.480469 C 452.214844 1938.386719 451.132812 1936.269531 450.097656 1934.125 C 449.066406 1931.980469 448.085938 1929.8125 447.160156 1927.621094 C 446.230469 1925.425781 445.355469 1923.214844 444.53125 1920.980469 C 443.707031 1918.75 442.9375 1916.496094 442.222656 1914.226562 C 441.507812 1911.957031 440.84375 1909.671875 440.238281 1907.371094 L 132.445312 742.3125 C 131.804688 739.878906 131.222656 737.433594 130.703125 734.96875 C 130.179688 732.503906 129.722656 730.03125 129.328125 727.542969 C 128.933594 725.058594 128.601562 722.5625 128.332031 720.058594 C 128.0625 717.554688 127.859375 715.046875 127.714844 712.535156 C 127.574219 710.019531 127.492188 707.503906 127.476562 704.988281 C 127.460938 702.46875 127.511719 699.953125 127.621094 697.4375 C 127.734375 694.921875 127.90625 692.410156 128.144531 689.90625 C 128.382812 687.398438 128.683594 684.898438 129.046875 682.410156 C 129.410156 679.917969 129.839844 677.4375 130.328125 674.96875 C 130.816406 672.496094 131.367188 670.042969 131.980469 667.601562 C 132.59375 665.15625 133.269531 662.734375 134.003906 660.324219 C 134.738281 657.917969 135.535156 655.53125 136.390625 653.160156 C 137.246094 650.792969 138.160156 648.449219 139.132812 646.128906 C 140.109375 643.804688 141.140625 641.511719 142.230469 639.242188 C 143.320312 636.972656 144.464844 634.730469 145.667969 632.519531 C 146.871094 630.308594 148.128906 628.128906 149.441406 625.980469 C 150.757812 623.832031 152.121094 621.71875 153.542969 619.636719 C 154.960938 617.558594 156.433594 615.515625 157.953125 613.511719 C 159.476562 611.503906 161.050781 609.539062 162.671875 607.613281 C 164.292969 605.6875 165.960938 603.804688 167.679688 601.964844 C 169.394531 600.121094 171.15625 598.324219 172.964844 596.570312 C 174.773438 594.820312 176.621094 593.113281 178.515625 591.453125 C 180.410156 589.792969 182.34375 588.183594 184.320312 586.621094 C 186.292969 585.058594 188.304688 583.550781 190.355469 582.089844 C 192.40625 580.628906 194.496094 579.222656 196.617188 577.867188 C 198.738281 576.511719 200.894531 575.210938 203.082031 573.964844 C 205.269531 572.71875 207.484375 571.527344 209.734375 570.394531 C 211.980469 569.257812 214.253906 568.179688 216.558594 567.160156 C 218.859375 566.140625 221.183594 565.179688 223.535156 564.277344 C 225.886719 563.375 228.257812 562.535156 230.652344 561.75 C 233.042969 560.96875 235.453125 560.246094 237.882812 559.585938 C 240.3125 558.925781 242.757812 558.324219 245.21875 557.789062 Z M 245.21875 557.789062 " fill-opacity="1" fill-rule="nonzero"/><path fill="#96d2bc" d="M 290.257812 455.597656 L 1128.148438 272.339844 C 1130.492188 271.828125 1132.851562 271.371094 1135.21875 270.972656 C 1137.585938 270.570312 1139.960938 270.230469 1142.34375 269.945312 C 1144.726562 269.660156 1147.117188 269.433594 1149.511719 269.261719 C 1151.90625 269.089844 1154.300781 268.980469 1156.703125 268.925781 C 1159.101562 268.871094 1161.5 268.871094 1163.902344 268.933594 C 1166.300781 268.992188 1168.699219 269.109375 1171.09375 269.285156 C 1173.488281 269.460938 1175.875 269.695312 1178.257812 269.988281 C 1180.640625 270.277344 1183.015625 270.625 1185.382812 271.03125 C 1187.75 271.433594 1190.105469 271.894531 1192.449219 272.414062 C 1194.792969 272.933594 1197.121094 273.507812 1199.4375 274.136719 C 1201.753906 274.765625 1204.054688 275.453125 1206.339844 276.191406 C 1208.621094 276.933594 1210.886719 277.726562 1213.132812 278.578125 C 1215.375 279.425781 1217.601562 280.332031 1219.800781 281.285156 C 1222.003906 282.242188 1224.179688 283.253906 1226.335938 284.3125 C 1228.488281 285.375 1230.613281 286.488281 1232.714844 287.652344 C 1234.8125 288.8125 1236.882812 290.027344 1238.925781 291.289062 C 1240.96875 292.554688 1242.976562 293.863281 1244.957031 295.226562 C 1246.933594 296.585938 1248.878906 297.992188 1250.789062 299.445312 C 1252.699219 300.898438 1254.574219 302.394531 1256.414062 303.9375 C 1258.253906 305.480469 1260.054688 307.070312 1261.816406 308.699219 C 1263.578125 310.328125 1265.300781 312 1266.980469 313.714844 C 1268.664062 315.425781 1270.304688 317.179688 1271.902344 318.96875 C 1273.5 320.761719 1275.054688 322.589844 1276.5625 324.457031 C 1278.074219 326.324219 1279.535156 328.226562 1280.957031 330.160156 C 1282.375 332.097656 1283.746094 334.066406 1285.066406 336.070312 C 1286.390625 338.074219 1287.667969 340.105469 1288.890625 342.171875 C 1290.117188 344.234375 1291.292969 346.328125 1292.417969 348.449219 C 1293.542969 350.566406 1294.617188 352.714844 1295.640625 354.886719 C 1296.664062 357.058594 1297.632812 359.253906 1298.546875 361.472656 C 1299.464844 363.691406 1300.328125 365.929688 1301.136719 368.191406 C 1301.945312 370.453125 1302.699219 372.730469 1303.398438 375.027344 C 1304.097656 377.324219 1304.742188 379.636719 1305.328125 381.960938 L 1600.703125 1551.039062 C 1601.316406 1553.46875 1601.867188 1555.910156 1602.359375 1558.363281 C 1602.851562 1560.816406 1603.28125 1563.285156 1603.644531 1565.757812 C 1604.011719 1568.234375 1604.320312 1570.71875 1604.5625 1573.210938 C 1604.804688 1575.703125 1604.984375 1578.199219 1605.101562 1580.699219 C 1605.21875 1583.199219 1605.273438 1585.703125 1605.265625 1588.203125 C 1605.257812 1590.707031 1605.1875 1593.210938 1605.050781 1595.707031 C 1604.917969 1598.207031 1604.722656 1600.703125 1604.464844 1603.191406 C 1604.203125 1605.683594 1603.882812 1608.164062 1603.5 1610.636719 C 1603.117188 1613.113281 1602.671875 1615.574219 1602.164062 1618.027344 C 1601.660156 1620.476562 1601.089844 1622.914062 1600.460938 1625.339844 C 1599.832031 1627.761719 1599.144531 1630.167969 1598.394531 1632.554688 C 1597.644531 1634.941406 1596.835938 1637.3125 1595.96875 1639.660156 C 1595.097656 1642.007812 1594.171875 1644.332031 1593.1875 1646.632812 C 1592.203125 1648.933594 1591.160156 1651.207031 1590.0625 1653.457031 C 1588.960938 1655.707031 1587.808594 1657.925781 1586.597656 1660.117188 C 1585.386719 1662.308594 1584.121094 1664.46875 1582.800781 1666.597656 C 1581.484375 1668.722656 1580.113281 1670.816406 1578.6875 1672.875 C 1577.265625 1674.933594 1575.789062 1676.957031 1574.265625 1678.941406 C 1572.738281 1680.925781 1571.164062 1682.871094 1569.542969 1684.777344 C 1567.921875 1686.683594 1566.25 1688.546875 1564.535156 1690.371094 C 1562.816406 1692.191406 1561.058594 1693.972656 1559.25 1695.703125 C 1557.445312 1697.4375 1555.597656 1699.125 1553.707031 1700.765625 C 1551.816406 1702.410156 1549.886719 1704 1547.917969 1705.546875 C 1545.949219 1707.089844 1543.941406 1708.585938 1541.894531 1710.027344 C 1539.851562 1711.472656 1537.769531 1712.863281 1535.65625 1714.203125 C 1533.542969 1715.542969 1531.394531 1716.828125 1529.214844 1718.058594 C 1527.035156 1719.292969 1524.828125 1720.46875 1522.589844 1721.589844 C 1520.351562 1722.710938 1518.085938 1723.773438 1515.792969 1724.78125 C 1513.503906 1725.789062 1511.1875 1726.738281 1508.847656 1727.628906 C 1506.507812 1728.519531 1504.148438 1729.351562 1501.765625 1730.125 C 1499.386719 1730.898438 1496.988281 1731.609375 1494.570312 1732.261719 C 1492.152344 1732.914062 1489.722656 1733.507812 1487.277344 1734.039062 L 661.800781 1913.316406 C 659.476562 1913.820312 657.136719 1914.273438 654.789062 1914.664062 C 652.441406 1915.058594 650.085938 1915.394531 647.71875 1915.675781 C 645.355469 1915.957031 642.988281 1916.183594 640.609375 1916.351562 C 638.234375 1916.519531 635.859375 1916.632812 633.476562 1916.6875 C 631.097656 1916.742188 628.71875 1916.738281 626.335938 1916.679688 C 623.957031 1916.621094 621.578125 1916.503906 619.203125 1916.332031 C 616.828125 1916.160156 614.460938 1915.933594 612.09375 1915.644531 C 609.730469 1915.359375 607.375 1915.019531 605.027344 1914.621094 C 602.679688 1914.222656 600.34375 1913.769531 598.019531 1913.261719 C 595.691406 1912.753906 593.378906 1912.1875 591.082031 1911.566406 C 588.78125 1910.949219 586.5 1910.273438 584.230469 1909.546875 C 581.964844 1908.816406 579.714844 1908.035156 577.488281 1907.199219 C 575.257812 1906.363281 573.046875 1905.476562 570.859375 1904.535156 C 568.675781 1903.59375 566.511719 1902.601562 564.371094 1901.554688 C 562.230469 1900.511719 560.117188 1899.417969 558.03125 1898.273438 C 555.941406 1897.128906 553.882812 1895.933594 551.851562 1894.6875 C 549.820312 1893.445312 547.820312 1892.15625 545.851562 1890.816406 C 543.882812 1889.476562 541.949219 1888.089844 540.042969 1886.660156 C 538.140625 1885.230469 536.273438 1883.753906 534.441406 1882.234375 C 532.609375 1880.714844 530.8125 1879.148438 529.054688 1877.542969 C 527.296875 1875.9375 525.578125 1874.292969 523.898438 1872.601562 C 522.21875 1870.914062 520.582031 1869.1875 518.984375 1867.421875 C 517.386719 1865.65625 515.835938 1863.851562 514.324219 1862.011719 C 512.8125 1860.171875 511.347656 1858.296875 509.925781 1856.386719 C 508.503906 1854.476562 507.128906 1852.535156 505.800781 1850.558594 C 504.46875 1848.582031 503.1875 1846.574219 501.957031 1844.539062 C 500.722656 1842.5 499.539062 1840.4375 498.40625 1838.34375 C 497.269531 1836.25 496.1875 1834.128906 495.152344 1831.984375 C 494.121094 1829.839844 493.136719 1827.671875 492.207031 1825.480469 C 491.277344 1823.285156 490.402344 1821.074219 489.578125 1818.839844 C 488.753906 1816.605469 487.980469 1814.355469 487.265625 1812.082031 C 486.546875 1809.8125 485.886719 1807.527344 485.277344 1805.222656 L 177.441406 640.082031 C 176.796875 637.648438 176.21875 635.199219 175.699219 632.734375 C 175.179688 630.273438 174.722656 627.796875 174.328125 625.308594 C 173.933594 622.824219 173.605469 620.328125 173.335938 617.824219 C 173.066406 615.324219 172.863281 612.816406 172.71875 610.300781 C 172.578125 607.789062 172.5 605.273438 172.484375 602.753906 C 172.472656 600.238281 172.519531 597.722656 172.632812 595.207031 C 172.742188 592.691406 172.917969 590.179688 173.15625 587.675781 C 173.394531 585.167969 173.699219 582.671875 174.0625 580.179688 C 174.425781 577.6875 174.855469 575.207031 175.34375 572.738281 C 175.835938 570.269531 176.386719 567.8125 177 565.371094 C 177.613281 562.929688 178.289062 560.507812 179.023438 558.097656 C 179.761719 555.691406 180.554688 553.304688 181.414062 550.9375 C 182.269531 548.570312 183.183594 546.226562 184.160156 543.90625 C 185.132812 541.582031 186.167969 539.289062 187.257812 537.019531 C 188.347656 534.75 189.496094 532.511719 190.699219 530.300781 C 191.902344 528.085938 193.160156 525.910156 194.472656 523.761719 C 195.785156 521.613281 197.152344 519.5 198.574219 517.421875 C 199.992188 515.34375 201.464844 513.300781 202.988281 511.296875 C 204.511719 509.292969 206.082031 507.328125 207.703125 505.402344 C 209.328125 503.476562 210.996094 501.59375 212.714844 499.753906 C 214.429688 497.910156 216.191406 496.113281 218 494.363281 C 219.808594 492.609375 221.660156 490.90625 223.550781 489.246094 C 225.445312 487.585938 227.378906 485.976562 229.355469 484.417969 C 231.332031 482.855469 233.34375 481.34375 235.394531 479.886719 C 237.445312 478.425781 239.53125 477.019531 241.65625 475.664062 C 243.777344 474.308594 245.929688 473.007812 248.117188 471.765625 C 250.304688 470.519531 252.523438 469.328125 254.773438 468.195312 C 257.019531 467.0625 259.292969 465.984375 261.597656 464.964844 C 263.898438 463.945312 266.222656 462.984375 268.574219 462.085938 C 270.925781 461.183594 273.296875 460.339844 275.691406 459.558594 C 278.082031 458.777344 280.492188 458.054688 282.921875 457.394531 C 285.351562 456.734375 287.796875 456.136719 290.257812 455.597656 Z M 290.257812 455.597656 " fill-opacity="1" fill-rule="nonzero"/><path fill="#ebf3fc" d="M 373.46875 347.8125 L 1211.359375 164.597656 C 1213.707031 164.082031 1216.0625 163.625 1218.429688 163.226562 C 1220.796875 162.828125 1223.171875 162.484375 1225.554688 162.199219 C 1227.9375 161.910156 1230.324219 161.683594 1232.71875 161.511719 C 1235.113281 161.339844 1237.511719 161.226562 1239.910156 161.171875 C 1242.3125 161.117188 1244.710938 161.117188 1247.109375 161.179688 C 1249.511719 161.238281 1251.90625 161.355469 1254.300781 161.53125 C 1256.695312 161.707031 1259.082031 161.9375 1261.464844 162.226562 C 1263.847656 162.519531 1266.222656 162.863281 1268.589844 163.269531 C 1270.957031 163.671875 1273.3125 164.132812 1275.65625 164.652344 C 1278 165.167969 1280.328125 165.742188 1282.644531 166.371094 C 1284.960938 167 1287.261719 167.6875 1289.546875 168.425781 C 1291.828125 169.167969 1294.09375 169.960938 1296.339844 170.808594 C 1298.585938 171.660156 1300.808594 172.5625 1303.011719 173.519531 C 1305.210938 174.472656 1307.390625 175.480469 1309.542969 176.542969 C 1311.695312 177.605469 1313.824219 178.714844 1315.921875 179.878906 C 1318.023438 181.042969 1320.09375 182.253906 1322.132812 183.515625 C 1324.175781 184.78125 1326.1875 186.089844 1328.164062 187.449219 C 1330.144531 188.808594 1332.085938 190.214844 1334 191.667969 C 1335.910156 193.121094 1337.785156 194.617188 1339.625 196.160156 C 1341.460938 197.703125 1343.261719 199.292969 1345.023438 200.921875 C 1346.789062 202.550781 1348.511719 204.222656 1350.191406 205.933594 C 1351.875 207.644531 1353.515625 209.398438 1355.113281 211.191406 C 1356.710938 212.980469 1358.265625 214.808594 1359.773438 216.675781 C 1361.285156 218.542969 1362.75 220.441406 1364.167969 222.378906 C 1365.585938 224.316406 1366.957031 226.285156 1368.28125 228.289062 C 1369.605469 230.289062 1370.878906 232.324219 1372.105469 234.386719 C 1373.332031 236.449219 1374.507812 238.542969 1375.632812 240.664062 C 1376.757812 242.785156 1377.832031 244.929688 1378.851562 247.101562 C 1379.875 249.273438 1380.84375 251.46875 1381.761719 253.6875 C 1382.675781 255.90625 1383.539062 258.144531 1384.347656 260.40625 C 1385.15625 262.664062 1385.910156 264.945312 1386.609375 267.242188 C 1387.308594 269.535156 1387.953125 271.847656 1388.542969 274.175781 L 1683.914062 1443.296875 C 1684.527344 1445.726562 1685.082031 1448.164062 1685.570312 1450.621094 C 1686.0625 1453.074219 1686.492188 1455.539062 1686.859375 1458.015625 C 1687.226562 1460.492188 1687.53125 1462.976562 1687.773438 1465.46875 C 1688.015625 1467.960938 1688.195312 1470.457031 1688.3125 1472.957031 C 1688.429688 1475.457031 1688.484375 1477.957031 1688.476562 1480.460938 C 1688.46875 1482.964844 1688.398438 1485.464844 1688.265625 1487.964844 C 1688.128906 1490.464844 1687.933594 1492.960938 1687.675781 1495.449219 C 1687.417969 1497.941406 1687.097656 1500.421875 1686.710938 1502.894531 C 1686.328125 1505.371094 1685.882812 1507.832031 1685.378906 1510.285156 C 1684.871094 1512.734375 1684.304688 1515.171875 1683.675781 1517.59375 C 1683.046875 1520.019531 1682.355469 1522.421875 1681.605469 1524.8125 C 1680.855469 1527.199219 1680.046875 1529.566406 1679.179688 1531.917969 C 1678.3125 1534.265625 1677.382812 1536.589844 1676.398438 1538.890625 C 1675.414062 1541.191406 1674.371094 1543.464844 1673.273438 1545.714844 C 1672.171875 1547.964844 1671.019531 1550.183594 1669.808594 1552.375 C 1668.597656 1554.566406 1667.332031 1556.726562 1666.015625 1558.855469 C 1664.695312 1560.980469 1663.324219 1563.074219 1661.898438 1565.132812 C 1660.476562 1567.191406 1659.003906 1569.214844 1657.476562 1571.199219 C 1655.953125 1573.183594 1654.378906 1575.128906 1652.753906 1577.035156 C 1651.132812 1578.941406 1649.460938 1580.804688 1647.746094 1582.628906 C 1646.03125 1584.449219 1644.269531 1586.226562 1642.464844 1587.960938 C 1640.65625 1589.695312 1638.808594 1591.382812 1636.921875 1593.023438 C 1635.03125 1594.664062 1633.101562 1596.257812 1631.128906 1597.804688 C 1629.160156 1599.347656 1627.152344 1600.839844 1625.109375 1602.285156 C 1623.0625 1603.730469 1620.984375 1605.121094 1618.867188 1606.460938 C 1616.753906 1607.800781 1614.605469 1609.085938 1612.425781 1610.316406 C 1610.246094 1611.546875 1608.039062 1612.726562 1605.800781 1613.847656 C 1603.5625 1614.964844 1601.296875 1616.03125 1599.007812 1617.039062 C 1596.714844 1618.046875 1594.398438 1618.996094 1592.058594 1619.886719 C 1589.71875 1620.777344 1587.359375 1621.609375 1584.980469 1622.382812 C 1582.597656 1623.15625 1580.199219 1623.867188 1577.78125 1624.519531 C 1575.367188 1625.171875 1572.933594 1625.765625 1570.488281 1626.292969 L 745.015625 1805.574219 C 742.6875 1806.082031 740.351562 1806.53125 738 1806.925781 C 735.652344 1807.320312 733.296875 1807.660156 730.933594 1807.941406 C 728.566406 1808.226562 726.195312 1808.449219 723.820312 1808.621094 C 721.445312 1808.789062 719.066406 1808.902344 716.6875 1808.957031 C 714.304688 1809.011719 711.925781 1809.011719 709.546875 1808.953125 C 707.164062 1808.894531 704.785156 1808.78125 702.410156 1808.609375 C 700.035156 1808.4375 697.664062 1808.210938 695.300781 1807.925781 C 692.9375 1807.640625 690.582031 1807.300781 688.234375 1806.902344 C 685.882812 1806.507812 683.546875 1806.054688 681.222656 1805.542969 C 678.894531 1805.035156 676.582031 1804.472656 674.28125 1803.851562 C 671.984375 1803.234375 669.699219 1802.558594 667.433594 1801.832031 C 665.164062 1801.101562 662.914062 1800.320312 660.683594 1799.484375 C 658.457031 1798.648438 656.246094 1797.761719 654.058594 1796.820312 C 651.871094 1795.878906 649.707031 1794.886719 647.566406 1793.84375 C 645.425781 1792.796875 643.3125 1791.703125 641.226562 1790.558594 C 639.136719 1789.414062 637.078125 1788.21875 635.046875 1786.976562 C 633.015625 1785.730469 631.015625 1784.441406 629.046875 1783.101562 C 627.078125 1781.761719 625.140625 1780.375 623.238281 1778.945312 C 621.335938 1777.511719 619.464844 1776.039062 617.632812 1774.515625 C 615.800781 1772.996094 614.007812 1771.433594 612.246094 1769.824219 C 610.488281 1768.21875 608.769531 1766.570312 607.09375 1764.882812 C 605.414062 1763.195312 603.773438 1761.46875 602.175781 1759.699219 C 600.582031 1757.933594 599.027344 1756.128906 597.515625 1754.289062 C 596.003906 1752.449219 594.539062 1750.574219 593.117188 1748.660156 C 591.695312 1746.75 590.324219 1744.804688 588.992188 1742.828125 C 587.664062 1740.855469 586.386719 1738.847656 585.152344 1736.808594 C 583.921875 1734.769531 582.738281 1732.707031 581.601562 1730.609375 C 580.46875 1728.515625 579.386719 1726.398438 578.351562 1724.25 C 577.320312 1722.105469 576.339844 1719.9375 575.410156 1717.742188 C 574.480469 1715.550781 573.605469 1713.335938 572.78125 1711.101562 C 571.957031 1708.867188 571.1875 1706.613281 570.472656 1704.34375 C 569.757812 1702.070312 569.097656 1699.785156 568.488281 1697.480469 L 260.652344 532.339844 C 260.011719 529.902344 259.429688 527.453125 258.914062 524.992188 C 258.394531 522.527344 257.9375 520.050781 257.546875 517.566406 C 257.152344 515.078125 256.820312 512.585938 256.554688 510.082031 C 256.285156 507.578125 256.082031 505.070312 255.941406 502.554688 C 255.800781 500.042969 255.722656 497.527344 255.707031 495.007812 C 255.691406 492.492188 255.742188 489.976562 255.855469 487.460938 C 255.964844 484.945312 256.140625 482.433594 256.382812 479.929688 C 256.621094 477.421875 256.921875 474.921875 257.289062 472.433594 C 257.652344 469.941406 258.078125 467.460938 258.570312 464.992188 C 259.058594 462.523438 259.613281 460.066406 260.226562 457.625 C 260.839844 455.183594 261.515625 452.757812 262.25 450.351562 C 262.988281 447.945312 263.78125 445.554688 264.640625 443.1875 C 265.496094 440.820312 266.410156 438.476562 267.386719 436.15625 C 268.359375 433.835938 269.394531 431.539062 270.484375 429.269531 C 271.574219 427 272.722656 424.761719 273.925781 422.550781 C 275.128906 420.339844 276.386719 418.160156 277.699219 416.011719 C 279.011719 413.863281 280.378906 411.75 281.796875 409.667969 C 283.21875 407.589844 284.691406 405.550781 286.210938 403.542969 C 287.734375 401.539062 289.308594 399.574219 290.929688 397.648438 C 292.550781 395.722656 294.21875 393.839844 295.9375 391.996094 C 297.652344 390.15625 299.414062 388.359375 301.222656 386.605469 C 303.03125 384.855469 304.878906 383.148438 306.773438 381.488281 C 308.667969 379.828125 310.601562 378.21875 312.574219 376.65625 C 314.550781 375.09375 316.5625 373.582031 318.613281 372.125 C 320.664062 370.664062 322.75 369.253906 324.871094 367.898438 C 326.996094 366.546875 329.148438 365.242188 331.335938 363.996094 C 333.523438 362.75 335.742188 361.558594 337.988281 360.425781 C 340.234375 359.289062 342.507812 358.214844 344.8125 357.191406 C 347.113281 356.171875 349.4375 355.210938 351.789062 354.308594 C 354.140625 353.40625 356.511719 352.5625 358.902344 351.78125 C 361.296875 350.996094 363.707031 350.273438 366.136719 349.613281 C 368.566406 348.949219 371.007812 348.351562 373.46875 347.8125 Z M 373.46875 347.8125 " fill-opacity="1" fill-rule="nonzero"/><path fill="#96d2bc" d="M 481.210938 520.183594 C 480.296875 520.171875 479.390625 520.078125 478.492188 519.898438 C 477.59375 519.722656 476.71875 519.46875 475.863281 519.132812 C 475.011719 518.800781 474.199219 518.390625 473.417969 517.910156 C 472.640625 517.425781 471.914062 516.878906 471.234375 516.265625 C 470.554688 515.648438 469.9375 514.980469 469.378906 514.253906 C 468.820312 513.527344 468.332031 512.757812 467.914062 511.945312 C 467.496094 511.128906 467.15625 510.285156 466.890625 509.410156 C 466.625 508.53125 466.441406 507.640625 466.335938 506.730469 C 466.230469 505.820312 466.210938 504.910156 466.273438 503.996094 C 466.332031 503.082031 466.476562 502.179688 466.699219 501.292969 C 466.925781 500.40625 467.226562 499.546875 467.605469 498.714844 C 467.988281 497.878906 468.4375 497.089844 468.960938 496.335938 C 469.484375 495.585938 470.070312 494.886719 470.722656 494.242188 C 471.371094 493.597656 472.074219 493.015625 472.828125 492.5 C 473.582031 491.980469 474.378906 491.535156 475.214844 491.160156 C 476.046875 490.789062 476.910156 490.492188 477.800781 490.273438 L 1171.613281 327.785156 C 1172.5625 327.609375 1173.523438 327.523438 1174.488281 327.53125 C 1175.453125 327.539062 1176.410156 327.636719 1177.359375 327.828125 C 1178.308594 328.015625 1179.226562 328.292969 1180.121094 328.660156 C 1181.015625 329.027344 1181.867188 329.472656 1182.679688 330.003906 C 1183.488281 330.53125 1184.238281 331.132812 1184.933594 331.804688 C 1185.628906 332.476562 1186.25 333.207031 1186.804688 334 C 1187.359375 334.792969 1187.835938 335.628906 1188.230469 336.511719 C 1188.625 337.394531 1188.929688 338.304688 1189.152344 339.246094 C 1189.371094 340.1875 1189.5 341.140625 1189.539062 342.105469 C 1189.578125 343.070312 1189.523438 344.03125 1189.378906 344.988281 C 1189.234375 345.945312 1189 346.875 1188.675781 347.789062 C 1188.351562 348.699219 1187.945312 349.570312 1187.453125 350.402344 C 1186.960938 351.234375 1186.398438 352.015625 1185.757812 352.738281 C 1185.121094 353.464844 1184.417969 354.121094 1183.652344 354.710938 C 1182.886719 355.304688 1182.074219 355.816406 1181.210938 356.25 C 1180.347656 356.6875 1179.453125 357.035156 1178.523438 357.300781 L 484.710938 519.65625 C 483.5625 519.964844 482.398438 520.136719 481.210938 520.183594 Z M 481.210938 520.183594 " fill-opacity="1" fill-rule="nonzero"/><path fill="#96d2bc" d="M 570.195312 682.671875 C 569.28125 682.660156 568.371094 682.566406 567.472656 682.390625 C 566.574219 682.210938 565.699219 681.957031 564.847656 681.621094 C 563.996094 681.289062 563.179688 680.878906 562.402344 680.398438 C 561.625 679.914062 560.898438 679.367188 560.21875 678.753906 C 559.539062 678.140625 558.921875 677.46875 558.363281 676.742188 C 557.804688 676.015625 557.316406 675.246094 556.898438 674.433594 C 556.480469 673.617188 556.140625 672.773438 555.875 671.898438 C 555.609375 671.019531 555.421875 670.128906 555.320312 669.21875 C 555.214844 668.308594 555.195312 667.398438 555.257812 666.484375 C 555.316406 665.570312 555.460938 664.671875 555.683594 663.78125 C 555.910156 662.894531 556.210938 662.035156 556.589844 661.203125 C 556.96875 660.367188 557.421875 659.578125 557.945312 658.824219 C 558.46875 658.074219 559.054688 657.375 559.703125 656.730469 C 560.355469 656.085938 561.058594 655.503906 561.8125 654.988281 C 562.566406 654.46875 563.363281 654.023438 564.195312 653.648438 C 565.03125 653.277344 565.894531 652.980469 566.785156 652.761719 L 1056.785156 537.980469 C 1057.738281 537.804688 1058.695312 537.71875 1059.660156 537.726562 C 1060.628906 537.734375 1061.585938 537.832031 1062.53125 538.019531 C 1063.480469 538.210938 1064.402344 538.488281 1065.296875 538.855469 C 1066.191406 539.21875 1067.042969 539.667969 1067.851562 540.195312 C 1068.660156 540.726562 1069.414062 541.324219 1070.105469 542 C 1070.800781 542.671875 1071.425781 543.402344 1071.980469 544.195312 C 1072.535156 544.984375 1073.007812 545.824219 1073.402344 546.707031 C 1073.796875 547.585938 1074.105469 548.5 1074.324219 549.441406 C 1074.546875 550.382812 1074.675781 551.335938 1074.714844 552.300781 C 1074.75 553.265625 1074.699219 554.226562 1074.550781 555.183594 C 1074.40625 556.136719 1074.171875 557.070312 1073.847656 557.980469 C 1073.523438 558.890625 1073.117188 559.765625 1072.625 560.597656 C 1072.136719 561.429688 1071.570312 562.207031 1070.933594 562.933594 C 1070.292969 563.660156 1069.589844 564.316406 1068.824219 564.90625 C 1068.0625 565.496094 1067.246094 566.011719 1066.382812 566.445312 C 1065.519531 566.882812 1064.625 567.230469 1063.695312 567.496094 L 573.691406 682.277344 C 572.542969 682.539062 571.375 682.671875 570.195312 682.671875 Z M 570.195312 682.671875 " fill-opacity="1" fill-rule="nonzero"/><path fill="#96d2bc" d="M 576.667969 940.570312 C 575.75 940.574219 574.835938 940.496094 573.933594 940.335938 C 573.03125 940.171875 572.148438 939.929688 571.289062 939.605469 C 570.429688 939.285156 569.605469 938.886719 568.820312 938.414062 C 568.03125 937.941406 567.292969 937.402344 566.605469 936.796875 C 565.914062 936.1875 565.285156 935.523438 564.71875 934.804688 C 564.152344 934.082031 563.652344 933.316406 563.222656 932.503906 C 562.796875 931.691406 562.445312 930.847656 562.167969 929.972656 C 561.894531 929.097656 561.699219 928.203125 561.589844 927.292969 C 561.476562 926.378906 561.445312 925.464844 561.5 924.550781 C 561.554688 923.632812 561.691406 922.730469 561.910156 921.835938 C 562.128906 920.945312 562.425781 920.082031 562.800781 919.246094 C 563.179688 918.40625 563.628906 917.609375 564.148438 916.855469 C 564.667969 916.097656 565.253906 915.394531 565.902344 914.746094 C 566.550781 914.097656 567.253906 913.511719 568.011719 912.988281 C 568.765625 912.46875 569.5625 912.019531 570.398438 911.644531 C 571.238281 911.265625 572.101562 910.96875 572.992188 910.75 L 1238.425781 743.101562 C 1239.390625 742.859375 1240.371094 742.714844 1241.363281 742.667969 C 1242.355469 742.621094 1243.34375 742.667969 1244.324219 742.8125 C 1245.308594 742.960938 1246.269531 743.199219 1247.203125 743.535156 C 1248.140625 743.871094 1249.03125 744.292969 1249.886719 744.804688 C 1250.738281 745.316406 1251.53125 745.902344 1252.269531 746.570312 C 1253.003906 747.238281 1253.671875 747.96875 1254.261719 748.769531 C 1254.855469 749.566406 1255.363281 750.414062 1255.789062 751.3125 C 1256.214844 752.210938 1256.546875 753.140625 1256.792969 754.105469 C 1257.035156 755.070312 1257.179688 756.046875 1257.230469 757.039062 C 1257.28125 758.03125 1257.230469 759.019531 1257.085938 760.003906 C 1256.941406 760.984375 1256.703125 761.945312 1256.371094 762.882812 C 1256.039062 763.816406 1255.617188 764.710938 1255.105469 765.566406 C 1254.597656 766.417969 1254.007812 767.214844 1253.34375 767.953125 C 1252.679688 768.691406 1251.945312 769.355469 1251.148438 769.949219 C 1250.351562 770.542969 1249.503906 771.050781 1248.609375 771.480469 C 1247.710938 771.90625 1246.78125 772.242188 1245.816406 772.484375 L 580.382812 940.089844 C 579.167969 940.421875 577.925781 940.582031 576.667969 940.570312 Z M 576.667969 940.570312 " fill-opacity="1" fill-rule="nonzero"/><path fill="#96d2bc" d="M 713.355469 1232.011719 C 712.433594 1232.019531 711.515625 1231.945312 710.605469 1231.789062 C 709.695312 1231.628906 708.804688 1231.390625 707.9375 1231.070312 C 707.070312 1230.746094 706.242188 1230.351562 705.449219 1229.878906 C 704.652344 1229.402344 703.910156 1228.863281 703.214844 1228.253906 C 702.519531 1227.644531 701.886719 1226.976562 701.316406 1226.25 C 700.742188 1225.523438 700.242188 1224.753906 699.808594 1223.933594 C 699.378906 1223.117188 699.027344 1222.265625 698.75 1221.386719 C 698.476562 1220.503906 698.285156 1219.601562 698.171875 1218.683594 C 698.0625 1217.769531 698.039062 1216.847656 698.097656 1215.925781 C 698.15625 1215.003906 698.296875 1214.09375 698.519531 1213.199219 C 698.746094 1212.300781 699.050781 1211.433594 699.433594 1210.59375 C 699.820312 1209.75 700.277344 1208.953125 700.808594 1208.195312 C 701.339844 1207.441406 701.933594 1206.738281 702.59375 1206.089844 C 703.25 1205.441406 703.964844 1204.859375 704.730469 1204.34375 C 705.496094 1203.824219 706.300781 1203.382812 707.148438 1203.011719 C 707.996094 1202.644531 708.871094 1202.355469 709.769531 1202.144531 L 1201.085938 1082.203125 C 1201.574219 1082.066406 1202.066406 1081.957031 1202.566406 1081.871094 C 1203.066406 1081.785156 1203.570312 1081.726562 1204.074219 1081.691406 C 1204.578125 1081.65625 1205.085938 1081.644531 1205.59375 1081.660156 C 1206.097656 1081.675781 1206.601562 1081.71875 1207.105469 1081.785156 C 1207.609375 1081.851562 1208.105469 1081.941406 1208.597656 1082.054688 C 1209.09375 1082.171875 1209.578125 1082.3125 1210.058594 1082.476562 C 1210.539062 1082.640625 1211.007812 1082.832031 1211.46875 1083.042969 C 1211.929688 1083.253906 1212.375 1083.488281 1212.8125 1083.746094 C 1213.25 1084 1213.671875 1084.28125 1214.082031 1084.578125 C 1214.492188 1084.878906 1214.886719 1085.195312 1215.261719 1085.535156 C 1215.640625 1085.875 1216 1086.230469 1216.339844 1086.605469 C 1216.679688 1086.980469 1217.003906 1087.371094 1217.304688 1087.777344 C 1217.609375 1088.183594 1217.890625 1088.605469 1218.148438 1089.039062 C 1218.410156 1089.472656 1218.648438 1089.921875 1218.863281 1090.378906 C 1219.078125 1090.839844 1219.269531 1091.304688 1219.4375 1091.785156 C 1219.605469 1092.261719 1219.75 1092.746094 1219.871094 1093.238281 C 1219.992188 1093.730469 1220.085938 1094.230469 1220.15625 1094.730469 C 1220.226562 1095.234375 1220.269531 1095.738281 1220.289062 1096.242188 C 1220.308594 1096.75 1220.304688 1097.257812 1220.273438 1097.761719 C 1220.242188 1098.269531 1220.183594 1098.769531 1220.101562 1099.269531 C 1220.019531 1099.769531 1219.914062 1100.265625 1219.785156 1100.753906 C 1219.652344 1101.246094 1219.496094 1101.726562 1219.316406 1102.199219 C 1219.136719 1102.675781 1218.933594 1103.136719 1218.710938 1103.59375 C 1218.484375 1104.046875 1218.234375 1104.488281 1217.964844 1104.914062 C 1217.695312 1105.34375 1217.402344 1105.757812 1217.09375 1106.15625 C 1216.78125 1106.558594 1216.449219 1106.941406 1216.101562 1107.308594 C 1215.75 1107.671875 1215.382812 1108.023438 1214.996094 1108.351562 C 1214.613281 1108.679688 1214.210938 1108.992188 1213.796875 1109.28125 C 1213.378906 1109.570312 1212.953125 1109.835938 1212.507812 1110.085938 C 1212.066406 1110.332031 1211.613281 1110.554688 1211.144531 1110.753906 C 1210.679688 1110.957031 1210.207031 1111.132812 1209.722656 1111.289062 C 1209.242188 1111.441406 1208.75 1111.570312 1208.253906 1111.675781 L 716.984375 1231.574219 C 715.792969 1231.867188 714.585938 1232.015625 713.355469 1232.011719 Z M 713.355469 1232.011719 " fill-opacity="1" fill-rule="nonzero"/><path fill="#96d2bc" d="M 728.835938 1518.332031 C 727.929688 1518.324219 727.035156 1518.230469 726.144531 1518.0625 C 725.257812 1517.890625 724.390625 1517.640625 723.546875 1517.316406 C 722.699219 1516.988281 721.890625 1516.589844 721.117188 1516.121094 C 720.347656 1515.648438 719.621094 1515.113281 718.945312 1514.511719 C 718.265625 1513.914062 717.648438 1513.257812 717.089844 1512.546875 C 716.527344 1511.835938 716.035156 1511.078125 715.613281 1510.28125 C 715.1875 1509.480469 714.835938 1508.648438 714.558594 1507.789062 C 714.285156 1506.925781 714.085938 1506.046875 713.96875 1505.148438 C 713.851562 1504.25 713.8125 1503.351562 713.855469 1502.445312 C 713.898438 1501.542969 714.019531 1500.648438 714.222656 1499.769531 C 714.425781 1498.886719 714.703125 1498.027344 715.058594 1497.195312 C 715.414062 1496.363281 715.84375 1495.570312 716.339844 1494.8125 C 716.839844 1494.058594 717.398438 1493.351562 718.023438 1492.695312 C 718.648438 1492.042969 719.324219 1491.445312 720.054688 1490.914062 C 720.785156 1490.378906 721.558594 1489.914062 722.371094 1489.515625 C 723.1875 1489.121094 724.027344 1488.800781 724.898438 1488.554688 L 1257.492188 1344.257812 C 1258.449219 1343.996094 1259.425781 1343.832031 1260.417969 1343.765625 C 1261.410156 1343.699219 1262.398438 1343.726562 1263.382812 1343.855469 C 1264.367188 1343.980469 1265.332031 1344.203125 1266.273438 1344.519531 C 1267.214844 1344.835938 1268.117188 1345.242188 1268.976562 1345.738281 C 1269.839844 1346.230469 1270.644531 1346.804688 1271.394531 1347.457031 C 1272.144531 1348.109375 1272.820312 1348.832031 1273.429688 1349.617188 C 1274.035156 1350.402344 1274.558594 1351.242188 1275 1352.132812 C 1275.445312 1353.019531 1275.792969 1353.945312 1276.054688 1354.90625 C 1276.3125 1355.863281 1276.476562 1356.839844 1276.546875 1357.828125 C 1276.613281 1358.820312 1276.582031 1359.808594 1276.457031 1360.792969 C 1276.328125 1361.78125 1276.109375 1362.742188 1275.792969 1363.683594 C 1275.472656 1364.628906 1275.070312 1365.527344 1274.574219 1366.390625 C 1274.082031 1367.253906 1273.507812 1368.058594 1272.855469 1368.808594 C 1272.199219 1369.554688 1271.480469 1370.234375 1270.695312 1370.839844 C 1269.90625 1371.449219 1269.070312 1371.972656 1268.179688 1372.414062 C 1267.289062 1372.855469 1266.367188 1373.207031 1265.40625 1373.464844 L 732.816406 1517.765625 C 731.515625 1518.148438 730.191406 1518.335938 728.835938 1518.332031 Z M 728.835938 1518.332031 " fill-opacity="1" fill-rule="nonzero"/><path fill="#2d5a50" d="M 196.199219 906.769531 C 107.347656 911.84375 67.46875 800.121094 75.90625 727.140625 C 80.28125 688.75 99.695312 652.0625 133.058594 631.25 C 175.867188 604.53125 230.789062 599.242188 278.757812 613.757812 C 324.011719 627.269531 354.054688 662.863281 370.363281 706.019531 C 375.171875 718.789062 387.375 727.535156 401.410156 723.511719 C 413.652344 720.144531 423.886719 705.277344 418.898438 692.421875 C 399.484375 640.957031 366.691406 595.828125 314.960938 573.441406 C 255.363281 547.644531 185.574219 550.308594 126.9375 577.289062 C 19.542969 626.699219 1.964844 762.824219 50.457031 860.726562 C 77.960938 916.214844 131.484375 961.296875 196.199219 957.492188 C 228.515625 955.613281 228.734375 905.023438 196.199219 906.988281 Z M 196.199219 906.769531 " fill-opacity="1" fill-rule="nonzero"/><path fill="#2d5a50" d="M 275.039062 1187.410156 C 186.1875 1192.480469 146.265625 1080.757812 154.746094 1007.78125 C 159.121094 969.386719 178.535156 932.746094 211.898438 911.886719 C 254.707031 885.167969 309.628906 879.878906 357.59375 894.394531 C 402.851562 907.90625 432.894531 943.5 449.160156 986.660156 C 453.96875 999.429688 466.210938 1008.171875 480.25 1004.148438 C 492.492188 1000.785156 502.722656 985.917969 497.738281 973.0625 C 478.324219 921.59375 445.53125 876.46875 393.800781 854.082031 C 334.203125 828.324219 264.371094 830.949219 205.777344 857.929688 C 98.253906 907.382812 80.71875 1043.503906 129.167969 1141.191406 C 156.714844 1196.722656 210.234375 1241.761719 274.953125 1237.957031 C 307.265625 1236.121094 307.484375 1185.484375 274.953125 1187.453125 Z M 275.039062 1187.410156 " fill-opacity="1" fill-rule="nonzero"/><path fill="#2d5a50" d="M 368.789062 1486.414062 C 279.9375 1491.484375 240.058594 1379.761719 248.496094 1306.738281 C 252.871094 1268.347656 272.285156 1231.660156 305.691406 1210.847656 C 348.414062 1184.304688 403.378906 1178.882812 451.34375 1193.050781 C 496.601562 1206.5625 526.644531 1242.15625 542.953125 1285.3125 C 547.761719 1298.082031 560.007812 1306.828125 574 1302.804688 C 586.242188 1299.4375 596.476562 1284.570312 591.488281 1271.714844 C 572.03125 1220.246094 539.28125 1175.121094 487.507812 1152.734375 C 427.90625 1126.933594 358.121094 1129.601562 299.484375 1156.582031 C 192.132812 1206.167969 174.554688 1342.464844 223.046875 1440.148438 C 250.550781 1495.640625 304.074219 1540.722656 368.789062 1536.917969 C 401.105469 1535.082031 401.320312 1484.445312 368.789062 1486.414062 Z M 368.789062 1486.414062 " fill-opacity="1" fill-rule="nonzero"/><path fill="#2d5a50" d="M 447.628906 1760.359375 C 358.777344 1765.476562 318.855469 1653.710938 327.335938 1580.773438 C 331.710938 1542.339844 351.125 1505.695312 384.488281 1484.839844 C 427.296875 1458.121094 482.214844 1452.875 530.183594 1467.347656 C 575.441406 1480.859375 605.480469 1516.410156 621.75 1559.609375 C 626.558594 1572.378906 638.800781 1581.082031 652.839844 1577.101562 C 665.082031 1573.734375 675.3125 1558.867188 670.328125 1546.054688 C 650.914062 1494.589844 618.121094 1449.417969 566.390625 1427.074219 C 506.792969 1401.277344 436.960938 1403.898438 378.367188 1430.921875 C 270.839844 1480.378906 253.308594 1616.5 301.757812 1714.183594 C 329.304688 1769.675781 382.824219 1814.757812 447.542969 1810.910156 C 479.855469 1809.074219 480.074219 1758.4375 447.542969 1760.40625 Z M 447.628906 1760.359375 " fill-opacity="1" fill-rule="nonzero"/><path fill="#96d2bc" d="M 2023.453125 501.074219 C 2023.453125 501.074219 2151.792969 368.714844 2199.804688 436.96875 C 2247.816406 505.226562 2128.09375 636.800781 2128.09375 636.800781 Z M 2023.453125 501.074219 " fill-opacity="1" fill-rule="nonzero"/><path fill="#2d5a50" d="M 1910.113281 520.183594 C 1910.113281 520.183594 1868.835938 461.152344 1835.339844 455.992188 C 1801.847656 450.832031 1469.085938 782.28125 1485.832031 806.769531 C 1502.582031 831.253906 1533.714844 812.582031 1579.101562 770.039062 C 1616.882812 734.574219 1755.714844 592.113281 1800.972656 545.585938 C 1801.445312 545.101562 1801.941406 544.640625 1802.464844 544.203125 C 1802.984375 543.765625 1803.523438 543.351562 1804.082031 542.96875 C 1804.640625 542.582031 1805.21875 542.226562 1805.8125 541.894531 C 1806.410156 541.566406 1807.019531 541.269531 1807.640625 541 C 1808.265625 540.730469 1808.902344 540.492188 1809.546875 540.285156 C 1810.195312 540.074219 1810.851562 539.902344 1811.515625 539.757812 C 1812.179688 539.613281 1812.847656 539.503906 1813.523438 539.425781 C 1814.199219 539.347656 1814.875 539.300781 1815.554688 539.289062 C 1816.234375 539.277344 1816.914062 539.296875 1817.589844 539.351562 C 1818.269531 539.40625 1818.941406 539.492188 1819.609375 539.613281 C 1820.28125 539.730469 1820.941406 539.882812 1821.59375 540.066406 C 1822.25 540.253906 1822.894531 540.46875 1823.527344 540.714844 C 1824.160156 540.960938 1824.777344 541.238281 1825.382812 541.546875 C 1825.992188 541.855469 1826.582031 542.191406 1827.152344 542.554688 C 1827.726562 542.921875 1828.28125 543.3125 1828.816406 543.730469 C 1829.351562 544.148438 1829.863281 544.59375 1830.355469 545.0625 L 1854.667969 568.195312 Z M 1910.113281 520.183594 " fill-opacity="1" fill-rule="nonzero"/><path fill="#2d5a50" d="M 1579.101562 1206.5625 C 1579.101562 1206.5625 1490.207031 1253.261719 1419.71875 1277.09375 C 1381.632812 1290.210938 1349.101562 1296.289062 1339.085938 1284.746094 C 1328.285156 1272.328125 1339.917969 1236.078125 1358.371094 1195.847656 C 1388.585938 1130.257812 1437.078125 1054.347656 1437.078125 1054.347656 Z M 1579.101562 1206.5625 " fill-opacity="1" fill-rule="nonzero"/><path fill="#8fc29f" d="M 2117.335938 790.980469 C 2099.84375 812.847656 2080.429688 835.234375 2059.222656 857.753906 C 1930.316406 994.925781 1744.652344 1135.855469 1674.644531 1178.796875 L 1600.308594 1224.359375 C 1598.957031 1225.179688 1597.570312 1225.941406 1596.148438 1226.636719 C 1594.726562 1227.335938 1593.277344 1227.964844 1591.800781 1228.53125 C 1590.320312 1229.097656 1588.820312 1229.59375 1587.296875 1230.023438 C 1585.773438 1230.453125 1584.234375 1230.816406 1582.679688 1231.105469 C 1581.121094 1231.394531 1579.554688 1231.617188 1577.980469 1231.765625 C 1576.402344 1231.914062 1574.824219 1231.992188 1573.242188 1231.996094 C 1571.660156 1232.003906 1570.078125 1231.9375 1568.5 1231.800781 C 1566.925781 1231.664062 1565.355469 1231.457031 1563.800781 1231.175781 C 1562.242188 1230.898438 1560.699219 1230.546875 1559.171875 1230.128906 C 1557.644531 1229.710938 1556.140625 1229.226562 1554.65625 1228.667969 C 1553.175781 1228.117188 1551.722656 1227.496094 1550.292969 1226.808594 C 1548.867188 1226.121094 1547.476562 1225.371094 1546.117188 1224.558594 C 1544.757812 1223.746094 1543.4375 1222.875 1542.160156 1221.945312 C 1540.878906 1221.011719 1539.644531 1220.023438 1538.453125 1218.980469 C 1537.265625 1217.9375 1536.125 1216.84375 1535.03125 1215.695312 C 1533.941406 1214.550781 1532.902344 1213.355469 1531.921875 1212.113281 L 1427.984375 1080.585938 C 1427.082031 1079.4375 1426.230469 1078.257812 1425.429688 1077.042969 C 1424.625 1075.824219 1423.875 1074.578125 1423.179688 1073.296875 C 1422.480469 1072.019531 1421.835938 1070.714844 1421.246094 1069.378906 C 1420.660156 1068.046875 1420.125 1066.691406 1419.648438 1065.316406 C 1419.171875 1063.9375 1418.753906 1062.542969 1418.394531 1061.132812 C 1418.035156 1059.71875 1417.734375 1058.296875 1417.492188 1056.859375 C 1417.25 1055.421875 1417.070312 1053.976562 1416.949219 1052.523438 C 1416.828125 1051.074219 1416.765625 1049.617188 1416.765625 1048.160156 C 1416.765625 1046.703125 1416.828125 1045.25 1416.949219 1043.796875 C 1417.070312 1042.34375 1417.25 1040.902344 1417.492188 1039.464844 C 1417.734375 1038.027344 1418.035156 1036.601562 1418.394531 1035.191406 C 1418.753906 1033.777344 1419.171875 1032.382812 1419.648438 1031.007812 C 1420.125 1029.628906 1420.660156 1028.273438 1421.246094 1026.941406 C 1421.835938 1025.609375 1422.480469 1024.304688 1423.179688 1023.023438 C 1423.875 1021.746094 1424.625 1020.496094 1425.429688 1019.28125 C 1426.230469 1018.066406 1427.082031 1016.882812 1427.984375 1015.738281 C 1495.539062 930.6875 1682.078125 698.457031 1808.011719 576.503906 C 1826.558594 558.171875 1846.089844 540.957031 1866.605469 524.859375 C 1875.28125 518.035156 1884.433594 511.925781 1894.066406 506.539062 C 2014.402344 442.347656 2176.191406 478.421875 2192.371094 628.976562 C 2197.003906 671.871094 2166.308594 729.238281 2117.335938 790.980469 Z M 2117.335938 790.980469 " fill-opacity="1" fill-rule="nonzero"/><path fill="#2d5a50" d="M 1419.71875 1277.09375 C 1381.632812 1290.210938 1349.101562 1296.289062 1339.085938 1284.746094 C 1328.285156 1272.328125 1339.917969 1236.078125 1358.371094 1195.847656 C 1375.878906 1225.152344 1396.328125 1252.230469 1419.71875 1277.09375 Z M 1419.71875 1277.09375 " fill-opacity="1" fill-rule="nonzero"/><path fill="#2d5a50" d="M 2117.335938 790.980469 C 2099.84375 812.847656 2080.429688 835.234375 2059.222656 857.753906 C 2038.410156 813.652344 2014.507812 771.292969 1987.511719 730.683594 C 1945.269531 665.53125 1869.097656 611.964844 1808.011719 576.632812 C 1826.558594 558.300781 1846.089844 541.085938 1866.605469 524.992188 C 1911.027344 549.769531 1953.007812 578.164062 1992.539062 610.171875 C 2050.652344 657.746094 2092.847656 735.929688 2117.335938 790.980469 Z M 2117.335938 790.980469 " fill-opacity="1" fill-rule="nonzero"/></svg>