<svg xmlns="http://www.w3.org/2000/svg" xmlns:xlink="http://www.w3.org/1999/xlink" width="3000" zoomAndPan="magnify" viewBox="0 0 2250 2250.000011" height="3000" preserveAspectRatio="xMidYMid meet" version="1.0"><defs><clipPath id="7ed439bd86"><path d="M 19.460938 1731 L 2144 1731 L 2144 1846.925781 L 19.460938 1846.925781 Z M 19.460938 1731 " clip-rule="nonzero"/></clipPath><clipPath id="92b42cb3e7"><path d="M 1451 182.667969 L 2230.613281 182.667969 L 2230.613281 962 L 1451 962 Z M 1451 182.667969 " clip-rule="nonzero"/></clipPath></defs><g clip-path="url(#7ed439bd86)"><path fill="#25c19b" d="M 1265.882812 1742.046875 C 1265.882812 1761.628906 1250 1777.5 1230.417969 1777.5 L 933.964844 1777.5 C 914.390625 1777.5 898.511719 1761.628906 898.511719 1742.046875 C 898.511719 1736.1875 893.753906 1731.429688 887.894531 1731.429688 L 19.460938 1731.429688 L 19.460938 1737.539062 C 19.460938 1791.179688 62.9375 1847.03125 116.578125 1847.03125 L 2046.441406 1847.03125 C 2100.082031 1847.03125 2143.5625 1791.179688 2143.5625 1737.539062 L 2143.5625 1731.429688 L 1276.5 1731.429688 C 1270.628906 1731.429688 1265.882812 1736.1875 1265.882812 1742.046875 " fill-opacity="1" fill-rule="nonzero"/></g><path fill="#25c19b" d="M 1254.957031 1222.480469 C 1207.988281 1261.734375 1147.507812 1285.367188 1081.503906 1285.367188 C 1015.511719 1285.367188 955.035156 1261.734375 908.066406 1222.480469 C 775.359375 1286.914062 683.878906 1422.960938 683.878906 1580.390625 L 1479.144531 1580.390625 C 1479.144531 1422.960938 1387.660156 1286.914062 1254.957031 1222.480469 " fill-opacity="1" fill-rule="nonzero"/><path fill="#25c19b" d="M 1301.449219 1023.699219 C 1301.449219 1145.167969 1202.976562 1243.640625 1081.503906 1243.640625 C 960.035156 1243.640625 861.574219 1145.167969 861.574219 1023.699219 C 861.574219 902.238281 960.035156 803.765625 1081.503906 803.765625 C 1202.976562 803.765625 1301.449219 902.238281 1301.449219 1023.699219 " fill-opacity="1" fill-rule="nonzero"/><path fill="#25c19b" d="M 1906.710938 997.808594 L 1906.710938 1589.253906 C 1906.710938 1603.59375 1895.085938 1615.21875 1880.746094 1615.21875 L 282.273438 1615.21875 C 267.933594 1615.21875 256.308594 1603.59375 256.308594 1589.253906 L 256.308594 572.011719 C 256.308594 557.667969 267.933594 546.042969 282.273438 546.042969 L 1411.339844 546.042969 C 1413.132812 515.675781 1418.09375 485.84375 1426.167969 456.789062 L 244.132812 456.789062 C 204.308594 456.789062 171.925781 489.1875 171.925781 528.996094 L 171.925781 1698.027344 L 1991.097656 1698.027344 L 1991.097656 975.925781 C 1963.703125 986.105469 1935.507812 993.414062 1906.710938 997.808594 " fill-opacity="1" fill-rule="nonzero"/><g clip-path="url(#92b42cb3e7)"><path fill="#25c19b" d="M 1993.941406 620.5 C 1966.957031 620.5 1945.003906 598.546875 1945.003906 571.5625 C 1945.003906 544.578125 1966.957031 522.617188 1993.941406 522.617188 C 2020.933594 522.617188 2042.886719 544.578125 2042.886719 571.5625 C 2042.886719 598.546875 2020.933594 620.5 1993.941406 620.5 Z M 1840.710938 620.5 C 1813.71875 620.5 1791.765625 598.546875 1791.765625 571.5625 C 1791.765625 544.578125 1813.71875 522.617188 1840.710938 522.617188 C 1867.695312 522.617188 1889.648438 544.578125 1889.648438 571.5625 C 1889.648438 598.546875 1867.695312 620.5 1840.710938 620.5 Z M 1687.46875 620.5 C 1660.488281 620.5 1638.53125 598.546875 1638.53125 571.5625 C 1638.53125 544.578125 1660.488281 522.617188 1687.46875 522.617188 C 1714.453125 522.617188 1736.40625 544.578125 1736.40625 571.5625 C 1736.40625 598.546875 1714.453125 620.5 1687.46875 620.5 Z M 1841.222656 182.675781 C 1626.160156 182.675781 1451.824219 357.011719 1451.824219 572.074219 C 1451.824219 642.035156 1470.28125 707.671875 1502.570312 764.410156 L 1465.679688 902.058594 C 1463.628906 909.746094 1470.664062 916.792969 1478.351562 914.730469 L 1604.160156 881.019531 C 1669.816406 931.476562 1752.015625 961.476562 1841.222656 961.476562 C 2056.277344 961.476562 2230.621094 787.140625 2230.621094 572.074219 C 2230.621094 357.011719 2056.277344 182.675781 1841.222656 182.675781 " fill-opacity="1" fill-rule="nonzero"/></g></svg>