<svg xmlns="http://www.w3.org/2000/svg" xmlns:xlink="http://www.w3.org/1999/xlink" width="2000" zoomAndPan="magnify" viewBox="0 0 1500 1049.999947" height="1400" preserveAspectRatio="xMidYMid meet" version="1.0"><defs><g/></defs><g fill="#006a5a" fill-opacity="1"><g transform="translate(6.050054, 618.039681)"><g><path d="M 144.5 -33.875 L 144.5 -83.984375 L 62.546875 -83.984375 L 62.546875 -25.484375 L 79.34375 -24.609375 L 79.34375 0 L 9.265625 0 L 9.265625 -23.453125 L 18.828125 -24.328125 C 24.421875 -24.898438 27.21875 -27.601562 27.21875 -32.4375 L 27.21875 -167.09375 L 10.71875 -167.96875 L 10.71875 -192.578125 L 80.796875 -192.578125 L 80.796875 -169.125 L 71.234375 -168.25 C 68.148438 -167.863281 65.929688 -167.039062 64.578125 -165.78125 C 63.222656 -164.53125 62.546875 -162.171875 62.546875 -158.703125 L 62.546875 -113.8125 L 144.5 -113.8125 L 144.5 -167.09375 L 128 -167.96875 L 128 -192.578125 L 198.078125 -192.578125 L 198.078125 -169.125 L 188.53125 -168.25 C 182.925781 -167.675781 180.125 -164.585938 180.125 -158.984375 L 180.125 -25.484375 L 196.640625 -24.609375 L 196.640625 0 L 126.546875 0 L 126.546875 -23.453125 L 136.109375 -24.328125 C 139.003906 -24.710938 141.125 -25.53125 142.46875 -26.78125 C 143.820312 -28.039062 144.5 -30.40625 144.5 -33.875 Z M 144.5 -33.875 "/></g></g></g><g fill="#006a5a" fill-opacity="1"><g transform="translate(207.885047, 618.039681)"><g><path d="M 139.578125 -139.875 L 139.578125 -32.140625 C 139.578125 -29.054688 140.109375 -26.929688 141.171875 -25.765625 C 142.234375 -24.609375 144.117188 -23.9375 146.828125 -23.75 L 156.09375 -23.171875 L 156.09375 0 L 110.046875 0 L 110.046875 -16.796875 L 109.171875 -17.09375 C 99.523438 -3.1875 86.300781 3.765625 69.5 3.765625 C 49.8125 3.765625 35.234375 -2.503906 25.765625 -15.046875 C 16.304688 -27.597656 11.578125 -44.785156 11.578125 -66.609375 C 11.578125 -92.859375 17.945312 -113.320312 30.6875 -128 C 43.4375 -142.675781 62.550781 -150.015625 88.03125 -150.015625 C 104.445312 -150.015625 121.628906 -146.632812 139.578125 -139.875 Z M 105.984375 -46.046875 L 105.984375 -121.046875 C 100.578125 -123.554688 93.144531 -124.8125 83.6875 -124.8125 C 70.757812 -124.8125 61.398438 -119.597656 55.609375 -109.171875 C 49.816406 -98.742188 46.921875 -84.941406 46.921875 -67.765625 C 46.921875 -36.484375 56.957031 -20.84375 77.03125 -20.84375 C 85.53125 -20.84375 92.476562 -23.398438 97.875 -28.515625 C 103.28125 -33.640625 105.984375 -39.484375 105.984375 -46.046875 Z M 105.984375 -46.046875 "/></g></g></g><g fill="#006a5a" fill-opacity="1"><g transform="translate(367.731194, 618.039681)"><g><path d="M 44.59375 -74.421875 C 44.59375 -58.015625 47.679688 -45.273438 53.859375 -36.203125 C 60.035156 -27.128906 68.960938 -22.59375 80.640625 -22.59375 C 92.328125 -22.59375 103.867188 -26.742188 115.265625 -35.046875 L 127.703125 -12.734375 C 114.003906 -1.546875 96.820312 4.046875 76.15625 4.046875 C 55.5 4.046875 39.234375 -2.46875 27.359375 -15.5 C 15.492188 -28.53125 9.5625 -47.785156 9.5625 -73.265625 C 9.5625 -98.753906 16.363281 -117.914062 29.96875 -130.75 C 43.582031 -143.59375 58.929688 -150.015625 76.015625 -150.015625 C 93.097656 -150.015625 108.976562 -146.054688 123.65625 -138.140625 L 123.65625 -100.484375 L 97.015625 -98.46875 L 97.015625 -112.359375 C 97.015625 -117.578125 95.128906 -120.8125 91.359375 -122.0625 C 87.597656 -123.320312 83.691406 -123.953125 79.640625 -123.953125 C 56.273438 -123.953125 44.59375 -107.441406 44.59375 -74.421875 Z M 44.59375 -74.421875 "/></g></g></g><g fill="#006a5a" fill-opacity="1"><g transform="translate(499.777733, 618.039681)"><g><path d="M 27.515625 -32.4375 L 27.515625 -173.46875 C 27.515625 -176.550781 26.984375 -178.671875 25.921875 -179.828125 C 24.859375 -180.992188 22.972656 -181.671875 20.265625 -181.859375 L 10.140625 -182.4375 L 10.140625 -206.484375 L 61.6875 -206.484375 L 61.6875 -81.09375 C 72.300781 -82.050781 81.566406 -85.328125 89.484375 -90.921875 C 97.398438 -96.523438 102.804688 -103.863281 105.703125 -112.9375 C 106.285156 -114.875 106.578125 -116.421875 106.578125 -117.578125 C 106.578125 -120.859375 104.738281 -122.5 101.0625 -122.5 L 90.0625 -123.078125 L 90.0625 -145.671875 L 150.015625 -145.671875 L 150.015625 -122.203125 L 136.109375 -121.625 C 133.597656 -101.9375 125.101562 -86.394531 110.625 -75 L 139 -24.03125 L 156.671875 -23.171875 L 156.671875 0 L 114.390625 0 L 81.375 -60.234375 C 75 -58.492188 68.4375 -57.144531 61.6875 -56.1875 L 61.6875 -24.03125 L 61.96875 -24.03125 L 78.484375 -23.171875 L 78.484375 0 L 9.5625 0 L 9.5625 -22.015625 L 19.109375 -22.875 C 22.003906 -23.257812 24.128906 -24.078125 25.484375 -25.328125 C 26.835938 -26.585938 27.515625 -28.957031 27.515625 -32.4375 Z M 27.515625 -32.4375 "/></g></g></g><g fill="#006a5a" fill-opacity="1"><g transform="translate(656.438445, 618.039681)"><g><path d="M 9.84375 0 L 9.84375 -23.453125 L 19.40625 -24.328125 C 25 -24.898438 27.796875 -27.601562 27.796875 -32.4375 L 27.796875 -167.09375 L 11.296875 -167.96875 L 11.296875 -192.578125 L 90.640625 -192.578125 C 119.023438 -192.578125 141.179688 -185.046875 157.109375 -169.984375 C 173.035156 -154.929688 181 -132.632812 181 -103.09375 C 181 -84.75 178.582031 -68.769531 173.75 -55.15625 C 168.925781 -41.550781 162.363281 -30.890625 154.0625 -23.171875 C 137.457031 -7.722656 116.800781 0 92.09375 0 Z M 63.125 -164.484375 L 63.125 -27.796875 L 92.671875 -27.796875 C 109.273438 -27.796875 122.207031 -33.78125 131.46875 -45.75 C 140.738281 -57.71875 145.375 -75.09375 145.375 -97.875 C 145.375 -142.28125 126.550781 -164.484375 88.90625 -164.484375 Z M 63.125 -164.484375 "/></g></g></g><g fill="#006a5a" fill-opacity="1"><g transform="translate(844.663274, 618.039681)"><g><path d="M 82.25 -150.015625 C 96.726562 -150.015625 108.210938 -146.488281 116.703125 -139.4375 C 125.203125 -132.394531 129.453125 -122.5 129.453125 -109.75 C 129.453125 -101.257812 127.613281 -93.78125 123.9375 -87.3125 C 120.269531 -80.84375 115.734375 -75.773438 110.328125 -72.109375 C 104.929688 -68.441406 98.367188 -65.445312 90.640625 -63.125 C 77.703125 -59.269531 63.128906 -57.34375 46.921875 -57.34375 C 47.492188 -47.101562 50.675781 -38.847656 56.46875 -32.578125 C 62.257812 -26.304688 71.140625 -23.171875 83.109375 -23.171875 C 95.078125 -23.171875 107.046875 -27.414062 119.015625 -35.90625 L 130.03125 -12.453125 C 126.164062 -8.972656 119.644531 -5.398438 110.46875 -1.734375 C 101.300781 1.929688 90.832031 3.765625 79.0625 3.765625 C 55.507812 3.765625 38.226562 -2.75 27.21875 -15.78125 C 16.21875 -28.8125 10.71875 -46.71875 10.71875 -69.5 C 10.71875 -92.28125 16.988281 -111.394531 29.53125 -126.84375 C 42.082031 -142.289062 59.65625 -150.015625 82.25 -150.015625 Z M 69.0625 -83.828125 C 76.113281 -85.085938 82.628906 -87.890625 88.609375 -92.234375 C 94.597656 -96.578125 97.59375 -101.742188 97.59375 -107.734375 C 97.59375 -119.503906 91.800781 -125.390625 80.21875 -125.390625 C 69.40625 -125.390625 61.101562 -121.09375 55.3125 -112.5 C 49.519531 -103.914062 46.332031 -93.640625 45.75 -81.671875 C 54.25 -81.859375 62.019531 -82.578125 69.0625 -83.828125 Z M 69.0625 -83.828125 "/></g></g></g><g fill="#006a5a" fill-opacity="1"><g transform="translate(980.47442, 618.039681)"><g><path d="M 7.8125 -122.5 L 7.8125 -145.671875 L 56.765625 -145.671875 L 56.765625 -126.84375 C 61.785156 -133.988281 68.441406 -139.632812 76.734375 -143.78125 C 85.035156 -147.9375 94.015625 -150.015625 103.671875 -150.015625 C 118.347656 -150.015625 129.691406 -145.8125 137.703125 -137.40625 C 145.710938 -129.007812 149.71875 -116.414062 149.71875 -99.625 L 149.71875 -24.03125 L 166.234375 -23.171875 L 166.234375 0 L 97.296875 0 L 97.296875 -22.015625 L 106.859375 -22.875 C 109.753906 -23.257812 111.878906 -24.078125 113.234375 -25.328125 C 114.585938 -26.585938 115.265625 -28.957031 115.265625 -32.4375 L 115.265625 -92.09375 C 115.265625 -102.707031 113.617188 -110.570312 110.328125 -115.6875 C 107.046875 -120.800781 100.820312 -123.359375 91.65625 -123.359375 C 82.488281 -123.359375 75.203125 -120.460938 69.796875 -114.671875 C 64.390625 -108.878906 61.6875 -102.03125 61.6875 -94.125 L 61.6875 -24.03125 L 78.1875 -23.171875 L 78.1875 0 L 9.265625 0 L 9.265625 -22.015625 L 18.828125 -22.875 C 21.722656 -23.257812 23.84375 -24.078125 25.1875 -25.328125 C 26.539062 -26.585938 27.21875 -28.957031 27.21875 -32.4375 L 27.21875 -112.65625 C 27.21875 -118.445312 24.804688 -121.4375 19.984375 -121.625 Z M 7.8125 -122.5 "/></g></g></g><g fill="#006a5a" fill-opacity="1"><g transform="translate(1149.876636, 618.039681)"><g><path d="M 41.703125 -176.359375 L 60.53125 -176.359375 L 60.53125 -145.671875 L 99.046875 -145.671875 L 96.140625 -121.34375 L 60.53125 -121.34375 L 60.53125 -45.171875 C 60.53125 -36.679688 62.070312 -30.742188 65.15625 -27.359375 C 68.25 -23.984375 73.023438 -22.296875 79.484375 -22.296875 C 85.953125 -22.296875 92.472656 -24.320312 99.046875 -28.375 L 107.734375 -6.078125 C 98.078125 0.671875 85.816406 4.046875 70.953125 4.046875 C 62.265625 4.046875 54.925781 2.9375 48.9375 0.71875 C 42.957031 -1.5 38.519531 -3.957031 35.625 -6.65625 C 32.726562 -9.363281 30.503906 -13.320312 28.953125 -18.53125 C 27.410156 -23.75 26.539062 -27.851562 26.34375 -30.84375 C 26.15625 -33.832031 26.0625 -38.222656 26.0625 -44.015625 L 26.0625 -121.34375 L 5.5 -121.34375 L 8.390625 -142.484375 C 17.472656 -143.253906 24.328125 -146.484375 28.953125 -152.171875 C 33.585938 -157.867188 37.835938 -165.929688 41.703125 -176.359375 Z M 41.703125 -176.359375 "/></g></g></g><g fill="#006a5a" fill-opacity="1"><g transform="translate(1254.702855, 618.039681)"><g><path d="M 139.578125 -139.875 L 139.578125 -32.140625 C 139.578125 -29.054688 140.109375 -26.929688 141.171875 -25.765625 C 142.234375 -24.609375 144.117188 -23.9375 146.828125 -23.75 L 156.09375 -23.171875 L 156.09375 0 L 110.046875 0 L 110.046875 -16.796875 L 109.171875 -17.09375 C 99.523438 -3.1875 86.300781 3.765625 69.5 3.765625 C 49.8125 3.765625 35.234375 -2.503906 25.765625 -15.046875 C 16.304688 -27.597656 11.578125 -44.785156 11.578125 -66.609375 C 11.578125 -92.859375 17.945312 -113.320312 30.6875 -128 C 43.4375 -142.675781 62.550781 -150.015625 88.03125 -150.015625 C 104.445312 -150.015625 121.628906 -146.632812 139.578125 -139.875 Z M 105.984375 -46.046875 L 105.984375 -121.046875 C 100.578125 -123.554688 93.144531 -124.8125 83.6875 -124.8125 C 70.757812 -124.8125 61.398438 -119.597656 55.609375 -109.171875 C 49.816406 -98.742188 46.921875 -84.941406 46.921875 -67.765625 C 46.921875 -36.484375 56.957031 -20.84375 77.03125 -20.84375 C 85.53125 -20.84375 92.476562 -23.398438 97.875 -28.515625 C 103.28125 -33.640625 105.984375 -39.484375 105.984375 -46.046875 Z M 105.984375 -46.046875 "/></g></g></g><g fill="#006a5a" fill-opacity="1"><g transform="translate(1414.549032, 618.039681)"><g><path d="M 61.390625 -206.484375 L 61.390625 -24.03125 L 77.90625 -23.171875 L 77.90625 0 L 8.984375 0 L 8.984375 -22.015625 L 18.53125 -22.875 C 24.132812 -23.457031 26.9375 -26.546875 26.9375 -32.140625 L 26.9375 -174.921875 C 26.9375 -179.160156 24.519531 -181.472656 19.6875 -181.859375 L 9.5625 -182.4375 L 9.5625 -206.484375 Z M 61.390625 -206.484375 "/></g></g></g></svg>