<svg xmlns="http://www.w3.org/2000/svg" xmlns:xlink="http://www.w3.org/1999/xlink" width="400" zoomAndPan="magnify" viewBox="0 0 300 149.999998" height="200" preserveAspectRatio="xMidYMid meet" version="1.0"><defs><g/></defs><g fill="#eef5f4" fill-opacity="1"><g transform="translate(3.656252, 94.996556)"><g><path d="M 27.578125 -6.46875 L 27.578125 -16.03125 L 11.9375 -16.03125 L 11.9375 -4.859375 L 15.140625 -4.703125 L 15.140625 0 L 1.765625 0 L 1.765625 -4.46875 L 3.59375 -4.640625 C 4.65625 -4.753906 5.1875 -5.269531 5.1875 -6.1875 L 5.1875 -31.890625 L 2.046875 -32.046875 L 2.046875 -36.75 L 15.421875 -36.75 L 15.421875 -32.28125 L 13.59375 -32.109375 C 13.007812 -32.035156 12.585938 -31.878906 12.328125 -31.640625 C 12.066406 -31.398438 11.9375 -30.945312 11.9375 -30.28125 L 11.9375 -21.71875 L 27.578125 -21.71875 L 27.578125 -31.890625 L 24.421875 -32.046875 L 24.421875 -36.75 L 37.796875 -36.75 L 37.796875 -32.28125 L 35.984375 -32.109375 C 34.910156 -31.992188 34.375 -31.40625 34.375 -30.34375 L 34.375 -4.859375 L 37.53125 -4.703125 L 37.53125 0 L 24.15625 0 L 24.15625 -4.46875 L 25.96875 -4.640625 C 26.519531 -4.710938 26.925781 -4.867188 27.1875 -5.109375 C 27.445312 -5.347656 27.578125 -5.800781 27.578125 -6.46875 Z M 27.578125 -6.46875 "/></g></g></g><g fill="#eef5f4" fill-opacity="1"><g transform="translate(42.996997, 94.996556)"><g><path d="M 26.640625 -26.6875 L 26.640625 -6.140625 C 26.640625 -5.546875 26.738281 -5.140625 26.9375 -4.921875 C 27.144531 -4.703125 27.503906 -4.570312 28.015625 -4.53125 L 29.78125 -4.421875 L 29.78125 0 L 21 0 L 21 -3.203125 L 20.828125 -3.265625 C 18.992188 -0.609375 16.472656 0.71875 13.265625 0.71875 C 9.503906 0.71875 6.71875 -0.476562 4.90625 -2.875 C 3.101562 -5.269531 2.203125 -8.550781 2.203125 -12.71875 C 2.203125 -17.726562 3.414062 -21.628906 5.84375 -24.421875 C 8.28125 -27.222656 11.929688 -28.625 16.796875 -28.625 C 19.929688 -28.625 23.210938 -27.976562 26.640625 -26.6875 Z M 20.234375 -8.78125 L 20.234375 -23.09375 C 19.203125 -23.570312 17.78125 -23.8125 15.96875 -23.8125 C 13.5 -23.8125 11.710938 -22.816406 10.609375 -20.828125 C 9.503906 -18.835938 8.953125 -16.207031 8.953125 -12.9375 C 8.953125 -6.96875 10.867188 -3.984375 14.703125 -3.984375 C 16.316406 -3.984375 17.640625 -4.46875 18.671875 -5.4375 C 19.710938 -6.414062 20.234375 -7.53125 20.234375 -8.78125 Z M 20.234375 -8.78125 "/></g></g></g><g fill="#eef5f4" fill-opacity="1"><g transform="translate(74.325941, 94.996556)"><g><path d="M 8.515625 -14.203125 C 8.515625 -11.066406 9.101562 -8.632812 10.28125 -6.90625 C 11.457031 -5.175781 13.160156 -4.3125 15.390625 -4.3125 C 17.617188 -4.3125 19.820312 -5.101562 22 -6.6875 L 24.375 -2.4375 C 21.757812 -0.289062 18.476562 0.78125 14.53125 0.78125 C 10.59375 0.78125 7.488281 -0.460938 5.21875 -2.953125 C 2.957031 -5.441406 1.828125 -9.117188 1.828125 -13.984375 C 1.828125 -18.847656 3.125 -22.503906 5.71875 -24.953125 C 8.3125 -27.398438 11.238281 -28.625 14.5 -28.625 C 17.757812 -28.625 20.789062 -27.867188 23.59375 -26.359375 L 23.59375 -19.171875 L 18.515625 -18.796875 L 18.515625 -21.4375 C 18.515625 -22.4375 18.15625 -23.054688 17.4375 -23.296875 C 16.71875 -23.535156 15.972656 -23.65625 15.203125 -23.65625 C 10.742188 -23.65625 8.515625 -20.503906 8.515625 -14.203125 Z M 8.515625 -14.203125 "/></g></g></g><g fill="#eef5f4" fill-opacity="1"><g transform="translate(100.350513, 94.996556)"><g><path d="M 5.25 -6.1875 L 5.25 -33.109375 C 5.25 -33.691406 5.144531 -34.09375 4.9375 -34.3125 C 4.738281 -34.539062 4.382812 -34.671875 3.875 -34.703125 L 1.9375 -34.8125 L 1.9375 -39.40625 L 11.765625 -39.40625 L 11.765625 -15.46875 C 13.796875 -15.65625 15.566406 -16.28125 17.078125 -17.34375 C 18.585938 -18.414062 19.617188 -19.816406 20.171875 -21.546875 C 20.285156 -21.921875 20.34375 -22.21875 20.34375 -22.4375 C 20.34375 -23.0625 19.988281 -23.375 19.28125 -23.375 L 17.1875 -23.484375 L 17.1875 -27.796875 L 28.625 -27.796875 L 28.625 -23.328125 L 25.96875 -23.21875 C 25.488281 -19.457031 23.867188 -16.488281 21.109375 -14.3125 L 26.53125 -4.59375 L 29.90625 -4.421875 L 29.90625 0 L 21.828125 0 L 15.53125 -11.5 C 14.3125 -11.164062 13.054688 -10.90625 11.765625 -10.71875 L 11.765625 -4.59375 L 11.828125 -4.59375 L 14.984375 -4.421875 L 14.984375 0 L 1.828125 0 L 1.828125 -4.203125 L 3.640625 -4.359375 C 4.191406 -4.429688 4.597656 -4.585938 4.859375 -4.828125 C 5.117188 -5.066406 5.25 -5.519531 5.25 -6.1875 Z M 5.25 -6.1875 "/></g></g></g><g fill="#eef5f4" fill-opacity="1"><g transform="translate(131.071661, 94.996556)"><g><path d="M 1.875 0 L 1.875 -4.46875 L 3.703125 -4.640625 C 4.773438 -4.753906 5.3125 -5.269531 5.3125 -6.1875 L 5.3125 -31.890625 L 2.15625 -32.046875 L 2.15625 -36.75 L 17.296875 -36.75 C 22.710938 -36.75 26.941406 -35.3125 29.984375 -32.4375 C 33.023438 -29.5625 34.546875 -25.304688 34.546875 -19.671875 C 34.546875 -16.171875 34.082031 -13.117188 33.15625 -10.515625 C 32.238281 -7.921875 30.988281 -5.890625 29.40625 -4.421875 C 26.238281 -1.472656 22.296875 0 17.578125 0 Z M 12.046875 -31.390625 L 12.046875 -5.3125 L 17.6875 -5.3125 C 20.851562 -5.3125 23.320312 -6.453125 25.09375 -8.734375 C 26.863281 -11.015625 27.75 -14.332031 27.75 -18.6875 C 27.75 -27.15625 24.15625 -31.390625 16.96875 -31.390625 Z M 12.046875 -31.390625 "/></g></g></g><g fill="#eef5f4" fill-opacity="1"><g transform="translate(167.815479, 94.996556)"><g><path d="M 15.703125 -28.625 C 18.460938 -28.625 20.648438 -27.953125 22.265625 -26.609375 C 23.890625 -25.265625 24.703125 -23.378906 24.703125 -20.953125 C 24.703125 -19.328125 24.351562 -17.894531 23.65625 -16.65625 C 22.957031 -15.425781 22.09375 -14.460938 21.0625 -13.765625 C 20.03125 -13.066406 18.773438 -12.492188 17.296875 -12.046875 C 14.828125 -11.304688 12.046875 -10.9375 8.953125 -10.9375 C 9.066406 -8.988281 9.675781 -7.414062 10.78125 -6.21875 C 11.882812 -5.019531 13.578125 -4.421875 15.859375 -4.421875 C 18.140625 -4.421875 20.425781 -5.234375 22.71875 -6.859375 L 24.8125 -2.375 C 24.070312 -1.707031 22.828125 -1.023438 21.078125 -0.328125 C 19.328125 0.367188 17.332031 0.71875 15.09375 0.71875 C 10.59375 0.71875 7.289062 -0.523438 5.1875 -3.015625 C 3.09375 -5.503906 2.046875 -8.921875 2.046875 -13.265625 C 2.046875 -17.609375 3.242188 -21.253906 5.640625 -24.203125 C 8.035156 -27.148438 11.390625 -28.625 15.703125 -28.625 Z M 13.171875 -16 C 14.523438 -16.238281 15.769531 -16.769531 16.90625 -17.59375 C 18.050781 -18.425781 18.625 -19.414062 18.625 -20.5625 C 18.625 -22.8125 17.519531 -23.9375 15.3125 -23.9375 C 13.25 -23.9375 11.660156 -23.113281 10.546875 -21.46875 C 9.441406 -19.832031 8.835938 -17.867188 8.734375 -15.578125 C 10.347656 -15.617188 11.828125 -15.757812 13.171875 -16 Z M 13.171875 -16 "/></g></g></g><g fill="#eef5f4" fill-opacity="1"><g transform="translate(194.558352, 94.996556)"><g><path d="M 1.484375 -23.375 L 1.484375 -27.796875 L 10.828125 -27.796875 L 10.828125 -24.203125 C 11.785156 -25.566406 13.054688 -26.644531 14.640625 -27.4375 C 16.222656 -28.226562 17.9375 -28.625 19.78125 -28.625 C 22.582031 -28.625 24.75 -27.820312 26.28125 -26.21875 C 27.8125 -24.613281 28.578125 -22.210938 28.578125 -19.015625 L 28.578125 -4.59375 L 31.71875 -4.421875 L 31.71875 0 L 18.5625 0 L 18.5625 -4.203125 L 20.390625 -4.359375 C 20.941406 -4.429688 21.347656 -4.585938 21.609375 -4.828125 C 21.867188 -5.066406 22 -5.519531 22 -6.1875 L 22 -17.578125 C 22 -19.597656 21.679688 -21.097656 21.046875 -22.078125 C 20.421875 -23.054688 19.234375 -23.546875 17.484375 -23.546875 C 15.734375 -23.546875 14.34375 -22.992188 13.3125 -21.890625 C 12.28125 -20.785156 11.765625 -19.476562 11.765625 -17.96875 L 11.765625 -4.59375 L 14.921875 -4.421875 L 14.921875 0 L 1.765625 0 L 1.765625 -4.203125 L 3.59375 -4.359375 C 4.144531 -4.429688 4.546875 -4.585938 4.796875 -4.828125 C 5.054688 -5.066406 5.1875 -5.519531 5.1875 -6.1875 L 5.1875 -21.5 C 5.1875 -22.601562 4.726562 -23.175781 3.8125 -23.21875 Z M 1.484375 -23.375 "/></g></g></g><g fill="#eef5f4" fill-opacity="1"><g transform="translate(227.710683, 94.996556)"><g><path d="M 7.953125 -33.65625 L 11.546875 -33.65625 L 11.546875 -27.796875 L 18.90625 -27.796875 L 18.34375 -23.15625 L 11.546875 -23.15625 L 11.546875 -8.625 C 11.546875 -7 11.835938 -5.863281 12.421875 -5.21875 C 13.015625 -4.570312 13.925781 -4.25 15.15625 -4.25 C 16.394531 -4.25 17.644531 -4.640625 18.90625 -5.421875 L 20.5625 -1.15625 C 18.71875 0.132812 16.378906 0.78125 13.546875 0.78125 C 11.878906 0.78125 10.472656 0.566406 9.328125 0.140625 C 8.191406 -0.285156 7.347656 -0.753906 6.796875 -1.265625 C 6.242188 -1.785156 5.816406 -2.539062 5.515625 -3.53125 C 5.222656 -4.53125 5.054688 -5.316406 5.015625 -5.890625 C 4.984375 -6.460938 4.96875 -7.300781 4.96875 -8.40625 L 4.96875 -23.15625 L 1.046875 -23.15625 L 1.609375 -27.1875 C 3.335938 -27.332031 4.644531 -27.945312 5.53125 -29.03125 C 6.414062 -30.125 7.222656 -31.664062 7.953125 -33.65625 Z M 7.953125 -33.65625 "/></g></g></g><g fill="#eef5f4" fill-opacity="1"><g transform="translate(248.541401, 94.996556)"><g><path d="M 26.640625 -26.6875 L 26.640625 -6.140625 C 26.640625 -5.546875 26.738281 -5.140625 26.9375 -4.921875 C 27.144531 -4.703125 27.503906 -4.570312 28.015625 -4.53125 L 29.78125 -4.421875 L 29.78125 0 L 21 0 L 21 -3.203125 L 20.828125 -3.265625 C 18.992188 -0.609375 16.472656 0.71875 13.265625 0.71875 C 9.503906 0.71875 6.71875 -0.476562 4.90625 -2.875 C 3.101562 -5.269531 2.203125 -8.550781 2.203125 -12.71875 C 2.203125 -17.726562 3.414062 -21.628906 5.84375 -24.421875 C 8.28125 -27.222656 11.929688 -28.625 16.796875 -28.625 C 19.929688 -28.625 23.210938 -27.976562 26.640625 -26.6875 Z M 20.234375 -8.78125 L 20.234375 -23.09375 C 19.203125 -23.570312 17.78125 -23.8125 15.96875 -23.8125 C 13.5 -23.8125 11.710938 -22.816406 10.609375 -20.828125 C 9.503906 -18.835938 8.953125 -16.207031 8.953125 -12.9375 C 8.953125 -6.96875 10.867188 -3.984375 14.703125 -3.984375 C 16.316406 -3.984375 17.640625 -4.46875 18.671875 -5.4375 C 19.710938 -6.414062 20.234375 -7.53125 20.234375 -8.78125 Z M 20.234375 -8.78125 "/></g></g></g><g fill="#eef5f4" fill-opacity="1"><g transform="translate(279.870333, 94.996556)"><g><path d="M 11.71875 -39.40625 L 11.71875 -4.59375 L 14.859375 -4.421875 L 14.859375 0 L 1.71875 0 L 1.71875 -4.203125 L 3.53125 -4.359375 C 4.601562 -4.472656 5.140625 -5.066406 5.140625 -6.140625 L 5.140625 -33.375 C 5.140625 -34.1875 4.679688 -34.628906 3.765625 -34.703125 L 1.828125 -34.8125 L 1.828125 -39.40625 Z M 11.71875 -39.40625 "/></g></g></g></svg>