<svg xmlns="http://www.w3.org/2000/svg" xmlns:xlink="http://www.w3.org/1999/xlink" width="3000" zoomAndPan="magnify" viewBox="0 0 2250 2250.000011" height="3000" preserveAspectRatio="xMidYMid meet" version="1.0"><defs><clipPath id="f9cde76773"><path d="M 419.1875 201 L 1944.757812 201 L 1944.757812 2223.980469 L 419.1875 2223.980469 Z M 419.1875 201 " clip-rule="nonzero"/></clipPath><clipPath id="55e88f3c50"><path d="M 872 25.207031 L 1492 25.207031 L 1492 385 L 872 385 Z M 872 25.207031 " clip-rule="nonzero"/></clipPath></defs><g clip-path="url(#f9cde76773)"><path fill="#008060" d="M 1786.011719 201.855469 L 1523.601562 201.855469 C 1532.335938 221.800781 1537.183594 243.964844 1537.183594 267.042969 C 1537.183594 280.472656 1535.46875 293.652344 1532.488281 306.171875 L 1786.011719 306.171875 C 1816.003906 306.171875 1840.390625 330.558594 1840.390625 360.554688 L 1840.390625 2064.511719 C 1840.390625 2094.503906 1816.003906 2118.890625 1786.011719 2118.890625 L 577.480469 2118.890625 C 547.488281 2118.890625 523.25 2094.503906 523.25 2064.511719 L 523.25 360.554688 C 523.25 330.558594 547.488281 306.171875 577.480469 306.171875 L 831 306.171875 C 828.023438 293.652344 826.304688 280.472656 826.304688 267.042969 C 826.304688 243.964844 831.152344 221.800781 839.886719 201.855469 L 577.480469 201.855469 C 489.976562 201.855469 418.933594 273.050781 418.933594 360.554688 L 418.933594 2064.511719 C 418.933594 2152.015625 489.976562 2223.207031 577.480469 2223.207031 L 1786.011719 2223.207031 C 1873.511719 2223.207031 1944.707031 2152.015625 1944.707031 2064.511719 L 1944.707031 360.554688 C 1944.707031 273.050781 1873.511719 201.855469 1786.011719 201.855469 " fill-opacity="1" fill-rule="nonzero"/></g><g clip-path="url(#55e88f3c50)"><path fill="#008060" d="M 1374.195312 319.199219 L 989.445312 319.199219 C 960.664062 319.199219 937.289062 295.871094 937.289062 267.042969 C 937.289062 238.210938 960.664062 214.882812 989.445312 214.882812 L 1374.195312 214.882812 C 1402.875 214.882812 1426.355469 238.210938 1426.355469 267.042969 C 1426.355469 295.871094 1402.875 319.199219 1374.195312 319.199219 Z M 1181.667969 91.027344 C 1218.074219 91.027344 1248.722656 116.019531 1257.457031 149.699219 L 1106.03125 149.699219 C 1114.667969 116.019531 1145.417969 91.027344 1181.667969 91.027344 Z M 1374.195312 149.699219 L 1323.703125 149.699219 C 1314.3125 79.765625 1254.175781 25.789062 1181.667969 25.789062 C 1109.3125 25.789062 1049.078125 79.765625 1039.6875 149.699219 L 989.445312 149.699219 C 924.664062 149.699219 872.101562 202.359375 872.101562 267.042969 C 872.101562 331.722656 924.664062 384.4375 989.445312 384.4375 L 1374.195312 384.4375 C 1438.875 384.4375 1491.539062 331.722656 1491.539062 267.042969 C 1491.539062 202.359375 1438.875 149.699219 1374.195312 149.699219 " fill-opacity="1" fill-rule="nonzero"/></g><path fill="#008060" d="M 790.910156 1916.722656 C 782.480469 1916.722656 773.996094 1913.996094 766.925781 1908.492188 L 649.53125 1817.203125 C 632.464844 1803.921875 629.4375 1779.382812 642.664062 1762.316406 C 655.945312 1745.25 680.535156 1742.171875 697.601562 1755.449219 L 790.253906 1827.5 L 987.730469 1664.867188 C 1004.441406 1651.082031 1029.082031 1653.503906 1042.816406 1670.167969 C 1056.550781 1686.882812 1054.175781 1711.519531 1037.515625 1725.253906 L 815.804688 1907.835938 C 808.582031 1913.742188 799.746094 1916.722656 790.910156 1916.722656 " fill-opacity="1" fill-rule="nonzero"/><path fill="#008060" d="M 1671.191406 1740.707031 L 1136.53125 1740.707031 C 1111.433594 1740.707031 1090.882812 1761.257812 1090.882812 1786.351562 C 1090.882812 1811.445312 1111.433594 1831.996094 1136.53125 1831.996094 L 1671.191406 1831.996094 C 1696.285156 1831.996094 1716.835938 1811.445312 1716.835938 1786.351562 C 1716.835938 1761.257812 1696.285156 1740.707031 1671.191406 1740.707031 " fill-opacity="1" fill-rule="nonzero"/><path fill="#008060" d="M 790.910156 1551.613281 C 782.480469 1551.613281 773.996094 1548.886719 766.925781 1543.332031 L 649.53125 1452.09375 C 632.464844 1438.8125 629.4375 1414.222656 642.664062 1397.15625 C 655.945312 1380.089844 680.535156 1377.0625 697.601562 1390.289062 L 790.253906 1462.394531 L 987.730469 1299.707031 C 1004.441406 1285.972656 1029.082031 1288.296875 1042.816406 1305.007812 C 1056.550781 1321.722656 1054.175781 1346.363281 1037.515625 1360.097656 L 815.804688 1542.675781 C 808.582031 1548.632812 799.746094 1551.613281 790.910156 1551.613281 " fill-opacity="1" fill-rule="nonzero"/><path fill="#008060" d="M 1671.191406 1375.546875 L 1136.53125 1375.546875 C 1111.433594 1375.546875 1090.882812 1396.097656 1090.882812 1421.191406 C 1090.882812 1446.285156 1111.433594 1466.835938 1136.53125 1466.835938 L 1671.191406 1466.835938 C 1696.285156 1466.835938 1716.835938 1446.285156 1716.835938 1421.191406 C 1716.835938 1396.097656 1696.285156 1375.546875 1671.191406 1375.546875 " fill-opacity="1" fill-rule="nonzero"/><path fill="#008060" d="M 1672 650.125 L 1137.335938 650.125 C 1112.242188 650.125 1091.691406 670.675781 1091.691406 695.769531 C 1091.691406 720.863281 1112.242188 741.414062 1137.335938 741.414062 L 1672 741.414062 C 1697.09375 741.414062 1717.644531 720.863281 1717.644531 695.769531 C 1717.644531 670.675781 1697.09375 650.125 1672 650.125 " fill-opacity="1" fill-rule="nonzero"/><path fill="#008060" d="M 727.089844 643.613281 C 718.859375 643.613281 711.890625 650.578125 711.890625 658.808594 L 711.890625 732.730469 C 711.890625 740.960938 718.859375 747.929688 727.089844 747.929688 L 882.503906 747.929688 C 890.734375 747.929688 897.703125 740.960938 897.703125 732.730469 L 897.703125 658.808594 C 897.703125 650.578125 890.734375 643.613281 882.503906 643.613281 Z M 882.503906 826.191406 L 727.089844 826.191406 C 675.535156 826.191406 633.628906 784.28125 633.628906 732.730469 L 633.628906 658.808594 C 633.628906 607.308594 675.535156 565.347656 727.089844 565.347656 L 882.503906 565.347656 C 934.003906 565.347656 975.964844 607.308594 975.964844 658.808594 L 975.964844 732.730469 C 975.964844 784.28125 934.003906 826.191406 882.503906 826.191406 " fill-opacity="1" fill-rule="nonzero"/><path fill="#008060" d="M 1672 1015.285156 L 1137.335938 1015.285156 C 1112.242188 1015.285156 1091.691406 1035.835938 1091.691406 1060.929688 C 1091.691406 1086.023438 1112.242188 1106.574219 1137.335938 1106.574219 L 1672 1106.574219 C 1697.09375 1106.574219 1717.644531 1086.023438 1717.644531 1060.929688 C 1717.644531 1035.835938 1697.09375 1015.285156 1672 1015.285156 " fill-opacity="1" fill-rule="nonzero"/><path fill="#008060" d="M 727.089844 1008.769531 C 718.859375 1008.769531 711.890625 1015.738281 711.890625 1023.96875 L 711.890625 1097.890625 C 711.890625 1106.121094 718.859375 1113.089844 727.089844 1113.089844 L 882.503906 1113.089844 C 890.734375 1113.089844 897.703125 1106.121094 897.703125 1097.890625 L 897.703125 1023.96875 C 897.703125 1015.738281 890.734375 1008.769531 882.503906 1008.769531 Z M 882.503906 1191.351562 L 727.089844 1191.351562 C 675.535156 1191.351562 633.628906 1149.390625 633.628906 1097.890625 L 633.628906 1023.96875 C 633.628906 972.417969 675.535156 930.507812 727.089844 930.507812 L 882.503906 930.507812 C 934.003906 930.507812 975.964844 972.417969 975.964844 1023.96875 L 975.964844 1097.890625 C 975.964844 1149.390625 934.003906 1191.351562 882.503906 1191.351562 " fill-opacity="1" fill-rule="nonzero"/></svg>