<svg xmlns="http://www.w3.org/2000/svg" xmlns:xlink="http://www.w3.org/1999/xlink" width="3000" zoomAndPan="magnify" viewBox="0 0 2250 2250.000011" height="3000" preserveAspectRatio="xMidYMid meet" version="1.0"><defs><clipPath id="5046cf3bc1"><path d="M 1046 1035 L 2191 1035 L 2191 2180.753906 L 1046 2180.753906 Z M 1046 1035 " clip-rule="nonzero"/></clipPath></defs><path fill="#008060" d="M 653.882812 1620.707031 C 640.171875 1577.550781 587.738281 1552.140625 550.628906 1531.167969 C 491.339844 1496.882812 413.902344 1517.050781 379.214844 1577.148438 L 170.691406 1938.53125 C 136.003906 1998.226562 156.980469 2075.664062 216.671875 2109.949219 L 266.683594 2138.988281 C 326.378906 2173.675781 403.816406 2152.703125 438.101562 2093.007812 L 647.027344 1731.625 C 666.789062 1696.535156 668 1655.394531 653.882812 1620.707031 Z M 653.882812 1620.707031 " fill-opacity="1" fill-rule="evenodd"/><path fill="#008060" d="M 875.3125 558.734375 C 950.332031 393.769531 686.152344 325.609375 672.4375 506.300781 C 670.421875 616.8125 824.898438 654.726562 875.3125 558.734375 Z M 875.3125 558.734375 " fill-opacity="1" fill-rule="evenodd"/><path fill="#008060" d="M 1128.203125 589.789062 C 985.019531 593.824219 985.824219 802.75 1128.203125 805.976562 C 1270.980469 802.75 1270.980469 593.421875 1128.203125 589.789062 Z M 1128.203125 589.789062 " fill-opacity="1" fill-rule="evenodd"/><path fill="#008060" d="M 1360.925781 356.261719 C 1363.34375 498.234375 1574.691406 498.636719 1577.109375 356.261719 C 1573.480469 213.480469 1364.554688 213.882812 1360.925781 356.261719 Z M 1360.925781 356.261719 " fill-opacity="1" fill-rule="evenodd"/><path fill="#006a43" d="M 653.882812 1642.488281 C 637.347656 1642.890625 626.054688 1623.53125 634.925781 1609.414062 L 761.171875 1390.808594 C 774.882812 1365.800781 814.007812 1388.386719 799.082031 1412.992188 C 799.082031 1412.992188 672.839844 1631.597656 672.839844 1631.597656 C 668.808594 1638.855469 661.144531 1642.488281 653.882812 1642.488281 Z M 471.175781 1537.21875 C 454.636719 1537.621094 443.34375 1518.261719 452.21875 1504.144531 L 578.460938 1285.539062 C 592.175781 1260.53125 631.296875 1283.117188 616.375 1307.722656 C 616.375 1307.722656 490.132812 1526.328125 490.132812 1526.328125 C 486.5 1533.585938 478.835938 1537.21875 471.175781 1537.21875 Z M 471.175781 1537.21875 " fill-opacity="1" fill-rule="nonzero"/><path fill="#006a43" d="M 1003.167969 1464.214844 C 234.015625 1447.675781 93.65625 384.089844 832.15625 168.710938 C 1002.363281 123.136719 1179.828125 146.527344 1332.289062 234.453125 C 1354.066406 252.203125 1418.601562 271.15625 1399.242188 305.84375 C 1391.980469 315.523438 1378.269531 317.542969 1368.589844 310.683594 C 903.949219 -33.761719 258.214844 406.273438 408.65625 964.484375 C 489.726562 1296.429688 866.84375 1501.320312 1189.914062 1391.210938 C 1201.609375 1387.582031 1213.707031 1394.035156 1217.742188 1405.328125 C 1221.371094 1417.023438 1214.917969 1429.125 1203.625 1433.15625 C 1137.882812 1454.132812 1070.527344 1464.214844 1003.167969 1464.214844 Z M 1588 1079.433594 C 1572.675781 1079.839844 1561.382812 1062.898438 1567.835938 1048.78125 C 1651.726562 854.375 1630.753906 633.753906 1511.367188 458.304688 C 1494.832031 435.3125 1531.9375 409.5 1547.667969 433.699219 C 1675.523438 621.652344 1698.515625 858.007812 1608.167969 1066.125 C 1604.539062 1074.59375 1596.472656 1079.433594 1588 1079.433594 Z M 1588 1079.433594 " fill-opacity="1" fill-rule="nonzero"/><path fill="#006a43" d="M 328.796875 2177.707031 C 286.046875 2180.53125 240.871094 2149.476562 205.378906 2128.90625 C 136.003906 2090.992188 110.59375 1995 151.332031 1927.238281 C 151.332031 1927.238281 359.855469 1565.855469 359.855469 1565.855469 C 400.589844 1495.269531 490.9375 1471.070312 561.519531 1511.808594 L 611.535156 1540.847656 C 682.117188 1581.582031 706.316406 1671.929688 665.582031 1742.511719 L 457.058594 2103.898438 C 431.246094 2149.476562 380.828125 2178.113281 328.796875 2177.707031 Z M 488.113281 1536.410156 C 452.21875 1536.410156 417.53125 1554.964844 398.171875 1588.035156 L 189.246094 1949.421875 C 175.53125 1973.21875 171.902344 2001.050781 179.160156 2028.074219 C 186.421875 2054.691406 203.363281 2077.277344 227.160156 2090.992188 C 264.265625 2112.367188 310.246094 2145.84375 355.820312 2130.117188 C 382.441406 2122.855469 405.027344 2105.914062 418.742188 2082.117188 L 627.667969 1720.734375 C 656.304688 1671.125 639.363281 1607.800781 589.753906 1579.164062 C 561.519531 1564.242188 521.1875 1533.183594 488.113281 1536.410156 Z M 488.113281 1536.410156 " fill-opacity="1" fill-rule="nonzero"/><path fill="#006a43" d="M 972.515625 1463.8125 C 843.449219 1458.164062 715.59375 1412.992188 611.9375 1336.359375 C 606.289062 1332.324219 603.0625 1325.46875 603.0625 1318.613281 L 603.0625 824.53125 C 603.0625 793.472656 628.472656 768.0625 659.53125 768.0625 L 938.234375 768.0625 C 969.289062 768.0625 994.699219 793.472656 994.699219 824.53125 L 994.699219 1442.03125 C 995.101562 1453.726562 984.617188 1464.214844 972.515625 1463.8125 Z M 647.027344 1307.316406 C 735.761719 1370.238281 841.835938 1408.957031 950.734375 1418.234375 L 950.734375 824.53125 C 950.734375 817.671875 945.089844 812.027344 938.234375 812.027344 L 659.53125 812.027344 C 652.675781 812.027344 647.027344 817.671875 647.027344 824.53125 Z M 647.027344 1307.316406 " fill-opacity="1" fill-rule="nonzero"/><path fill="#006a43" d="M 1003.574219 1464.617188 C 984.210938 1463.8125 951.542969 1469.457031 950.734375 1442.03125 L 950.734375 1018.128906 C 950.734375 985.863281 976.953125 959.644531 1009.21875 959.644531 L 1284.292969 959.644531 C 1316.558594 959.644531 1342.773438 985.863281 1342.773438 1018.128906 L 1342.773438 1144.371094 C 1342.773438 1173.007812 1298.8125 1173.007812 1298.8125 1144.371094 L 1298.8125 1018.128906 C 1298.8125 1010.0625 1292.359375 1004.011719 1284.695312 1004.011719 L 1009.621094 1004.011719 C 1001.960938 1004.011719 995.507812 1010.464844 995.507812 1018.128906 L 995.507812 1420.65625 C 1061.652344 1421.863281 1127.394531 1411.78125 1190.71875 1391.613281 C 1202.011719 1387.984375 1214.515625 1394.4375 1218.546875 1405.730469 C 1222.179688 1417.425781 1215.726562 1429.527344 1204.433594 1433.5625 C 1138.285156 1454.132812 1071.332031 1464.617188 1003.574219 1464.617188 Z M 1003.574219 1464.617188 " fill-opacity="1" fill-rule="nonzero"/><path fill="#006a43" d="M 1320.1875 1166.554688 C 1308.089844 1166.554688 1298.003906 1156.875 1298.003906 1144.371094 L 1298.003906 676.101562 C 1298.003906 643.835938 1324.222656 617.621094 1356.488281 617.621094 L 1618.25 617.621094 C 1628.335938 617.621094 1636.804688 624.476562 1639.628906 633.753906 C 1678.347656 775.726562 1666.652344 930.203125 1608.570312 1065.722656 C 1603.730469 1077.015625 1590.824219 1081.855469 1579.53125 1077.417969 C 1568.238281 1072.578125 1562.996094 1059.671875 1567.835938 1048.378906 C 1620.265625 926.976562 1632.367188 789.441406 1601.3125 661.582031 L 1356.890625 661.582031 C 1348.824219 661.582031 1342.773438 668.035156 1342.773438 675.699219 L 1342.773438 1143.96875 C 1342.371094 1156.472656 1332.289062 1166.554688 1320.1875 1166.554688 Z M 1320.1875 1166.554688 " fill-opacity="1" fill-rule="nonzero"/><path fill="#006a43" d="M 526.027344 782.988281 C 507.070312 783.792969 496.585938 758.382812 510.296875 745.476562 C 510.296875 745.476562 688.570312 567.605469 688.570312 567.605469 C 697.039062 559.136719 711.15625 559.136719 719.628906 567.605469 C 728.097656 576.078125 728.097656 590.195312 719.628906 598.664062 L 541.355469 776.53125 C 537.320312 780.566406 531.675781 782.988281 526.027344 782.988281 Z M 1033.417969 668.035156 C 1029.789062 668.035156 1026.160156 667.230469 1022.933594 665.214844 L 864.828125 578.09375 C 839.820312 563.976562 860.792969 525.660156 886.203125 539.375 L 1044.308594 626.492188 C 1064.074219 636.578125 1055.199219 668.84375 1033.417969 668.035156 Z M 1204.433594 643.433594 C 1185.476562 644.238281 1174.988281 618.832031 1188.703125 605.921875 L 1377.058594 417.164062 C 1396.820312 396.59375 1428.683594 428.457031 1408.113281 448.21875 C 1408.113281 448.21875 1219.757812 636.980469 1219.757812 636.980469 C 1215.726562 641.417969 1210.078125 643.433594 1204.433594 643.433594 Z M 1545.652344 301.8125 C 1526.695312 302.617188 1516.207031 277.207031 1529.921875 264.300781 L 1629.949219 164.273438 C 1649.710938 143.703125 1681.574219 175.566406 1661.003906 195.332031 C 1661.003906 195.332031 1560.976562 295.359375 1560.976562 295.359375 C 1556.945312 299.792969 1551.296875 301.8125 1545.652344 301.8125 Z M 1545.652344 301.8125 " fill-opacity="1" fill-rule="nonzero"/><path fill="#006a43" d="M 780.53125 636.578125 C 608.710938 632.140625 608.710938 380.863281 780.53125 376.023438 C 952.347656 380.863281 952.347656 632.140625 780.53125 636.578125 Z M 780.53125 420.390625 C 667.195312 422.40625 667.195312 590.597656 780.53125 592.613281 C 893.867188 590.597656 893.867188 422.40625 780.53125 420.390625 Z M 780.53125 420.390625 " fill-opacity="1" fill-rule="nonzero"/><path fill="#006a43" d="M 1469.019531 486.539062 C 1297.199219 482.101562 1297.199219 230.824219 1469.019531 226.386719 C 1640.835938 230.421875 1640.835938 482.101562 1469.019531 486.539062 Z M 1469.019531 269.949219 C 1355.679688 271.964844 1355.679688 440.152344 1469.019531 442.171875 C 1582.355469 440.558594 1582.355469 271.964844 1469.019531 269.949219 Z M 1469.019531 269.949219 " fill-opacity="1" fill-rule="nonzero"/><path fill="#006a43" d="M 1128.203125 828.160156 C 956.382812 823.722656 956.785156 572.445312 1128.203125 567.605469 C 1300.023438 572.445312 1300.023438 823.722656 1128.203125 828.160156 Z M 1128.203125 611.972656 C 1014.867188 613.988281 1014.867188 782.179688 1128.203125 784.195312 C 1241.539062 782.179688 1241.539062 613.988281 1128.203125 611.972656 Z M 1128.203125 611.972656 " fill-opacity="1" fill-rule="nonzero"/><g clip-path="url(#5046cf3bc1)"><path fill="#006a43" d="M 1704.160156 2180.128906 L 1533.148438 2180.128906 C 1494.429688 2180.128906 1462.96875 2148.667969 1462.96875 2109.949219 L 1462.96875 2069.617188 C 1442.398438 2062.757812 1421.828125 2054.289062 1402.066406 2044.609375 L 1373.429688 2073.246094 C 1347.210938 2100.269531 1300.425781 2100.269531 1274.207031 2073.246094 L 1153.207031 1952.246094 C 1126.1875 1926.433594 1126.1875 1879.242188 1153.207031 1853.027344 L 1181.84375 1824.390625 C 1172.164062 1805.03125 1163.695312 1784.460938 1156.839844 1763.488281 L 1116.503906 1763.488281 C 1077.785156 1763.488281 1046.324219 1732.027344 1046.324219 1693.308594 L 1046.324219 1522.292969 C 1046.324219 1483.574219 1077.785156 1452.113281 1116.503906 1452.113281 L 1156.839844 1452.113281 C 1163.695312 1431.140625 1172.164062 1410.972656 1181.84375 1391.210938 L 1153.207031 1362.574219 C 1126.1875 1336.359375 1126.1875 1289.570312 1153.207031 1263.355469 L 1274.207031 1142.355469 C 1300.425781 1116.136719 1346.808594 1115.734375 1373.429688 1142.355469 L 1402.066406 1170.992188 C 1421.828125 1161.3125 1441.996094 1152.84375 1462.96875 1145.984375 L 1462.96875 1105.652344 C 1462.96875 1066.933594 1494.429688 1035.472656 1533.148438 1035.472656 L 1704.160156 1035.472656 C 1742.878906 1035.472656 1774.339844 1066.933594 1774.339844 1105.652344 L 1774.339844 1145.984375 C 1794.910156 1152.84375 1815.480469 1161.3125 1835.242188 1170.992188 L 1863.878906 1142.355469 C 1890.5 1115.734375 1936.480469 1116.136719 1963.101562 1142.355469 L 2084.097656 1263.355469 C 2111.527344 1290.78125 2111.527344 1335.148438 2084.097656 1362.574219 L 2055.460938 1391.210938 C 2065.144531 1410.972656 2073.613281 1431.140625 2080.46875 1452.113281 L 2120.800781 1452.113281 C 2159.523438 1452.113281 2190.984375 1483.574219 2190.984375 1522.292969 L 2190.984375 1693.308594 C 2190.984375 1732.027344 2159.523438 1763.488281 2120.800781 1763.488281 L 2080.46875 1763.488281 C 2073.613281 1784.054688 2065.144531 1804.625 2055.460938 1824.390625 L 2084.097656 1853.027344 C 2111.527344 1880.453125 2111.527344 1924.820312 2084.097656 1952.246094 L 1963.101562 2073.246094 C 1949.789062 2086.554688 1932.445312 2093.816406 1913.488281 2093.816406 C 1880.820312 2096.234375 1855.8125 2065.582031 1835.242188 2044.609375 C 1815.480469 2054.289062 1795.3125 2062.757812 1774.339844 2069.617188 L 1774.339844 2109.949219 C 1774.339844 2148.667969 1742.878906 2180.128906 1704.160156 2180.128906 Z M 1398.03125 1995.402344 C 1429.492188 2005.082031 1458.53125 2024.847656 1491.203125 2032.507812 C 1500.476562 2035.332031 1506.929688 2043.800781 1506.929688 2053.484375 L 1506.929688 2109.949219 C 1506.929688 2124.46875 1518.628906 2136.164062 1533.148438 2136.164062 L 1704.160156 2136.164062 C 1718.679688 2136.164062 1730.378906 2124.46875 1730.378906 2109.949219 C 1732.796875 2080.503906 1721.503906 2038.558594 1746.105469 2032.507812 C 1774.742188 2024.039062 1802.574219 2012.34375 1828.789062 1998.226562 C 1837.261719 1993.789062 1848.148438 1995 1854.601562 2001.855469 C 1876.382812 2019.199219 1903.40625 2068.40625 1931.640625 2041.785156 L 2052.640625 1920.785156 C 2062.722656 1910.703125 2062.722656 1894.167969 2052.640625 1884.082031 L 2012.710938 1844.152344 C 2005.851562 1837.296875 2004.238281 1826.808594 2009.078125 1818.339844 C 2023.195312 1792.125 2034.894531 1764.292969 2043.363281 1735.65625 C 2055.867188 1696.128906 2144.195312 1747.757812 2147.019531 1693.710938 L 2147.019531 1522.699219 C 2147.019531 1508.175781 2135.324219 1496.480469 2120.800781 1496.480469 C 2091.359375 1494.0625 2049.414062 1505.355469 2043.363281 1480.75 C 2034.894531 1452.113281 2023.195312 1424.285156 2009.078125 1398.066406 C 2004.644531 1389.597656 2005.851562 1379.109375 2012.710938 1372.253906 L 2052.640625 1332.324219 C 2062.722656 1322.242188 2062.722656 1305.703125 2052.640625 1295.21875 L 1931.640625 1174.21875 C 1903.003906 1148 1875.980469 1197.207031 1854.601562 1214.148438 C 1847.746094 1221.003906 1837.261719 1222.617188 1828.789062 1217.777344 C 1802.574219 1203.660156 1774.742188 1191.964844 1746.105469 1183.496094 C 1721.101562 1177.042969 1732.796875 1135.902344 1730.378906 1106.054688 C 1730.378906 1091.535156 1718.679688 1079.839844 1704.160156 1079.839844 L 1533.148438 1079.839844 C 1494.832031 1081.046875 1510.15625 1133.886719 1506.929688 1162.523438 C 1506.929688 1172.203125 1500.476562 1180.671875 1491.203125 1183.496094 C 1462.566406 1191.964844 1434.734375 1203.660156 1408.519531 1217.777344 C 1386.335938 1231.089844 1364.554688 1192.367188 1342.371094 1173.816406 C 1332.691406 1164.136719 1315.347656 1164.136719 1305.667969 1173.816406 L 1184.667969 1294.816406 C 1158.050781 1323.046875 1207.660156 1350.472656 1224.597656 1371.851562 C 1231.457031 1378.707031 1233.070312 1389.195312 1228.230469 1398.066406 C 1214.113281 1424.285156 1202.414062 1452.113281 1193.945312 1480.75 C 1187.492188 1505.757812 1146.351562 1494.0625 1116.503906 1496.480469 C 1101.984375 1496.480469 1090.289062 1508.175781 1090.289062 1522.699219 L 1090.289062 1693.710938 C 1093.515625 1747.351562 1181.441406 1696.128906 1193.945312 1735.65625 C 1202.820312 1764.292969 1214.113281 1792.125 1228.230469 1818.339844 C 1233.070312 1826.808594 1231.457031 1837.296875 1224.597656 1844.554688 C 1207.253906 1865.933594 1158.050781 1893.359375 1184.667969 1921.59375 L 1305.667969 2042.59375 C 1310.507812 2047.433594 1316.960938 2050.253906 1324.222656 2050.253906 C 1349.632812 2050.660156 1373.832031 1995.804688 1398.03125 1995.402344 Z M 1618.652344 1911.507812 C 1451.269531 1911.507812 1314.945312 1775.183594 1314.945312 1607.800781 C 1329.0625 1206.082031 1907.84375 1206.082031 1921.960938 1607.800781 C 1922.363281 1775.183594 1786.035156 1911.507812 1618.652344 1911.507812 Z M 1618.652344 1348.457031 C 1275.820312 1359.347656 1275.820312 1856.65625 1618.652344 1867.546875 C 1961.890625 1856.253906 1961.488281 1358.945312 1618.652344 1348.457031 Z M 1618.652344 1348.457031 " fill-opacity="1" fill-rule="nonzero"/></g></svg>