<svg xmlns="http://www.w3.org/2000/svg" xmlns:xlink="http://www.w3.org/1999/xlink" width="3000" zoomAndPan="magnify" viewBox="0 0 2250 2250.000011" height="3000" preserveAspectRatio="xMidYMid meet" version="1.0"><defs><clipPath id="c1992d56d7"><path d="M 27.265625 38.957031 L 2198.300781 38.957031 L 2198.300781 2209.992188 L 27.265625 2209.992188 Z M 27.265625 38.957031 " clip-rule="nonzero"/></clipPath></defs><g clip-path="url(#c1992d56d7)"><path fill="#0b8484" d="M 1112.804688 38.957031 C 513.375 38.957031 27.265625 525.0625 27.265625 1124.496094 C 27.265625 1723.929688 513.375 2210.035156 1112.804688 2210.035156 C 1712.238281 2210.035156 2198.347656 1723.929688 2198.347656 1124.496094 C 2198.347656 525.0625 1712.238281 38.957031 1112.804688 38.957031 Z M 1112.804688 38.957031 " fill-opacity="1" fill-rule="nonzero"/></g><path fill="#f6f9fc" d="M 1247.132812 675.140625 C 1233.566406 657.640625 1215.191406 648.886719 1192.4375 648.886719 C 1172.3125 648.886719 1158.746094 652.828125 1151.308594 660.265625 C 1143.871094 668.140625 1128.558594 688.265625 1104.492188 721.957031 C 1080.429688 755.210938 1053.300781 785.402344 1022.234375 812.527344 C 991.167969 839.65625 950.039062 865.035156 898.410156 889.535156 C 863.84375 905.726562 839.78125 918.851562 825.777344 929.351562 C 812.214844 939.417969 805.214844 955.605469 805.214844 977.480469 C 805.214844 996.296875 812.214844 1012.921875 826.214844 1027.363281 C 840.21875 1041.800781 855.96875 1048.800781 873.910156 1048.800781 C 911.535156 1048.800781 984.605469 1007.234375 1093.117188 923.664062 L 1093.117188 1506.90625 C 1093.117188 1541.035156 1100.992188 1566.851562 1116.742188 1584.351562 C 1132.496094 1601.855469 1153.496094 1610.605469 1179.75 1610.605469 C 1238.378906 1610.605469 1267.695312 1567.726562 1267.695312 1481.96875 L 1267.695312 747.773438 C 1267.695312 717.144531 1260.695312 692.644531 1247.132812 675.140625 " fill-opacity="1" fill-rule="nonzero"/></svg>