<svg xmlns="http://www.w3.org/2000/svg" xmlns:xlink="http://www.w3.org/1999/xlink" width="3000" zoomAndPan="magnify" viewBox="0 0 2250 2250.000011" height="3000" preserveAspectRatio="xMidYMid meet" version="1.0"><defs><clipPath id="b5f2c3abca"><path d="M 21.691406 32.460938 L 2216.714844 32.460938 L 2216.714844 2227.488281 L 21.691406 2227.488281 Z M 21.691406 32.460938 " clip-rule="nonzero"/></clipPath></defs><g clip-path="url(#b5f2c3abca)"><path fill="#0b8484" d="M 1119.359375 32.460938 C 513.230469 32.460938 21.6875 524.003906 21.6875 1130.132812 C 21.6875 1736.261719 513.230469 2227.804688 1119.359375 2227.804688 C 1725.488281 2227.804688 2217.03125 1736.261719 2217.03125 1130.132812 C 2217.03125 524.003906 1725.488281 32.460938 1119.359375 32.460938 Z M 1119.359375 32.460938 " fill-opacity="1" fill-rule="nonzero"/></g><path fill="#f6f9fc" d="M 1436.582031 1473.015625 C 1418.886719 1459.300781 1393.222656 1452.222656 1359.601562 1452.222656 L 1021.140625 1452.222656 C 1031.757812 1435.851562 1042.375 1421.695312 1052.996094 1410.191406 C 1077.328125 1380.992188 1122.015625 1339.402344 1186.609375 1286.3125 C 1251.648438 1233.21875 1298.101562 1194.285156 1325.53125 1169.507812 C 1352.964844 1144.734375 1380.394531 1110.222656 1406.941406 1066.421875 C 1433.484375 1022.621094 1446.757812 973.957031 1446.757812 920.421875 C 1446.757812 886.355469 1440.5625 853.171875 1427.734375 821.757812 C 1414.902344 789.902344 1397.207031 762.03125 1374.199219 737.695312 C 1351.191406 713.363281 1324.648438 694.339844 1294.5625 680.625 C 1248.105469 659.828125 1191.476562 649.652344 1125.554688 649.652344 C 1070.691406 649.652344 1022.910156 657.617188 982.207031 673.988281 C 941.503906 690.355469 907.878906 711.59375 880.890625 737.695312 C 854.34375 764.242188 834.433594 793.445312 821.160156 825.742188 C 807.890625 858.039062 801.253906 889.449219 801.253906 919.09375 C 801.253906 943.871094 808.332031 963.335938 822.488281 977.496094 C 836.648438 991.652344 854.785156 998.730469 876.464844 998.730469 C 901.242188 998.730469 919.824219 990.765625 932.652344 975.28125 C 945.484375 959.796875 956.988281 937.675781 967.164062 908.476562 C 977.339844 879.71875 984.417969 862.019531 988.84375 855.382812 C 1021.140625 805.832031 1065.824219 781.054688 1122.457031 781.054688 C 1149.445312 781.054688 1173.777344 787.25 1196.785156 799.195312 C 1219.347656 811.140625 1237.488281 828.394531 1250.761719 850.074219 C 1264.035156 871.753906 1270.671875 896.53125 1270.671875 924.402344 C 1270.671875 950.0625 1264.476562 975.726562 1252.089844 1002.714844 C 1239.699219 1029.703125 1222.003906 1055.363281 1198.113281 1080.582031 C 1174.664062 1105.800781 1145.019531 1131.019531 1109.625 1156.238281 C 1089.71875 1169.507812 1056.535156 1197.824219 1010.523438 1240.296875 C 964.066406 1282.773438 912.300781 1334.09375 854.785156 1393.378906 C 841.070312 1407.980469 828.242188 1428.332031 816.738281 1453.992188 C 805.234375 1479.652344 799.039062 1500.449219 799.039062 1515.933594 C 799.039062 1540.265625 808.332031 1561.0625 826.46875 1579.199219 C 844.609375 1597.339844 869.828125 1606.1875 902.125 1606.1875 L 1379.066406 1606.1875 C 1407.382812 1606.1875 1429.0625 1598.667969 1442.777344 1584.066406 C 1456.933594 1569.464844 1464.011719 1551.328125 1464.011719 1530.089844 C 1463.128906 1505.757812 1454.28125 1486.730469 1436.582031 1473.015625 " fill-opacity="1" fill-rule="nonzero"/></svg>