<svg xmlns="http://www.w3.org/2000/svg" xmlns:xlink="http://www.w3.org/1999/xlink" width="3000" zoomAndPan="magnify" viewBox="0 0 2250 2250.000011" height="3000" preserveAspectRatio="xMidYMid meet" version="1.0"><defs><clipPath id="60e2a4b812"><path d="M 350.210938 187 L 1899.773438 187 L 1899.773438 2240.945312 L 350.210938 2240.945312 Z M 350.210938 187 " clip-rule="nonzero"/></clipPath></defs><g clip-path="url(#60e2a4b812)"><path fill="#25c19b" d="M 1738.816406 187.152344 L 1472.226562 187.152344 C 1481.101562 207.414062 1486.027344 229.933594 1486.027344 253.378906 C 1486.027344 267.023438 1484.28125 280.410156 1481.253906 293.132812 L 1738.816406 293.132812 C 1769.285156 293.132812 1794.0625 317.910156 1794.0625 348.378906 L 1794.0625 2079.492188 C 1794.0625 2109.960938 1769.285156 2134.738281 1738.816406 2134.738281 L 511.027344 2134.738281 C 480.558594 2134.738281 455.933594 2109.960938 455.933594 2079.492188 L 455.933594 348.378906 C 455.933594 317.910156 480.558594 293.132812 511.027344 293.132812 L 768.589844 293.132812 C 765.5625 280.410156 763.820312 267.023438 763.820312 253.378906 C 763.820312 229.933594 768.742188 207.414062 777.617188 187.152344 L 511.027344 187.152344 C 422.128906 187.152344 349.957031 259.480469 349.957031 348.378906 L 349.957031 2079.492188 C 349.957031 2168.390625 422.128906 2240.71875 511.027344 2240.71875 L 1738.816406 2240.71875 C 1827.714844 2240.71875 1900.042969 2168.390625 1900.042969 2079.492188 L 1900.042969 348.378906 C 1900.042969 259.480469 1827.714844 187.152344 1738.816406 187.152344 " fill-opacity="1" fill-rule="nonzero"/></g><path fill="#25c19b" d="M 1320.441406 306.367188 L 929.558594 306.367188 C 900.320312 306.367188 876.570312 282.667969 876.570312 253.378906 C 876.570312 224.085938 900.320312 200.386719 929.558594 200.386719 L 1320.441406 200.386719 C 1349.578125 200.386719 1373.429688 224.085938 1373.429688 253.378906 C 1373.429688 282.667969 1349.578125 306.367188 1320.441406 306.367188 Z M 1124.84375 74.558594 C 1161.832031 74.558594 1192.96875 99.949219 1201.839844 134.164062 L 1048.003906 134.164062 C 1056.773438 99.949219 1088.015625 74.558594 1124.84375 74.558594 Z M 1320.441406 134.164062 L 1269.144531 134.164062 C 1259.601562 63.117188 1198.507812 8.28125 1124.84375 8.28125 C 1051.335938 8.28125 990.140625 63.117188 980.597656 134.164062 L 929.558594 134.164062 C 863.746094 134.164062 810.34375 187.667969 810.34375 253.378906 C 810.34375 319.089844 863.746094 372.644531 929.558594 372.644531 L 1320.441406 372.644531 C 1386.152344 372.644531 1439.652344 319.089844 1439.652344 253.378906 C 1439.652344 187.667969 1386.152344 134.164062 1320.441406 134.164062 " fill-opacity="1" fill-rule="nonzero"/><path fill="#25c19b" d="M 727.859375 1929.347656 C 719.292969 1929.347656 710.675781 1926.574219 703.492188 1920.984375 L 584.226562 1828.238281 C 566.890625 1814.75 563.8125 1789.820312 577.253906 1772.480469 C 590.742188 1755.140625 615.726562 1752.011719 633.0625 1765.503906 L 727.191406 1838.703125 L 927.8125 1673.476562 C 944.792969 1659.472656 969.828125 1661.9375 983.777344 1678.863281 C 997.730469 1695.84375 995.320312 1720.875 978.394531 1734.828125 L 753.148438 1920.316406 C 745.8125 1926.320312 736.835938 1929.347656 727.859375 1929.347656 " fill-opacity="1" fill-rule="nonzero"/><path fill="#25c19b" d="M 1622.167969 1750.527344 L 1078.984375 1750.527344 C 1053.492188 1750.527344 1032.613281 1771.402344 1032.613281 1796.898438 C 1032.613281 1822.390625 1053.492188 1843.269531 1078.984375 1843.269531 L 1622.167969 1843.269531 C 1647.660156 1843.269531 1668.539062 1822.390625 1668.539062 1796.898438 C 1668.539062 1771.402344 1647.660156 1750.527344 1622.167969 1750.527344 " fill-opacity="1" fill-rule="nonzero"/><path fill="#25c19b" d="M 727.859375 1558.417969 C 719.292969 1558.417969 710.675781 1555.648438 703.492188 1550.007812 L 584.226562 1457.3125 C 566.890625 1443.820312 563.8125 1418.839844 577.253906 1401.503906 C 590.742188 1384.164062 615.726562 1381.085938 633.0625 1394.527344 L 727.191406 1467.777344 L 927.8125 1302.5 C 944.792969 1288.546875 969.828125 1290.90625 983.777344 1307.886719 C 997.730469 1324.863281 995.320312 1349.898438 978.394531 1363.851562 L 753.148438 1549.339844 C 745.8125 1555.390625 736.835938 1558.417969 727.859375 1558.417969 " fill-opacity="1" fill-rule="nonzero"/><path fill="#25c19b" d="M 1622.167969 1379.546875 L 1078.984375 1379.546875 C 1053.492188 1379.546875 1032.613281 1400.425781 1032.613281 1425.917969 C 1032.613281 1451.414062 1053.492188 1472.292969 1078.984375 1472.292969 L 1622.167969 1472.292969 C 1647.660156 1472.292969 1668.539062 1451.414062 1668.539062 1425.917969 C 1668.539062 1400.425781 1647.660156 1379.546875 1622.167969 1379.546875 " fill-opacity="1" fill-rule="nonzero"/><path fill="#25c19b" d="M 1622.988281 642.566406 L 1079.804688 642.566406 C 1054.3125 642.566406 1033.433594 663.445312 1033.433594 688.9375 C 1033.433594 714.433594 1054.3125 735.3125 1079.804688 735.3125 L 1622.988281 735.3125 C 1648.484375 735.3125 1669.359375 714.433594 1669.359375 688.9375 C 1669.359375 663.445312 1648.484375 642.566406 1622.988281 642.566406 " fill-opacity="1" fill-rule="nonzero"/><path fill="#25c19b" d="M 663.019531 635.949219 C 654.660156 635.949219 647.578125 643.027344 647.578125 651.390625 L 647.578125 726.488281 C 647.578125 734.847656 654.660156 741.929688 663.019531 741.929688 L 820.910156 741.929688 C 829.273438 741.929688 836.351562 734.847656 836.351562 726.488281 L 836.351562 651.390625 C 836.351562 643.027344 829.273438 635.949219 820.910156 635.949219 Z M 820.910156 821.4375 L 663.019531 821.4375 C 610.644531 821.4375 568.070312 778.863281 568.070312 726.488281 L 568.070312 651.390625 C 568.070312 599.066406 610.644531 556.4375 663.019531 556.4375 L 820.910156 556.4375 C 873.234375 556.4375 915.863281 599.066406 915.863281 651.390625 L 915.863281 726.488281 C 915.863281 778.863281 873.234375 821.4375 820.910156 821.4375 " fill-opacity="1" fill-rule="nonzero"/><path fill="#25c19b" d="M 1622.988281 1013.542969 L 1079.804688 1013.542969 C 1054.3125 1013.542969 1033.433594 1034.421875 1033.433594 1059.917969 C 1033.433594 1085.410156 1054.3125 1106.289062 1079.804688 1106.289062 L 1622.988281 1106.289062 C 1648.484375 1106.289062 1669.359375 1085.410156 1669.359375 1059.917969 C 1669.359375 1034.421875 1648.484375 1013.542969 1622.988281 1013.542969 " fill-opacity="1" fill-rule="nonzero"/><path fill="#25c19b" d="M 663.019531 1006.925781 C 654.660156 1006.925781 647.578125 1014.007812 647.578125 1022.367188 L 647.578125 1097.464844 C 647.578125 1105.828125 654.660156 1112.90625 663.019531 1112.90625 L 820.910156 1112.90625 C 829.273438 1112.90625 836.351562 1105.828125 836.351562 1097.464844 L 836.351562 1022.367188 C 836.351562 1014.007812 829.273438 1006.925781 820.910156 1006.925781 Z M 820.910156 1192.417969 L 663.019531 1192.417969 C 610.644531 1192.417969 568.070312 1149.789062 568.070312 1097.464844 L 568.070312 1022.367188 C 568.070312 969.992188 610.644531 927.417969 663.019531 927.417969 L 820.910156 927.417969 C 873.234375 927.417969 915.863281 969.992188 915.863281 1022.367188 L 915.863281 1097.464844 C 915.863281 1149.789062 873.234375 1192.417969 820.910156 1192.417969 " fill-opacity="1" fill-rule="nonzero"/></svg>