<svg xmlns="http://www.w3.org/2000/svg" xmlns:xlink="http://www.w3.org/1999/xlink" width="2000" zoomAndPan="magnify" viewBox="0 0 1500 1049.999947" height="1400" preserveAspectRatio="xMidYMid meet" version="1.0"><defs><clipPath id="e7aaf374a4"><path d="M 2 533 L 1497 533 L 1497 904 L 2 904 Z M 2 533 " clip-rule="nonzero"/></clipPath><clipPath id="57003db329"><path d="M 0 646.171875 L 1225.835938 132.78125 L 1499.914062 787.207031 L 274.078125 1300.597656 Z M 0 646.171875 " clip-rule="nonzero"/></clipPath><clipPath id="97f393bccc"><path d="M 1225.941406 132.738281 L 0.109375 646.125 L 274.1875 1300.550781 L 1500.023438 787.160156 Z M 1225.941406 132.738281 " clip-rule="nonzero"/></clipPath></defs><g clip-path="url(#e7aaf374a4)"><g clip-path="url(#57003db329)"><g clip-path="url(#97f393bccc)"><path fill="#96d2bc" d="M 915.324219 887.84375 L 918.082031 899.921875 C 926.179688 897.96875 934.074219 895.523438 941.800781 892 C 949.285156 888.578125 956.605469 884.074219 963.125 879.042969 L 955.578125 869.261719 C 949.6875 873.742188 943.347656 877.835938 936.597656 880.949219 C 929.503906 883.921875 922.445312 886.300781 915.324219 887.84375 Z M 867.347656 888.667969 C 874.757812 889.878906 882.3125 890.742188 889.800781 890.769531 L 889.804688 903.136719 C 881.476562 903.171875 873.332031 902.269531 865.328125 901.019531 C 857.226562 899.523438 849.40625 897.332031 841.480469 894.898438 L 845.582031 883.402344 C 852.710938 885.304688 859.835938 887.210938 867.347656 888.667969 Z M 821.953125 872.300781 L 816.113281 883.085938 C 809.003906 879.160156 802.179688 874.542969 795.742188 869.472656 C 789.304688 864.402344 783.007812 858.984375 777.589844 852.914062 L 786.472656 844.589844 C 796.554688 855.613281 808.773438 864.875 821.953125 872.300781 Z M 745.34375 796.523438 C 744.296875 792.648438 743.492188 788.671875 742.34375 784.550781 L 754.277344 782.140625 C 755.222656 785.769531 755.925781 789.503906 756.871094 793.136719 L 760.542969 803.964844 C 763.167969 810.917969 766.28125 817.667969 770.375 824.007812 L 759.835938 830.433594 C 755.433594 823.363281 751.769531 815.980469 749.082031 808.191406 Z M 752.066406 733.59375 C 751.582031 737.246094 751.550781 741.289062 751.414062 745.085938 C 751.398438 747.105469 751.035156 748.984375 751.160156 750.65625 L 751.496094 756.269531 L 739.332031 756.757812 L 739.035156 750.554688 C 739.054688 748.535156 739.070312 746.515625 739.332031 744.390625 C 739.609375 740.25 739.644531 736.207031 740.023438 732.308594 L 741.554688 720.164062 C 742.179688 716.164062 743.152344 712.304688 744.019531 708.199219 L 755.84375 711.015625 C 755.113281 714.773438 754.039062 718.386719 753.554688 722.039062 Z M 755.628906 673.425781 L 757.011719 670.546875 L 762.257812 659.71875 C 766.183594 652.609375 770.109375 645.5 774.832031 638.921875 L 784.949219 645.902344 C 780.367188 652.136719 776.929688 659.039062 773.042969 665.554688 L 768.1875 675.933594 L 766.945312 678.464844 L 765.808594 681.242188 L 763.777344 686.695312 L 752.421875 682.246094 L 754.699219 676.691406 Z M 856.90625 580.097656 L 850.96875 569.355469 C 865.179688 561.390625 879.863281 555.242188 895.199219 549.96875 L 899.179688 561.53125 C 884.332031 566.601562 870.140625 572.542969 856.90625 580.097656 Z M 921.53125 542.105469 C 937.238281 538.402344 953.214844 536.027344 969.007812 534.589844 L 970.089844 546.789062 C 954.644531 548.371094 939.507812 550.683594 924.289062 554.179688 Z M 1044.210938 535.59375 L 1043.03125 547.882812 C 1027.679688 546.257812 1012.148438 545.570312 996.679688 545.722656 L 996.433594 533.457031 C 1012.390625 533.101562 1028.414062 533.582031 1044.210938 535.59375 Z M 1094.796875 543.746094 L 1117.949219 549.582031 L 1114.789062 561.261719 L 1092.226562 555.464844 C 1084.613281 553.765625 1076.957031 552.65625 1069.445312 551.199219 L 1071.566406 539.09375 C 1079.179688 540.796875 1086.9375 542.148438 1094.796875 543.746094 Z M 1155.339844 561.25 L 1166.589844 565.453125 L 1177.84375 569.65625 C 1179.578125 570.367188 1181.558594 570.976562 1183.398438 571.933594 L 1188.953125 574.207031 L 1184.160156 585.421875 L 1178.847656 583.042969 C 1177.113281 582.332031 1175.132812 581.722656 1173.394531 581.011719 L 1162.488281 576.949219 L 1151.585938 572.886719 C 1147.867188 571.566406 1144.253906 570.492188 1140.539062 569.171875 L 1144.292969 557.535156 C 1148.007812 558.855469 1151.867188 559.828125 1155.339844 561.25 Z M 1235.175781 595.980469 C 1238.75 597.648438 1242.183594 599.660156 1245.859375 601.574219 L 1256.300781 607.269531 L 1250.460938 618.054688 L 1240.023438 612.359375 C 1236.589844 610.34375 1233.261719 608.574219 1229.6875 606.90625 L 1208.628906 596.457031 L 1213.769531 585.386719 Z M 1319.941406 645.90625 L 1313.0625 656.265625 C 1299.964844 647.65625 1286.867188 639.046875 1273.242188 631.238281 L 1279.527344 620.835938 C 1293.5 628.792969 1306.597656 637.398438 1319.941406 645.90625 Z M 1361.503906 675.09375 C 1367.980469 679.574219 1374.316406 684.398438 1380.652344 689.222656 L 1373.21875 698.953125 C 1366.882812 694.125 1360.652344 689.546875 1354.417969 684.964844 C 1347.941406 680.488281 1341.851562 675.558594 1335.230469 671.429688 L 1342.214844 661.3125 C 1348.691406 665.792969 1355.027344 670.617188 1361.503906 675.09375 Z M 1420.769531 720.457031 L 1439.285156 735.136719 L 1431.507812 744.722656 L 1413.234375 729.9375 L 1394.820312 715.503906 L 1402.253906 705.777344 Z M 1496.757812 782.398438 L 1488.878906 791.738281 L 1452.375 761.582031 L 1460.152344 751.996094 Z M 12.09375 641.109375 L 27.835938 658.097656 C 33.296875 663.578125 39.140625 668.609375 44.84375 673.988281 L 36.617188 683.183594 C 30.8125 677.5625 24.863281 672.289062 19.058594 666.667969 L 2.515625 649.144531 Z M 84.554688 704.242188 C 90.929688 708.472656 97.691406 712.257812 104.308594 716.386719 L 98.125 727.03125 C 91.402344 722.65625 84.292969 718.730469 77.570312 714.355469 C 70.992188 709.632812 64.515625 705.15625 57.933594 700.433594 L 65.367188 690.703125 C 71.597656 695.285156 78.074219 699.761719 84.554688 704.242188 Z M 148.960938 738.53125 C 152.535156 740.199219 156.148438 741.273438 159.867188 742.59375 L 170.773438 746.652344 L 166.671875 758.152344 L 155.417969 753.945312 C 151.703125 752.628906 147.984375 751.308594 144.410156 749.640625 C 137.015625 746.410156 129.625 743.179688 122.472656 739.84375 L 127.964844 728.914062 C 134.523438 732.210938 141.8125 735.195312 148.960938 738.53125 Z M 218.386719 760.078125 C 222.246094 761.050781 225.902344 761.53125 229.902344 762.15625 L 241.3125 763.996094 L 239.539062 776.242188 L 227.78125 774.265625 C 223.78125 773.636719 219.777344 773.011719 215.917969 772.039062 C 208.203125 770.09375 200.34375 768.496094 192.625 766.550781 L 195.785156 754.875 C 203.402344 756.574219 211.015625 758.273438 218.386719 760.078125 Z M 279.359375 767.617188 L 290.992188 767.925781 C 294.789062 768.058594 298.828125 768.09375 302.523438 767.984375 L 314.195312 767.699219 L 314.789062 780.105469 L 302.871094 780.496094 C 298.933594 780.707031 294.894531 780.671875 290.851562 780.636719 L 278.871094 780.191406 C 274.832031 780.15625 270.789062 780.125 266.789062 779.5 L 267.726562 767.3125 C 271.625 767.695312 275.5625 767.484375 279.359375 767.617188 Z M 386.15625 756.832031 L 389.15625 768.804688 C 373.550781 772.753906 357.78125 775.617188 342.050781 777.890625 L 340.375 765.652344 C 356.105469 763.375 371.285156 760.472656 386.15625 756.832031 Z M 433.800781 741.480469 C 441 738.753906 448.441406 735.921875 455.539062 732.949219 L 460.253906 744.207031 C 452.914062 747.28125 445.46875 750.113281 438.023438 752.941406 C 430.480469 755.527344 423.035156 758.355469 415.386719 760.699219 L 411.652344 749.03125 C 419.15625 747.039062 426.601562 744.207031 433.800781 741.480469 Z M 527.890625 712.71875 C 513.859375 719.742188 499.484375 726.625 485.007812 733.265625 L 480.050781 722.109375 C 494.28125 715.574219 508.414062 708.792969 522.441406 701.769531 Z M 594.113281 679.230469 C 580.085938 686.253906 566.058594 693.28125 552.132812 700.550781 L 546.683594 689.601562 C 560.710938 682.578125 574.636719 675.304688 588.910156 668.179688 Z M 656.851562 637.421875 L 661.320312 648.78125 C 646.78125 654.582031 632.445312 660.875 618.316406 667.65625 L 613.113281 656.605469 C 627.488281 649.71875 642.066406 643.328125 656.851562 637.421875 Z M 686.304688 639.757812 L 682.324219 628.191406 C 697.417969 623.023438 712.816406 618.585938 728.28125 614.984375 L 731.035156 627.0625 C 716.0625 630.457031 701.152344 634.6875 686.304688 639.757812 Z M 762.859375 620.636719 L 757.210938 621.566406 L 755.289062 609.425781 L 761.183594 608.394531 L 767.183594 607.609375 L 779.179688 606.035156 L 791.242188 605.300781 C 793.261719 605.316406 795.179688 605.089844 797.097656 604.859375 L 802.566406 604.871094 L 808.535156 599.207031 C 811.347656 596.304688 814.710938 594.03125 817.867188 591.273438 C 821.128906 588.753906 824.042969 586.097656 827.40625 583.824219 L 834.464844 593.8125 C 831.34375 595.980469 828.328125 598.394531 825.3125 600.808594 C 822.296875 603.222656 819.179688 605.390625 816.613281 608.191406 L 808.363281 615.960938 L 800.664062 624.363281 L 792.464844 617.15625 C 792.222656 617.257812 791.875 617.113281 791.628906 617.21875 L 780.160156 617.992188 L 768.652344 619.359375 Z M 846.714844 620.320312 L 840.9375 619.578125 C 837.039062 619.195312 833.285156 618.46875 829.488281 618.332031 L 830.425781 606.148438 C 834.324219 606.527344 838.324219 607.152344 842.46875 607.429688 L 848.488281 608.074219 C 850.367188 608.4375 852.492188 608.699219 854.472656 609.308594 L 866.433594 611.773438 L 878.113281 614.9375 L 874.707031 626.71875 L 863.621094 623.597656 L 852.351562 621.414062 C 850.472656 621.046875 848.839844 620.582031 846.714844 620.320312 Z M 899.4375 635.632812 L 904.476562 624.316406 C 919.367188 631.023438 933.261719 640.164062 945.503906 650.855469 L 937.523438 659.949219 C 925.789062 650.480469 913.285156 641.914062 899.4375 635.632812 Z M 955.761719 678.773438 L 965.09375 670.839844 C 975.441406 683.1875 984.628906 696.882812 991.617188 711.503906 L 980.667969 716.953125 C 974.089844 703.3125 965.558594 690.492188 955.761719 678.773438 Z M 990.21875 741.140625 L 1001.988281 737.648438 C 1004.433594 745.542969 1006.039062 753.496094 1007.398438 761.554688 C 1008.515625 769.71875 1009.042969 777.839844 1009.078125 786.164062 L 996.851562 785.820312 C 996.878906 778.332031 996.316406 770.800781 995.503906 763.375 C 993.859375 756.007812 992.457031 748.542969 990.21875 741.140625 Z M 993.367188 811.152344 L 1005.292969 814.210938 C 1003.203125 822.277344 1000.421875 830.058594 996.703125 837.65625 C 992.878906 845.011719 988.707031 852.222656 983.394531 858.761719 L 973.808594 850.984375 C 978.59375 845.242188 982.234375 838.824219 985.773438 832.167969 C 988.964844 825.363281 991.566406 818.523438 993.367188 811.152344 Z M 993.367188 811.152344 " fill-opacity="1" fill-rule="nonzero"/></g></g></g></svg>