<svg xmlns="http://www.w3.org/2000/svg" xmlns:xlink="http://www.w3.org/1999/xlink" width="3000" zoomAndPan="magnify" viewBox="0 0 2250 2250.000011" height="3000" preserveAspectRatio="xMidYMid meet" version="1.0"><defs><clipPath id="60dd5d3a41"><path d="M 107 0 L 2193 0 L 2193 2236 L 107 2236 Z M 107 0 " clip-rule="nonzero"/></clipPath><clipPath id="d48f371524"><path d="M 2073.417969 2292.503906 L -1.785156 2146.632812 L 152.179688 -43.734375 L 2227.386719 102.136719 Z M 2073.417969 2292.503906 " clip-rule="nonzero"/></clipPath><clipPath id="ffc6df0791"><path d="M 2073.417969 2292.503906 L -1.785156 2146.632812 L 152.179688 -43.734375 L 2227.386719 102.136719 Z M 2073.417969 2292.503906 " clip-rule="nonzero"/></clipPath><clipPath id="969c15448c"><path d="M 269.070312 186.527344 L 1924.929688 186.527344 L 1924.929688 2091.683594 L 269.070312 2091.683594 Z M 269.070312 186.527344 " clip-rule="nonzero"/></clipPath></defs><g clip-path="url(#60dd5d3a41)"><g clip-path="url(#d48f371524)"><g clip-path="url(#ffc6df0791)"><path fill="#008060" d="M 732.539062 -2.523438 C 736.300781 -2.246094 740.074219 -1.972656 743.839844 -1.707031 C 760.265625 -0.5625 776.691406 0.582031 793.128906 1.714844 C 808.628906 2.667969 823.480469 7.066406 838.203125 11.335938 C 874.144531 21.75 909.519531 33.964844 943.859375 48.9375 C 966.941406 59.007812 989.457031 70.265625 1011.777344 81.921875 C 1062.273438 108.308594 1111.226562 137.613281 1162.613281 162.3125 C 1195.566406 178.148438 1229.679688 190.769531 1265.523438 198.597656 C 1282.71875 202.355469 1299.910156 205.738281 1317.371094 208.101562 C 1327.664062 209.484375 1337.90625 211.460938 1348.269531 211.527344 C 1367.71875 211.660156 1387.164062 211.714844 1406.628906 210.804688 C 1429.226562 209.757812 1451.695312 207.777344 1474.164062 205.488281 C 1492.621094 203.597656 1510.921875 200.597656 1529.113281 197.253906 C 1562.523438 191.117188 1595.679688 183.527344 1628.367188 174.269531 C 1666.847656 163.359375 1705.679688 154.230469 1745.207031 148.085938 C 1766.332031 144.800781 1787.542969 143.5 1808.957031 143.117188 C 1835.832031 142.628906 1862.488281 144.972656 1889.117188 147.375 C 1924.53125 150.558594 1958.078125 160.703125 1989.414062 177.875 C 2002.402344 184.996094 2014.925781 192.800781 2027.332031 200.875 C 2039.320312 208.675781 2049.378906 218.628906 2059.542969 228.445312 C 2069.503906 238.066406 2078.992188 248.171875 2088.085938 258.660156 C 2107.828125 281.425781 2123.433594 306.898438 2136.902344 333.640625 C 2158.242188 376.035156 2173.285156 420.777344 2183.921875 466.949219 C 2189.140625 489.601562 2191.839844 512.695312 2192.382812 536.050781 C 2192.570312 543.921875 2192.707031 551.761719 2192.390625 559.605469 C 2190.523438 571.449219 2191.527344 583.359375 2191.644531 595.25 C 2191.78125 608.816406 2186.574219 621.757812 2187.078125 635.351562 C 2184.878906 654.136719 2180.183594 672.402344 2175.402344 690.636719 C 2169.578125 712.839844 2163.445312 734.941406 2154.9375 756.347656 C 2146.894531 776.578125 2137.648438 796.214844 2127.5 815.421875 C 2117.78125 833.8125 2107.917969 852.164062 2097.195312 869.972656 C 2075.417969 906.15625 2052.566406 941.671875 2028.789062 976.59375 C 2007.152344 1008.367188 1986.40625 1040.742188 1964.792969 1072.527344 C 1945.808594 1100.460938 1927.960938 1129.078125 1911.40625 1158.480469 C 1890.222656 1196.144531 1871.15625 1234.796875 1858.386719 1276.285156 C 1851.8125 1297.625 1846.667969 1319.246094 1842.753906 1341.28125 C 1839.804688 1357.847656 1838.410156 1374.492188 1838.21875 1391.121094 C 1838.003906 1408.984375 1837.632812 1426.898438 1839.15625 1444.816406 C 1840.699219 1462.957031 1840.679688 1481.226562 1841.660156 1499.417969 C 1842.507812 1515.410156 1843.722656 1531.375 1844.875 1547.355469 C 1846.28125 1566.78125 1847.824219 1586.1875 1849.253906 1605.601562 C 1850.476562 1622.195312 1851.78125 1638.792969 1852.777344 1655.40625 C 1853.535156 1667.949219 1854.5 1680.527344 1854.226562 1693.066406 C 1853.648438 1720.125 1854.894531 1747.265625 1852.359375 1774.234375 C 1846.953125 1831.679688 1834.0625 1887.171875 1807.925781 1939.074219 C 1794.140625 1966.464844 1777.578125 1992.128906 1759.621094 2016.9375 C 1743.140625 2039.691406 1724.742188 2060.695312 1704.042969 2079.796875 C 1677.546875 2104.25 1648.410156 2124.890625 1617.957031 2144.003906 C 1575.097656 2170.910156 1528.25 2188.421875 1480.261719 2203.035156 C 1443.234375 2214.316406 1405.78125 2224.296875 1367.425781 2230.195312 C 1349.128906 2233.015625 1330.742188 2234.976562 1312.148438 2235.453125 C 1289.160156 2236.0625 1266.242188 2235.75 1243.308594 2234.105469 C 1224.453125 2232.757812 1205.882812 2229.542969 1187.21875 2226.820312 C 1171.003906 2224.457031 1155.117188 2220.871094 1139.171875 2217.347656 C 1120.367188 2213.199219 1102.355469 2206.625 1084.695312 2199.097656 C 1059.703125 2188.445312 1036.046875 2175.222656 1013.09375 2160.761719 C 992.835938 2147.992188 973.085938 2134.449219 952.855469 2121.648438 C 933.945312 2109.671875 914.261719 2098.984375 894.835938 2087.867188 C 863 2069.660156 829.285156 2055.835938 795.09375 2042.882812 C 768.554688 2032.824219 741.027344 2026.324219 713.730469 2019.0625 C 701.433594 2015.796875 688.597656 2012.917969 675.460938 2015.261719 C 673.039062 2015.699219 670.429688 2015.1875 667.914062 2015.023438 C 651.539062 2013.929688 635.183594 2012.734375 618.804688 2011.707031 C 596.796875 2010.316406 575.082031 2006.847656 553.269531 2003.777344 C 536.445312 2001.417969 519.679688 1998.722656 503.03125 1995.589844 C 479.886719 1991.234375 457.261719 1984.527344 435.027344 1976.613281 C 407.386719 1966.757812 380.339844 1955.433594 355.023438 1940.636719 C 326.175781 1923.796875 298.050781 1905.671875 273.195312 1883.128906 C 244.113281 1856.734375 224.296875 1824.3125 211.5 1787.214844 C 203.742188 1764.742188 197.953125 1741.902344 196.597656 1718.242188 C 195.3125 1695.933594 196.496094 1673.707031 200.089844 1651.449219 C 206.21875 1613.601562 221.453125 1579.179688 237.320312 1544.878906 C 254.808594 1507.089844 269.359375 1468.1875 280.21875 1428.027344 C 284.132812 1413.542969 287.164062 1398.652344 287.996094 1383.472656 C 288.980469 1365.507812 290.832031 1347.582031 291.480469 1329.605469 C 292.03125 1314.238281 290.847656 1298.847656 289.988281 1283.472656 C 288.816406 1262.753906 286.664062 1242.144531 284.117188 1221.574219 C 280.832031 1195.019531 277.015625 1168.503906 269.625 1142.769531 C 260.148438 1109.785156 249.804688 1077.042969 239.503906 1044.300781 C 235.335938 1031.09375 230.597656 1018.035156 225.546875 1005.132812 C 216.121094 981.050781 206.34375 957.113281 196.558594 933.175781 C 185.234375 905.445312 173.433594 877.910156 162.394531 850.078125 C 148.347656 814.640625 134.023438 779.273438 124.929688 742.109375 C 117.15625 710.296875 110.851562 678.175781 108.652344 645.480469 C 107.242188 624.472656 106.6875 603.351562 108.683594 582.28125 C 109.75 567.117188 110.816406 551.953125 111.890625 536.800781 C 117.082031 479.070312 137.726562 427.0625 169.585938 379.019531 C 188.679688 350.21875 211.933594 325.226562 236.75 301.40625 C 259.707031 279.367188 282.636719 257.289062 307.363281 237.269531 C 326.234375 221.988281 344.847656 206.417969 362.695312 190.019531 C 385.894531 168.726562 408.648438 146.949219 432.449219 126.316406 C 455.082031 106.707031 479.085938 88.992188 504.109375 72.550781 C 529.414062 55.925781 555.46875 40.667969 583.246094 28.648438 C 621.007812 12.304688 660.25 1.496094 701.546875 -1.121094 C 711.875 -1.796875 722.191406 -2.488281 732.539062 -2.523438 Z M 732.539062 -2.523438 " fill-opacity="1" fill-rule="nonzero"/></g></g></g><g clip-path="url(#969c15448c)"><path fill="#01443a" d="M 1533.132812 281.292969 C 1371.925781 281.292969 1217.644531 247.707031 1097 186.546875 C 976.386719 247.691406 822.074219 281.292969 660.851562 281.292969 C 518.828125 281.292969 382.101562 255.207031 269.070312 207.164062 L 269.070312 997.953125 C 269.070312 1512.664062 639.84375 2001.59375 1097 2091.683594 C 1554.15625 2001.59375 1924.929688 1512.664062 1924.929688 997.953125 L 1924.929688 207.164062 C 1811.902344 255.207031 1675.171875 281.292969 1533.132812 281.292969 " fill-opacity="1" fill-rule="nonzero"/></g><path fill="#eaf0f6" d="M 934.492188 1455.820312 L 589.585938 1110.929688 L 692.929688 1007.585938 L 934.492188 1249.128906 L 1501.054688 682.566406 L 1604.414062 785.914062 L 934.492188 1455.820312 " fill-opacity="1" fill-rule="nonzero"/><path fill="#002f2a" d="M 1427.90625 1949.25 C 1693.894531 1766.464844 1887.09375 1445.5625 1919.953125 1101.449219 L 1604.414062 785.914062 L 934.492188 1455.820312 L 1427.90625 1949.25 " fill-opacity="1" fill-rule="nonzero"/></svg>