<svg xmlns="http://www.w3.org/2000/svg" xmlns:xlink="http://www.w3.org/1999/xlink" width="3000" zoomAndPan="magnify" viewBox="0 0 2250 2250.000011" height="3000" preserveAspectRatio="xMidYMid meet" version="1.0"><defs><clipPath id="1ff6462a50"><path d="M 41.609375 1839 L 2163 1839 L 2163 1955.355469 L 41.609375 1955.355469 Z M 41.609375 1839 " clip-rule="nonzero"/></clipPath><clipPath id="5c3f4dac92"><path d="M 1471 293.652344 L 2249.230469 293.652344 L 2249.230469 1072 L 1471 1072 Z M 1471 293.652344 " clip-rule="nonzero"/></clipPath></defs><g clip-path="url(#1ff6462a50)"><path fill="#006a5a" d="M 1286.039062 1850.539062 C 1286.039062 1870.09375 1270.183594 1885.9375 1250.632812 1885.9375 L 954.652344 1885.9375 C 935.109375 1885.9375 919.253906 1870.09375 919.253906 1850.539062 C 919.253906 1844.691406 914.503906 1839.941406 908.65625 1839.941406 L 41.609375 1839.941406 L 41.609375 1846.042969 C 41.609375 1899.59375 85.019531 1955.359375 138.570312 1955.359375 L 2065.355469 1955.359375 C 2118.90625 1955.359375 2162.316406 1899.59375 2162.316406 1846.042969 L 2162.316406 1839.941406 L 1296.640625 1839.941406 C 1290.78125 1839.941406 1286.039062 1844.691406 1286.039062 1850.539062 " fill-opacity="1" fill-rule="nonzero"/></g><path fill="#006a5a" d="M 1275.132812 1331.804688 C 1228.238281 1370.996094 1167.855469 1394.589844 1101.957031 1394.589844 C 1036.070312 1394.589844 975.6875 1370.996094 928.792969 1331.804688 C 796.300781 1396.136719 704.964844 1531.964844 704.964844 1689.144531 L 1498.960938 1689.144531 C 1498.960938 1531.964844 1407.625 1396.136719 1275.132812 1331.804688 " fill-opacity="1" fill-rule="nonzero"/><path fill="#006a5a" d="M 1321.550781 1133.339844 C 1321.550781 1254.617188 1223.234375 1352.933594 1101.957031 1352.933594 C 980.679688 1352.933594 882.375 1254.617188 882.375 1133.339844 C 882.375 1012.074219 980.679688 913.757812 1101.957031 913.757812 C 1223.234375 913.757812 1321.550781 1012.074219 1321.550781 1133.339844 " fill-opacity="1" fill-rule="nonzero"/><path fill="#006a5a" d="M 1925.847656 1107.492188 L 1925.847656 1697.992188 C 1925.847656 1712.308594 1914.238281 1723.917969 1899.921875 1723.917969 L 304.003906 1723.917969 C 289.6875 1723.917969 278.078125 1712.308594 278.078125 1697.992188 L 278.078125 682.375 C 278.078125 668.058594 289.6875 656.449219 304.003906 656.449219 L 1431.265625 656.449219 C 1433.054688 626.128906 1438.011719 596.347656 1446.066406 567.339844 L 265.921875 567.339844 C 226.164062 567.339844 193.832031 599.683594 193.832031 639.429688 L 193.832031 1806.589844 L 2010.09375 1806.589844 L 2010.09375 1085.648438 C 1982.746094 1095.808594 1954.59375 1103.101562 1925.847656 1107.492188 " fill-opacity="1" fill-rule="nonzero"/><g clip-path="url(#5c3f4dac92)"><path fill="#006a5a" d="M 2012.9375 730.785156 C 1985.996094 730.785156 1964.078125 708.867188 1964.078125 681.925781 C 1964.078125 654.988281 1985.996094 633.058594 2012.9375 633.058594 C 2039.886719 633.058594 2061.804688 654.988281 2061.804688 681.925781 C 2061.804688 708.867188 2039.886719 730.785156 2012.9375 730.785156 Z M 1859.949219 730.785156 C 1833 730.785156 1811.082031 708.867188 1811.082031 681.925781 C 1811.082031 654.988281 1833 633.058594 1859.949219 633.058594 C 1886.890625 633.058594 1908.808594 654.988281 1908.808594 681.925781 C 1908.808594 708.867188 1886.890625 730.785156 1859.949219 730.785156 Z M 1706.953125 730.785156 C 1680.015625 730.785156 1658.09375 708.867188 1658.09375 681.925781 C 1658.09375 654.988281 1680.015625 633.058594 1706.953125 633.058594 C 1733.894531 633.058594 1755.8125 654.988281 1755.8125 681.925781 C 1755.8125 708.867188 1733.894531 730.785156 1706.953125 730.785156 Z M 1860.460938 293.664062 C 1645.742188 293.664062 1471.683594 467.71875 1471.683594 682.441406 C 1471.683594 752.285156 1490.109375 817.820312 1522.351562 874.46875 L 1485.519531 1011.898438 C 1483.46875 1019.574219 1490.492188 1026.605469 1498.167969 1024.546875 L 1623.777344 990.890625 C 1689.328125 1041.269531 1771.398438 1071.21875 1860.460938 1071.21875 C 2075.171875 1071.21875 2249.238281 897.160156 2249.238281 682.441406 C 2249.238281 467.71875 2075.171875 293.664062 1860.460938 293.664062 " fill-opacity="1" fill-rule="nonzero"/></g></svg>